<svg xmlns="http://www.w3.org/2000/svg" width="900" height="600" xmlns:v="https://vecta.io/nano"><path d="M0 0h900v600H0z"/><path d="M0 150h900v450H0z" fill="#bf0000"/><path d="M0 300h900v300H0z" fill="#090"/><path d="M257.647 148.564c0 57.369-46.506 103.875-103.875 103.875S49.897 205.933 49.897 148.564 96.404 44.689 153.772 44.689s103.875 46.506 103.875 103.875z" fill-rule="evenodd"/><path d="M146.021 255.192c-5.01-.504-10.886-1.373-12.141-1.794l-5.395-1.66c-2.226-.665-6.417-2.273-9.312-3.573s-5.367-2.364-5.493-2.364-3.829-2.115-8.228-4.698c-7.932-4.661-8.025-4.698-11.727-4.722l-3.732-.023-1.275-4.182c-.704-2.301-1.452-4.182-1.665-4.182-.48 0-6.219-1.29-10.865-2.442-1.905-.472-3.933-1.19-4.511-1.593-1.008-.705-.986-.768.559-1.566 4.026-2.082 10.037-4.029 15.236-4.935 6.315-1.1 6.769-1.451 8.804-6.801.522-1.374 1.433-2.935 2.025-3.472 1.041-.942 1.155-.935 3.354.206 1.251.649 4.872 3.061 8.044 5.361 11.721 8.493 16.871 11.352 21.348 11.856 2.277.255 2.292.246 2.292-1.487 0-.96.514-2.576 1.142-3.591s1.03-1.956.897-2.089-1.022.027-1.972.36c-2.37.825-8.843-.917-8.415-2.265.23-.723-.318-.93-3.153-1.194-4.835-.452-6.454-1.275-6.18-3.145.225-1.533-.573-2.064-3.121-2.082-.611-.003-2.277-.747-3.705-1.653-2.355-1.494-2.565-1.794-2.277-3.238.27-1.347.148-1.59-.786-1.59-1.15 0-5.148-2.511-6.399-4.018-.54-.649-.579-1.185-.156-2.115.507-1.113.387-1.311-1.135-1.887-2.093-.793-5.937-5.616-5.543-6.952.192-.649-.26-1.287-1.44-2.032-.948-.599-1.811-1.569-1.918-2.16s-.562-1.485-1.011-1.99-.873-1.661-.945-2.568-.54-2.103-1.043-2.658c-.711-.786-3.562-7.59-3.562-8.504 0-.105.365-.19.81-.19 1.155 0 1.008-.543-.599-2.22-1.134-1.185-1.463-2.157-1.692-5.02-.243-3.018-.156-3.552.579-3.552.766 0 .751-.2-.132-1.755-1.875-3.29-1.999-9.037-.2-9.037.559 0 .69-.291.42-.945-1.43-3.464-1.182-7.844.516-9.084.599-.438.743-1.1.502-2.299-.333-1.669 1.451-8.505 3.459-13.251l.891-2.106 12.109.353 16.023.352h3.915l1.686 2.74c.927 1.507 2.382 4.603 3.234 6.881s2.09 5.377 2.751 6.892l1.201 2.754-2.775 8.304-2.775 8.304 1.218.938c.669.514 1.371.942 1.56.948.855.03 5.864-5.28 5.866-6.22.006-1.593 1.82-7.08 3.709-11.225.927-2.032 2.018-5.068 2.424-6.745s.915-3.472 1.134-3.993c.285-.672.15-.945-.468-.945-1.098 0-1.1-1.112-.005-3.659 1.554-3.613 1.875-5.155 1.167-5.594-1.559-.963 4.752-10.95 10.561-16.714 3.765-3.734 4.395-4.146 6.825-4.469 3.679-.488 9.6.171 11.903 1.325 1.05.526 3.924 1.132 6.386 1.349 3.249.284 4.563.615 4.791 1.212.174.452-.513 2.355-1.524 4.232-1.946 3.605-3.12 4.422-6.376 4.437-1.445.006-4.375.797-5.333 1.44-.079.053.853 2.257 2.075 4.898 1.404 3.036 2.214 5.556 2.203 6.856-.009 1.131.46 3.171 1.044 4.533 1.096 2.559 1.788 4.983 2.728 9.564.3 1.464 1.226 4.014 2.055 5.666s1.69 4.095 1.911 5.432c.405 2.463 2.764 8.105 4.13 9.87.713.923.803.915 1.97-.171 1.545-1.44 1.331-2.925-1.584-11.013-1.575-4.365-2.032-6.33-1.766-7.554.483-2.211 4.755-12.214 6.87-16.089l1.695-3.103h31.647l1.389 3.103c1.776 3.969 2.853 7.944 2.862 10.559.003 1.132.286 2.583.63 3.225 1.315 2.458 1.53 4.893.635 7.261-.476 1.26-1.076 2.293-1.332 2.293s.019.486.613 1.08c1.71 1.71 1.529 6.938-.318 9.131-1.35 1.605-1.357 1.661-.264 1.661 1.023 0 1.104.225.825 2.295-.579 4.27-.858 4.988-2.538 6.532-1.446 1.331-1.557 1.611-.805 2.031 1.725.966-.562 8.115-2.826 8.835-1.182.375-1.445 1.144-.496 1.459 1.788.595-2.442 7.988-4.571 7.988-.508 0-.681.368-.5 1.065.488 1.863-2.291 5.81-4.938 7.016-1.894.864-2.304 1.29-2.075 2.163.354 1.353-3.492 5.405-5.13 5.405-1.827 0-2.805.599-2.805 1.712 0 1.946-4.637 5.255-7.404 5.285-1.24.015-1.656.23-1.455.756.157.408-.47 1.369-1.407 2.159-1.35 1.136-2.253 1.422-4.485 1.422-2.58 0-2.85.123-3.504 1.605-.815 1.838-3.131 2.704-7.244 2.709-1.87.001-2.564.213-2.564.78 0 .428.212.909.47 1.068s.629 1.287.823 2.505l.354 2.215 2.28-.358c3.423-.537 8.334-2.334 12.262-4.487 4.25-2.329 13.299-8.395 16.998-11.394 1.485-1.203 3.079-2.19 3.546-2.193.87-.006 4.818 7.161 4.818 8.742 0 .585.982 1.01 3.372 1.459 1.856.348 3.98.837 4.722 1.086a102.94 102.94 0 0 0 3.777 1.134c5.387 1.507 7.377 2.262 9.309 3.53 1.113.729 2.024 1.521 2.024 1.76s-3.096 1.188-6.881 2.112c-11.139 2.716-10.638 2.425-12.326 7.142-.798 2.232-1.599 4.226-1.78 4.428s-1.893.042-3.805-.36c-3.423-.717-3.525-.705-6.476.799-1.65.84-5.544 3.005-8.655 4.81s-6.096 3.285-6.633 3.285-1.912.478-3.06 1.065c-3.222 1.643-16.068 5.76-20.085 6.438-3.852.649-17.119 1.168-20.685.81zm79.054-37.003l-4.856-1.338-2.97-.817 4.074-4.222 4.072-4.222 4.022.465c2.213.256 5.297.477 6.855.49s2.833.207 2.833.43c0 .759-3.624 5.505-5.865 7.68-2.403 2.333-4.11 2.654-8.166 1.535zm-152.43-3.486c-1.915-2.04-3.711-4.35-3.993-5.137-.49-1.375-.426-1.44 1.736-1.73 1.236-.165 4.168-.465 6.516-.666l4.267-.364 4.095 4.362 4.097 4.362-2.159.555c-1.698.417-3.407.787-5.125 1.11l-4.461.885c-1.32.291-1.896-.099-4.972-3.376zm140.963-2.225l-2.887-4.857-1.404-2.295 1.563-1.482c.858-.816 2.382-2.636 3.384-4.046s2.022-2.564 2.265-2.564 1.054.911 1.803 2.024l3.175 4.718 1.814 2.694-1.146 1.638c-1.059 1.515-6.381 6.735-6.865 6.735-.119-.001-.883-1.155-1.701-2.565zM87.91 211.385c-3.75-4.006-4.413-5.217-3.647-6.647 1.065-1.992 5.537-8.044 5.942-8.044.209 0 1.05.911 1.873 2.025a52.8 52.8 0 0 0 3.37 4.005l1.875 1.982-2.901 4.627c-1.596 2.546-3.172 4.627-3.502 4.629s-1.686-1.16-3.01-2.577zm146.07-4.212l-4.182-.506c-1.707-.186-3.103-.562-3.103-.837s.816-1.41 1.812-2.524a38.24 38.24 0 0 0 3.244-4.318l1.433-2.294h6.47c3.558 0 6.468.129 6.468.285 0 .665-3.498 7.143-4.725 8.754-1.192 1.561-1.613 1.746-3.837 1.68-1.375-.041-2.985-.149-3.579-.24zm-169.495-4.395c-1.087-1.701-2.421-4.128-2.965-5.397l-.989-2.305h6.726c3.701 0 6.726.195 6.726.432 0 .453 3.499 5.835 5.368 8.259l1.083 1.405-4.116.348c-2.265.192-5.407.348-6.987.348h-2.87zm158.38.563c-.769-.835-2.287-2.708-3.37-4.158l-1.97-2.64 1.212-1.998c2.395-3.945 4.888-7.563 5.205-7.557.18.005 1.174 1.385 2.214 3.069s2.544 3.823 3.345 4.755l1.459 1.695-2.099 2.658-3.345 4.176-1.251 1.518zM79.84 200.524c-1.082-1.422-2.355-3.338-2.831-4.256-.855-1.651-.84-1.698 1.158-4.04 1.112-1.302 2.628-3.374 3.371-4.602s1.481-2.241 1.641-2.25.956 1.26 1.767 2.82 2.079 3.661 2.819 4.677c1.599 2.195 1.388 3.387-1.02 5.78-.934.929-2.136 2.325-2.67 3.102s-1.26 1.401-1.617 1.385-1.534-1.194-2.618-2.616zm149.031-9.593c-1.304-1.982-2.82-4.056-3.375-4.608-.978-.98-.978-1.054.037-3.006.573-1.101 1.355-3.045 1.737-4.323s.984-2.716 1.339-3.201c.57-.78.787-.666 1.888.972.684 1.018 2.514 2.945 4.065 4.281 1.782 1.533 2.736 2.748 2.59 3.298-.321 1.208-5.265 10.158-5.622 10.176-.161.009-1.357-1.607-2.661-3.589zm5.919 3.36c0-.155 1.137-2.57 2.526-5.365 2.851-5.74 2.397-5.472 10.234-6.075l4.497-.345-2.094 5.88-2.095 5.88-6.534.151c-3.594.084-6.534.027-6.534-.127zm-174.594-1.89c-.8-.324-1.653-2.036-3.078-6.173l-1.972-5.722h1.459c1.521 0 10.392 1.467 10.692 1.767.094.095 1.266 2.529 2.603 5.409l2.43 5.235-5.514-.035c-3.033-.018-6.012-.236-6.62-.482zm13.326-2.317c-.892-1.557-2.105-3.96-2.695-5.34l-1.076-2.51 4.34-4.126c2.386-2.271 4.406-4.056 4.488-3.968.514.555 1.881 4.535 1.882 5.487.001.631.444 1.875.983 2.762l.981 1.614-3.141 3.952c-1.728 2.175-3.142 4.18-3.142 4.458 0 1.272-1.14.258-2.619-2.329zm167.321-8.841c.15-.555.975-3.26 1.833-6.015 1.744-5.61.72-4.806 8.7-6.822 4.883-1.234 4.888-1.233 4.464 1.443-.705 4.447-2.895 10.216-4.042 10.651-.6.226-2.91.581-5.136.787s-4.507.507-5.07.667c-.798.228-.963.071-.75-.713zm-6.593-3.037c-5.247-5.007-4.99-4.28-3.526-10.035.702-2.76 1.413-5.157 1.578-5.322s1.28.583 2.475 1.663 2.423 1.965 2.724 1.965.815.579 1.137 1.29 1.168 1.599 1.878 1.98 1.29.946 1.29 1.262c0 1.373-3.444 10.036-3.987 10.034-.33-.002-1.935-1.278-3.57-2.835zM57.8 179.1c-1.629-.438-3.117-.969-3.306-1.179-.726-.81-3.174-9.107-3.174-10.758 0-1.665.075-1.725 1.755-1.433.963.168 3.6.899 5.858 1.623l4.104 1.319 1.481 4.935 1.755 5.648c.376.984-4.571.894-8.472-.155zm10.485-1.155c-.18-.817-.792-2.624-1.361-4.014-1.721-4.204-1.51-4.8 3.031-8.62 2.237-1.881 4.347-3.42 4.688-3.42s1.18 2.185 1.863 4.856c1.38 5.4 1.143 6.749-1.425 8.095-.751.394-2.205 1.587-3.227 2.652-2.231 2.321-3.136 2.434-3.57.45zm172.556-10.668c-.678-.357-1.77-1.14-2.429-1.738s-2.215-1.72-3.465-2.496l-2.271-1.409.322-5.538c.177-3.045.422-5.65.543-5.79s.635.041 1.14.394 2.8 1.8 5.1 3.213 4.182 2.941 4.182 3.398c0 2.006-1.178 10.005-1.515 10.296-.206.177-.93.029-1.608-.33zm3.581-.126c.273-.519.816-3.06 1.209-5.648l.713-4.702 5.055-2.178c2.781-1.197 5.28-2.175 5.556-2.175.555 0 .69 9.17.174 11.751-.264 1.32-.651 1.683-2.024 1.893-.933.144-3.761.653-6.284 1.131l-4.74.871c-.085 0 .069-.424.34-.944zm-183.927-1.062c-3.559-.636-9.468-2.451-9.831-3.021-.617-.97-.514-12.78.111-12.78.292 0 2.843 1.148 5.666 2.55 5.016 2.492 5.135 2.595 5.157 4.452.021 1.724.286 3.224 1.365 7.702.375 1.561.306 1.591-2.468 1.095zm4.112-1.635c-.16-.817-.442-2.941-.627-4.722s-.453-3.663-.597-4.182.002-.945.324-.945 1.552-.609 2.733-1.355c1.677-1.033 3.381-2.021 5.112-2.961l2.97-1.607.004 3.096c.003 1.702.145 4.31.318 5.794l.312 2.697-2.88 1.573c-1.584.865-3.567 2.141-4.406 2.833-2.002 1.653-2.91 1.59-3.267-.225zm178.28-10.779c-1.998-1.415-4.309-2.732-6.821-3.888-1.23-.565-2.376-1.257-2.55-1.537-.404-.654-1.47-9.964-1.174-10.26.336-.336 5.843 1.549 6.768 2.317.444.369 1.719.963 2.832 1.32 2.468.793 2.66 1.421 2.452 8l-.159 5.002-1.35-.954zm3.78-5.095l.006-6.115 2.019-1.22 3.078-1.89c3.063-1.935 5.268-3.155 5.42-3 .094.095.337 3.21.54 6.918l.366 6.745-5.283 2.16-5.715 2.337c-.238.099-.432-2.572-.429-5.935zm-183.468.218c.008-5.265.487-8.221 1.335-8.221.36 0 1.725-.569 3.03-1.262 2.727-1.449 7.99-3.285 8.359-2.917.231.231-.75 10.289-1.011 10.363-.397.114-6.514 3.3-8.886 4.626l-2.832 1.585zm-8.259 1.56l-5.288-1.958.315-4.047.615-7.149.304-3.102 1.432.944c2.453 1.614 3.532 2.25 5.206 3.065 3.761 1.83 3.907 2.178 3.624 8.554-.142 3.18-.408 5.754-.591 5.718s-2.714-.946-5.62-2.025zm186.597-11.148c-5.913-2.796-8.763-4.03-9.304-4.03-.312 0-.84-1.638-1.174-3.642l-.909-5.127c-.261-1.298-.132-1.484 1.029-1.484.731 0 2.94.607 4.911 1.35s4.167 1.349 4.88 1.349c.986 0 1.429.418 1.857 1.754.543 1.694 1.809 10.708 1.542 10.975-.072.072-1.345-.442-2.831-1.144zm4.41-3.153c-.186-2.187-.6-4.667-.919-5.51s-.436-2.025-.26-2.631c.378-1.294 6.594-6.03 8.562-6.525 1.244-.312 1.389-.162 1.692 1.732a85.32 85.32 0 0 0 .815 4.23c.72 3.213 1.008 7.285.516 7.285-.237 0-1.119.575-1.958 1.275s-2.133 1.464-2.874 1.695-1.929.87-2.637 1.422c-2.184 1.706-2.576 1.31-2.937-2.975zm-187.647.84a127.68 127.68 0 0 1-4.768-2.967l-2.301-1.52.352-2.797c.372-2.96 2.277-9.492 2.999-10.28.434-.474 2.98 1.204 6.513 4.29 1.069.936 2.229 1.797 2.574 1.911.461.154.411.855-.189 2.634-.45 1.335-1.001 4.104-1.225 6.157s-.653 3.797-.95 3.875-1.65-.51-3.004-1.305zm5.643-.165c.154-1.002.427-3.036.605-4.519.54-4.509 1.264-6.206 2.65-6.206.674 0 2.55-.457 4.17-1.016s3.99-1.189 5.265-1.405c2.094-.353 2.29-.294 2.031.611-.157.55-.562 2.457-.9 4.237-.858 4.521-1.067 5.127-1.772 5.127-.341 0-2.571.952-4.956 2.115s-5.019 2.289-5.856 2.498c-1.477.369-1.514.327-1.237-1.441zm174.357-11.286c-1.186-.243-3.22-.825-4.519-1.29s-2.901-.847-3.561-.847c-1.296 0-2.1-1.451-3.94-7.089l-.99-3.043 3.267.254c4.362.336 9.071 1.155 9.512 1.651.546.615 3.739 9.296 3.739 10.162 0 .837-.321.855-3.507.202zm5.486-.879c-.196-.198-.366-.865-.375-1.485s-.693-3.025-1.523-5.352l-1.509-4.228 3.548-3.46c1.95-1.903 3.847-3.46 4.215-3.46.805 0 3.501 5.775 4.481 9.599.804 3.137.4 4.022-2.451 5.357-2.352 1.102-4.053 2.103-4.74 2.79s-1.132.755-1.645.242zm-176.73-2.445c.282-1.26 1.23-3.787 2.102-5.618 1.513-3.171 1.695-3.34 3.883-3.645 4.201-.588 10.659-1.035 10.659-.741 0 .159-.954 2.364-2.12 4.899-2.031 4.418-2.205 4.623-4.182 4.954-1.134.191-3.156.671-4.491 1.067s-3.315.867-4.398 1.05l-1.969.327.516-2.292zm-6.29-1.052c-1.782-1.153-3.663-2.243-4.182-2.421s-.971-.6-1.002-.936c-.255-2.721.925-6.233 3.708-11.034l1.35-2.329 3.702 3.678c2.124 2.112 3.699 4.138 3.698 4.758 0 .594-.729 2.51-1.615 4.258s-1.611 3.737-1.611 4.419-.183 1.346-.405 1.472-1.861-.713-3.642-1.865zm170.25-9.096c-6.729-.648-7.455-.921-8.642-3.25-.748-1.42-1.568-2.8-2.458-4.135l-1.395-2.055 2.064-.375c1.137-.204 4.008-.379 6.382-.387 5.025-.015 4.894-.123 7.982 6.563 1.601 3.465 1.776 4.17 1.023 4.107l-4.958-.465zm7.854-1.726c-1.011-2.21-3.918-7.412-4.597-8.232-.342-.411.623-1.917 2.965-4.631 1.911-2.211 3.675-4.088 3.923-4.17.438-.145 6.583 10.645 6.582 11.558 0 .409-3.555 3.675-6.837 6.285-1.206.957-1.23.946-2.036-.81zm-166.665-.308c.186-.513 1.41-2.815 2.724-5.115l2.388-4.182h3.924c2.16 0 5.064.156 6.456.345 2.964.408 2.96.462-.376 5.426l-2.25 3.342-3.249.279c-10.56.904-9.98.91-9.617-.095zm-6.858-3.15l-3.987-3.48c-.557-.519 5.884-11.886 6.69-11.808.462.047 5.562 6.302 6.327 7.764.672 1.284.585 1.575-1.162 3.862-1.038 1.361-2.322 3.416-2.853 4.566s-1.088 2.1-1.237 2.108-1.851-1.349-3.777-3.013zm150.183-7.99c-.954-1.41-1.943-2.795-2.967-4.155l-1.491-1.95 2.82-.326c6.78-.781 11.726-1.023 11.73-.573 0 .266 1.095 2.175 2.43 4.246 2.898 4.495 3.066 4.344-5.256 4.709l-5.79.252zM89.092 99.801c-.445-.096-2.952-.335-5.57-.528-5.427-.402-5.308-.076-1.932-5.335 2.257-3.516 2.301-3.549 4.727-3.549 3.264 0 11.407 1.197 11.407 1.677 0 .21-.789 1.373-1.754 2.586l-3.009 3.828c-1.174 1.518-1.871 1.755-3.87 1.322zm141.236-4.421c-3.966-5.94-3.903-5.311-1.04-10.291 1.392-2.424 2.703-4.407 2.91-4.41.468-.004 4.274 4.821 6.346 8.047 1.192 1.856 1.389 2.529.885 3.033-.356.357-1.85 2.136-3.32 3.954s-2.825 3.306-3.011 3.308-1.435-1.636-2.772-3.641zm-156.651-.27c-1.184-1.26-2.667-3.041-3.299-3.954l-1.148-1.662 1.533-2.385c2.081-3.239 5.88-8.055 6.347-8.044.775.015 5.58 9.438 5.139 10.08l-3.04 4.452c-1.428 2.094-2.775 3.807-2.991 3.807s-1.359-1.032-2.541-2.293z" fill="#653200"/><path d="M154.641 55.33c-.364 0-.805.55-.984 1.218-.43 1.605-.434 14.445 0 18.048.273 2.28.55 2.859 1.359 2.859 1.167 0 1.245-1.566.655-14.437-.252-5.528-.555-7.687-1.03-7.687zm15.984 2.718c-1.512.178-.224 1.056 4.266 2.111 2.673.627 6.396 1.77 8.25 2.531 14.523 5.97 23.079 11.214 31.125 19.125 4.439 4.365 4.56 4.519 3.093 4.688-1.244.143-2.202-.493-5.391-3.516-6.495-6.157-14.744-11.675-19.734-13.218-5.365-1.66-5.04-.666.984 2.859 2.226 1.302 5.22 3.285 6.657 4.407s2.835 2.014 3.095 2.014c.667 0 9.139 7.561 9.139 8.157 0 .27-.63.468-1.405.468-.931 0-2.365-.888-4.266-2.625-5.333-4.872-14.01-10.05-15.375-9.187-.426.27-.531.51-.234.516s-.31.466-1.312 1.079c-2.504 1.525-12.226 9.774-12 10.171.101.177.372.702.609 1.125.324.579 1.824-.653 6.141-4.875 3.151-3.084 6.079-5.803 6.516-6.046 1.479-.828 5.097 1.56 13.218 8.718l4.547 3.986 6.188-.33c10.01-.57 10.19-.627 11.672-3.514.705-1.37 1.906-3.338 2.673-4.359s1.405-2.196 1.405-2.578c0-.977-8.887-9.791-12.28-12.187s-12.801-6.869-14.391-6.845c-1.282.02-1.559-.243 3.47 3.236 11.85 8.2 18.891 14.334 18.045 15.702-.309.502-.81.225-1.827-.984-4.602-5.475-29.08-20.517-32.578-20.015l-1.172.186 1.172 1.08c.643.596 3.476 2.22 6.328 3.655 5.492 2.763 11.25 6.798 18.47 12.889 5.178 4.371 7.317 6.945 6.655 8.016-.348.564-1.59-.311-5.203-3.609-9.859-9.001-23.666-17.511-32.578-20.109a116.07 116.07 0 0 1-3.75-1.173c-.741-.249-2.786-.72-4.545-1.03-2.816-.495-4.766-.623-5.673-.516zm-52.5.094c-.738.147-1.969.602-3.094 1.172-1.497.759-3.094 1.407-3.561 1.407-1.131 0-4.692 1.843-8.344 4.311-1.632 1.104-4.056 2.556-5.391 3.236s-3.711 2.27-5.296 3.563-3.085 2.391-3.282 2.39-1.361.907-2.625 2.064c-2.609 2.385-3.76 1.928-1.406-.564 2.418-2.556 11.478-9.165 16.594-12.093 2.556-1.462 4.639-2.825 4.639-3.047.005-.948-2.957-.276-7.734 1.78-3.906 1.683-6.429 3.319-10.687 6.798-5.388 4.4-9.076 8.06-9.094 9.045-.003.262 1.194 2.574 2.673 5.157l2.718 4.688 6.329.657 7.171.843c1.962.393 2.498.123 5.859-2.859 3.968-3.519 12.927-9.795 13.969-9.797.71 0 .93-1.18.329-1.782-.561-.561-9.523 4.391-12.891 7.125l-4.266 3.469c-.731.597-1.866.906-2.812.797l-1.547-.188 2.204-2.109c3.36-3.312 9.57-7.62 16.266-11.25 3.338-1.811 6.093-3.606 6.093-3.986 0-.885-.219-.887-4.079.33-5.622 1.77-12.87 6.386-18.843 11.952-3.087 2.876-4.584 3.75-6.329 3.75-1.089 0-.919-.338 1.454-2.766 5.4-5.528 12.454-10.437 21.327-14.906 2.523-1.27 5.001-2.296 5.532-2.298s1.98-.507 3.188-1.125c2.898-1.477 7.389-2.877 12.047-3.75 4.113-.77 5.305-1.361 3.845-1.92-1.16-.446-11.63 1.134-14.907 2.25-4.614 1.569-16.473 7.41-19.968 9.843-8.46 5.888-11.243 8.016-13.875 10.547-2.427 2.331-2.91 2.589-3.657 1.969-.771-.641-.617-.96 1.454-3.094 3.45-3.555 13.542-11 19.313-14.204l6.329-3.609c.669-.438 2.246-1.078 3.516-1.453 2.305-.681 3.105-2.016 1.406-2.343a1.42 1.42 0 0 0-.562 0zm31.313 2.577c-.534 0-.09 15.915.47 16.875.129.224.715.375 1.311.375.78 0 1-.258.798-.936-.156-.52-.567-3.978-.891-7.689-.648-7.431-.867-8.625-1.687-8.625zm10.97 0c-.338 0-.611.656-.611 1.455s-.266 2.802-.562 4.452-.744 4.872-.984 7.171c-.387 3.718-.33 4.173.47 4.173.966 0 1.176-1.245 1.92-12 .262-3.784.208-5.25-.234-5.25zm-22.266 2.675a.61.61 0 0 0-.282.188c-.328.328 2.679 9.975 4.407 14.109.548 1.311 1.14 1.922 1.922 1.922.695 0 1.016-.288.845-.702l-6.657-15.47c-.055-.062-.135-.069-.234-.047zm33.843.468c-.426-.147-6.069 11.927-7.03 15.048-.304.986-.198 1.218.703 1.218 1.239 0 1.7-.852 4.734-9.421 2.155-6.09 2.271-6.611 1.593-6.845zm-26.953 4.923c-.573 0-.011 5.79.798 8.109.743 2.13 2.353 2.25 1.875.139-.978-4.312-2.247-8.25-2.672-8.25zm37.407 0c-.297 0-.516.269-.516.561s-1.168 1.822-2.578 3.423c-5.401 6.133-8.223 9.992-7.545 10.264a4.65 4.65 0 0 0 1.03.282c.339.037 3.472-3.777 5.859-7.171l2.532-3.516c1.76-2.385 2.223-3.843 1.218-3.844zm-55.359.045c-.514.028.039 1.201 1.547 3.189a97.26 97.26 0 0 1 3.094 4.359l2.952 4.547c1.788 2.721 1.84 2.745 3.095 1.782.774-.595.285-1.455-4.5-7.173-2.983-3.561-5.644-6.556-5.907-6.655a.67.67 0 0 0-.281-.047zm37.641.516c-.262 0-.643.552-.798 1.219s-.757 2.871-1.359 4.875c-1.07 3.564-1.056 3.609-.047 3.609 1.09 0 1.179-.248 2.109-5.625.675-3.894.695-4.079.095-4.077zm-29.673.657c-.099.057-.093.431-.093 1.172 0 .846 1.035 3.477 2.297 5.813 1.431 2.652 2.634 4.22 3.188 4.22.707 0 .375-.954-1.547-4.687-1.327-2.58-2.766-5.163-3.187-5.766-.37-.528-.558-.807-.657-.75zm39.703.657c-.294-.251-1.17 1.291-3.609 5.859-2.445 4.575-2.685 5.25-1.782 5.25.763 0 1.629-1.212 3.282-4.548 1.236-2.493 2.25-5.083 2.25-5.764 0-.43-.043-.714-.141-.798zm-48 5.295c-.12-.03-.194.006-.234.048-.324.323 1.83 3.375 4.921 6.984 1.186 1.386 2.46 2.522 2.813 2.532 1.515.042 1.07-1.11-1.453-3.798-1.482-1.578-2.672-3.067-2.672-3.28 0-.49-2.532-2.273-3.375-2.484zm56.109.423c-.954-.001-8.58 8.061-8.203 8.672.573.927 1.368.468 4.173-2.437 3.303-3.42 5.109-6.233 4.03-6.234zm-63.891.282c-.114.015-.186.072-.186.186 0 .279 2.71 3.094 6.045 6.236s6.255 5.671 6.469 5.671.667-.484.984-1.078c.369-.687.344-1.077 0-1.077-.294 0-1.186-.606-2.014-1.361l-4.5-4.077c-2.649-2.427-5.993-4.607-6.796-4.5zm-42.045 4.734c-.852-.285-5.28 6.62-4.782 7.452.76 1.272 3.189 4.224 3.468 4.22.15-.003 1.194-1.451 2.344-3.234l2.109-3.235-1.312-2.531c-.711-1.38-1.536-2.574-1.829-2.671zm155.625 1.734c-.605.099-1.12 1.044-2.064 2.766l-1.266 2.25 2.111 3.281c1.156 1.797 2.243 3.279 2.391 3.282s.879-.769 1.639-1.736c2.145-2.715 2.253-3.501.797-5.718-1.95-2.97-2.833-4.252-3.609-4.125zm-113.11.984c-.075.009-.141.033-.141.095 0 .563 4.639 4.389 6.984 5.764 2.796 1.642 3.612 1.826 3.939.844.129-.39-1.611-1.822-4.125-3.328-3.813-2.283-6.132-3.438-6.657-3.375zm70.125.657c-.823.15-2.601 1.017-3.609 1.875-.594.504-2.343 1.569-3.891 2.343-1.992.998-2.751 1.631-2.532 2.204.405 1.052.483 1.068 2.814-.516 1.09-.741 2.19-1.359 2.436-1.359.612 0 5.205-3.891 5.205-4.407 0-.138-.15-.19-.423-.139zm-76.453 1.125c-.201.009-.281.099-.281.327 0 .436 1.388 1.552 3.093 2.439 2.43 1.288 4.822 2.648 7.171 4.077 3.792 2.33 4.83 2.843 4.83 2.298 0-.124.147-.609.327-1.08.216-.561.061-.843-.516-.843-.481 0-2.674-1.101-4.875-2.437s-4.219-2.437-4.5-2.437-1.674-.639-3.046-1.405c-1.203-.672-1.866-.953-2.204-.937zm83.625.702c-.214-.348-7.042 2.808-11.343 5.25a22.7 22.7 0 0 1-2.766 1.266c-1.119.414-1.643.865-1.453 1.361a1.36 1.36 0 0 0 1.125.795c1.016 0 7.38-3.59 8.25-4.639.362-.435.99-.797 1.407-.797 1.065 0 5.097-2.724 4.78-3.236zM87.938 92.082c-1.308.084-1.576.52-2.484 2.109l-1.266 2.157 4.5-.048c4.419-.009 4.461-.009 5.671-1.734l1.219-1.734-1.5-.375c-.822-.187-2.82-.342-4.454-.375-.729-.015-1.251-.029-1.687 0zm125.766 1.03l1.218 2.111 1.266 2.156 4.172.046h4.22l-1.125-2.155-1.078-2.157zm-145.547.657c-.21-.072-1.291 1.543-2.391 3.563l-1.971 3.653 1.969 1.969c1.095 1.095 2.133 2.014 2.296 2.014s1.047-1.551 1.969-3.42l1.686-3.375-1.593-2.157c-.871-1.173-1.759-2.178-1.969-2.25zm172.452 1.639c-.208.073-1.09 1.07-1.968 2.25l-1.595 2.157 1.688 3.095c.939 1.71 2.05 3.135 2.438 3.139s1.389-.791 2.25-1.734l1.595-1.687L243 98.923c-1.101-2.022-2.183-3.588-2.391-3.514zm-81.984 2.814c-.439.007-.877.038-1.312.093-2.3.315-2.972.745-6.047 3.891-4.335 4.431-6.514 7.167-8.391 10.452l-1.5 2.58h1.595c1.821 0 2.34.903 1.875 3.234-.282 1.403-.15 1.593.889 1.593.659 0 1.824-.484 2.578-1.079 1.935-1.522 2.468-1.369 3.845 1.079 1.08 1.923 1.421 2.157 3.234 2.157 1.518 0 2.715-.505 4.593-1.969l2.484-1.97 2.064 1.455c1.128.78 2.552 1.405 3.186 1.405 1.14 0 1.143-.027-.42-3.891-.873-2.151-1.936-4.59-2.391-5.391-.956-1.68-.78-1.852 3.514-3.141 4.072-1.221 3.846-1.772-.562-1.452-2.226.16-4.583.498-5.25.703-.894.273-1.218.141-1.218-.469 0-1.016 1.965-1.507 6.75-1.641 3.232-.09 3.727.035 4.688 1.22 1.317 1.626 2.325 1.143 4.078-1.922 2.046-3.577 1.862-3.807-3.33-4.08-3.005-.156-4.899-.54-5.53-1.077-1.173-.999-6.123-1.86-9.422-1.782zm1.172 2.436c2.052 0 4.848 1.485 4.5 2.391-.51 1.332-3.72 1.072-4.734-.375-1.116-1.591-1.082-2.014.234-2.014zm-79.875 1.08l-1.077 2.109c-.6 1.174-1.08 2.277-1.08 2.436s1.772.282 3.939.282h3.938l1.171-2.391 1.171-2.437h-8.062zm140.859 1.593l1.173 2.438 1.172 2.438H231l-1.172-2.437-1.171-2.437h-7.875zm-160.216 3.561l-1.687 3.75-1.687 3.75 2.344 2.016c1.279 1.107 2.367 2.005 2.436 2.014s.861-1.455 1.782-3.281l1.687-3.329L63 109.377l-2.437-2.484zm187.686 1.641l-2.437 2.389-2.391 2.391 1.125 2.954c.618 1.623 1.262 3.141 1.407 3.375.243.394 1.26-.221 4.359-2.672l1.266-.986-1.687-3.75-1.641-3.703zm-170.297 5.059c-3.174.125-3.951.815-5.016 3.375l-1.125 2.673 1.782-.375a113.44 113.44 0 0 1 3.609-.75c1.496-.28 2.139-.81 3.139-2.625l1.266-2.296H79.5c-.559 0-1.094-.018-1.546 0zm149.296 1.455l.703 2.061c.654 1.89.969 2.148 3.891 3 4.685 1.368 4.609 1.407 3.75-1.453-.411-1.365-.881-2.613-1.032-2.764s-1.852-.406-3.797-.562l-3.516-.282zm-83.954 2.577c-.169-.002-.424.175-.843.469-.633.442-1.617 1.793-2.157 3l-.984 2.202h1.828c1.148 0 1.9-.3 2.109-.843.18-.47.328-1.821.328-3 0-1.3 0-1.826-.282-1.829zm-55.734 2.439l-1.219 5.25-1.452 6.047c-.24.629 1.197.665 9.093.328 5.359-.228 9.555-.623 9.75-.937.552-.885 1.546.036 1.546 1.454 0 .714-1.218 3.261-2.718 5.625l-2.719 4.266 1.08 2.155c1.203 2.359 1.518 2.556 5.109 3.095 2.565.384 2.567.37 2.718-1.923.03-.446.266-.663.563-.516 1.065.534.371 3.009-1.734 6.189-3.684 5.562-3.63 5.341-1.125 6.75 2.066 1.16 2.386 1.179 5.156.514l2.907-.703-.329-1.78c-.372-1.988.411-2.434 1.313-.75.835 1.56.68 3.24-.704 8.016l-1.218 4.313 1.781.843c2.12 1.011 2.987 1.088 5.719.328 1.573-.436 2.016-.835 2.016-1.782 0-.667-.3-1.518-.657-1.875-.504-.502-.442-.655.282-.655.51 0 1.162.645 1.452 1.407.626 1.644.668 9.195.046 10.734-1.191 2.958 2.22 3.174 7.689.468l3.984-1.968.375-5.391c.202-2.955.234-5.484.093-5.625s-1.597.025-3.28.375l-3.095.657-3.75-4.08c-5.117-5.553-7.454-8.421-7.454-9.093 0-.31 1.1-4.519 2.439-9.328 2.77-9.952 2.846-8.985-1.219-17.952l-2.016-4.453zm62.391.657c-.519.075-1.164.358-2.016.843-1.469.835-1.644 1.227-1.641 3.375.007 4.005.417 4.829 2.345 4.829 1.28 0 2.063-.42 3.188-1.829 1.773-2.223 1.872-3.663.375-5.766-.81-1.136-1.386-1.579-2.25-1.454zm41.297.42l-3.328 7.407-3.328 7.453 2.673 8.859 2.672 8.859-6 6.423c-5.691 6.082-6.127 6.385-7.687 6.046a65.83 65.83 0 0 0-3.516-.609l-1.922-.282.234 4.453c.183 4.017.318 4.584 1.547 5.578 2.97 2.4 5.742 3.563 8.625 3.563h2.861v-5.859c0-4.602.151-6.029.797-6.564.988-.819 1.828-.234.938.657-.474.474-.18.924 1.22 1.875 2.143 1.457 4.503 1.608 6.795.422 1.551-.801 1.62-.95 1.268-3.375-.204-1.395-.9-4.006-1.548-5.812-.87-2.425-1.042-3.588-.655-4.453.757-1.695 1.31-1.434 1.218.564-.065 1.425.219 1.882 1.547 2.53.888.434 2.775.897 4.173 1.032 2.355.225 2.544.132 2.859-1.125.344-1.369-.721-4.108-2.297-5.907-1.05-1.198-1.785-4.575-1.407-6.47.438-2.187 1.251-1.89.891.33-.273 1.68-.15 1.917 1.172 2.25.805.201 2.37.093 3.47-.236 1.551-.465 2.251-1.122 3.093-2.859l1.078-2.203-2.578-5.016c-2.317-4.509-2.535-5.209-2.016-6.703.32-.913.81-1.524 1.08-1.359.288.18.258.695-.048 1.266-.471.88-.125.998 3.609 1.313 2.259.19 6.745.375 9.984.375 5.37 0 5.862-.077 5.58-.937l-2.064-6.094-1.781-5.109-14.578-.141-14.625-.139zm-136.171.423c-.126.023-.192.108-.236.234-.462 1.353-1.845 7.129-1.734 7.219.063.048 1.332.822 2.813 1.734 3.039 1.872 3.066 1.875 3.986-2.484.333-1.584.501-3.078.375-3.282s-1.358-1.131-2.72-2.109c-1.32-.948-2.109-1.38-2.484-1.312zm106.922.141c-.28 0-1.419.825-2.532 1.875l-2.014 1.921 2.343 2.391c1.984 2.022 2.721 2.438 4.453 2.438 1.94 0 2.099-.162 3.095-2.484l1.077-2.625c0-.296-5.881-3.516-6.422-3.516zm6.938.516c-.315 0-.418.266-.234.561.428.692.797.692.797 0a.57.57 0 0 0-.562-.561zm84.563.75c-.304-.306-5.77 3.514-5.766 4.031.001.195.249 1.21.516 2.25s.615 2.559.797 3.375.458 1.453.609 1.453 1.545-.63 3.095-1.407l2.907-1.5c.174-.143-1.869-7.914-2.157-8.204zm-98.016.936a2.03 2.03 0 0 0-.703.141c-.37.15-.037.234.705.234s1.026-.084.655-.234c-.208-.089-.431-.136-.657-.141zm-10.359.47l-2.437 1.734c-2.061 1.481-3.937 3.901-3.937 5.016 0 .163.801.282 1.782.282 1.319 0 2.245-.471 3.561-1.83 1.511-1.557 1.719-2.094 1.407-3.514zm-68.344.75c-.475.051-1.484.278-2.577.609-1.46.442-3.156.795-3.798.797-.956.006-1.254.42-1.545 2.298-.198 1.26-.496 2.764-.657 3.328-.33 1.155-.135 1.113 4.639-.705 1.596-.606 3.004-1.221 3.141-1.359.365-.363 1.314-4.732 1.079-4.968-.027-.027-.123-.017-.282 0zm92.72.891c-.297 0-.561.285-.562.656s-.306 1.3-.703 2.063c-1.569 3.006-1.512 3.93.47 6.094 2.319 2.531 4.41 2.625 4.125.188-.097-.832-.781-2.829-1.5-4.453s-1.312-3.314-1.312-3.75-.219-.797-.516-.797zm61.828.563c-.278.279.495 4.763.891 5.156.315.315 6.918 2.799 7.593 2.859.243.023.33-.37.188-.889-.241-.961-.444-1.93-.609-2.907-.318-1.884-.48-2.055-4.079-3.234-2.067-.678-3.858-1.112-3.984-.984zm-76.407 1.454c-.835.145-1.651 1.059-3 2.859l-1.734 2.297 1.078 1.828c.775 1.316 1.44 1.775 2.484 1.781.787.005 1.804.228 2.25.516 1.186.767 1.188.78 3.095-2.016.964-1.415 1.78-2.716 1.78-2.906s-1.245-1.344-2.72-2.578c-1.545-1.294-2.397-1.928-3.234-1.782zm-7.453 2.859c-.743.03-.691.137.189.516 1.443.619 1.461.619 1.077 0-.183-.297-.763-.537-1.266-.516zm17.111.516c-.594 0-.935.218-.75.514s.813.563 1.405.563.935-.266.75-.562-.813-.516-1.405-.516zm-19.453.936c-.253.065-.492.177-.703.33-1.256.828-1.722 4.275-1.125 8.295.31 2.091.502 2.298 1.922 2.298.873 0 2.135-.54 2.861-1.22 1.53-1.434 2.676-3.45 2.109-3.703-.22-.097-1.32-1.618-2.484-3.327-1.483-2.178-1.984-2.784-2.578-2.671zm-5.859.75c-.244 0-.471.019-.657.094-.37.15-.085.282.657.282s1.074-.132.703-.282c-.186-.075-.459-.094-.705-.094zm24.843 1.032c-.773.012-4.002 4.21-4.405 5.72-.095.352.434 1.387 1.172 2.295.975 1.2 1.78 1.689 3 1.689 1.425 0 1.8-.344 2.532-2.062 1.669-3.93 1.704-4.413.093-6.094-.825-.863-1.928-1.554-2.391-1.547zm-24 1.032c-1.788 0-1.995.219-3.797 3.795-1.042 2.07-1.875 3.876-1.875 4.032 0 .792 4.035.123 5.672-.937 1.746-1.13 1.869-1.393 1.875-4.03v-2.859zm-57.422 1.639l-.329 1.594c-.195.883-.191 2.118 0 2.718.327 1.028.762 1.08 7.969 1.078h7.688l1.5-2.672 1.5-2.719zm-30.562.141c-.077.081-.319 1.946-.516 4.172l-.375 4.032 2.625 1.172c1.428.642 2.76 1.192 2.953 1.22s.499-1.389.703-3.141c.215-1.852.124-3.588-.187-4.172-.48-.895-4.852-3.655-5.203-3.282zm121.171.938c-.284 0-.627.213-.843.563-.185.297.053.516.516.516s.843-.219.843-.516c0-.35-.232-.562-.516-.562zm43.078 0c-5.556 0-8.578.198-8.578.563 0 .309.48 1.543 1.078 2.72l1.125 2.109h16.172v-1.312c0-.729-.312-1.964-.655-2.72l-.609-1.359zm-142.782.095c-2.097 1.053-5.745 2.625-6.139 2.625-.273 0-.469 1.343-.469 3s.178 2.91.423 2.811l3.515-1.5 3.048-1.359v-2.904c.004-1.584-.153-2.784-.375-2.671zm95.861.514c-.292.09-.507.528-.703 1.313-.26 1.035.06 1.94 1.359 3.75 1.587 2.211 1.93 2.438 4.078 2.438 1.286 0 2.345-.21 2.345-.468s-.639-1.627-1.407-3c-1.026-1.838-1.714-2.484-2.625-2.484-.681 0-1.553-.352-1.922-.798-.48-.577-.833-.84-1.125-.75zm86.25 0l-2.953 1.97-2.953 1.968.328 2.72c.18 1.494.326 3.132.328 3.655.005.852.279.804 2.813-.468 1.559-.783 2.898-1.503 3-1.595s.021-1.989-.187-4.218zm-101.344.141c-.195-.006-.369 0-.516.047-1.952.619-8.379 8.298-11.577 13.828-4.561 7.886-5.074 12.294-5.109 42.984l-.048 20.625h3.141l.234-23.859.188-23.907 1.5-4.218c.804-2.325 1.788-4.88 2.203-5.672 1.053-2.006 8.656-9.797 9.563-9.797.974 0 6.29 5.566 8.203 8.577 3.921 6.168 4.597 11.916 4.641 41.203v18.234h2.718v-25.078c0-29.565-.342-33.069-3.937-40.405-1.748-3.565-7.162-10.518-9.282-11.907-.589-.386-1.338-.637-1.92-.655zm80.204 1.078c-.297.073-.328.769-.328 2.578v2.906l2.859 1.453c1.56.785 2.958 1.434 3.141 1.453s.519-.857.703-1.97c.594-3.599.476-3.837-1.97-4.547-1.26-.366-2.847-1.032-3.514-1.453-.452-.285-.713-.465-.891-.422zM99.047 143.08c-.1.005-.153.105-.234.234-.611.987 1.512 5.145 2.25 4.407.36-.36.127-1.325-.657-2.861-.633-1.244-1.056-1.797-1.359-1.78zm43.172.655l-2.202 1.641c-1.479 1.071-3.045 1.669-4.595 1.782-1.719.123-2.4.429-2.53 1.125-.246 1.293 1.627 1.926 5.672 1.968 3.168.033 3.354-.027 4.407-1.687.606-.957.917-1.906.702-2.062s-.597-.815-.891-1.5l-.561-1.266zm2.72.609c-.446 0-.797.267-.797.564s.351.514.797.514.797-.219.797-.516-.351-.561-.797-.561zm-9.703.564c-.741 0-1.359.218-1.359.514s.618.563 1.359.563 1.359-.266 1.359-.562-.617-.516-1.359-.516zm29.391 0c-.297 0-.516.248-.516.561s.219.418.516.236.563-.432.563-.562-.266-.234-.562-.234zm2.438.75c-.272-.023-.42.145-.609.468-.248.42-.765.867-1.125.984-.817.267 1.9 4.674 3.093 5.016.446.127 2.602.186 4.828.141 3.66-.075 4.078-.195 4.078-1.172 0-.895-.426-1.125-2.437-1.266-1.615-.113-2.899-.579-3.797-1.407-.743-.684-1.976-1.655-2.766-2.155-.611-.387-.994-.588-1.266-.609zm42.657.186c-.327.031-.828.681-1.548 1.97-1.341 2.4-.99 3.459.516 1.547 1.397-1.774 1.74-2.634 1.313-3.328-.075-.12-.173-.196-.282-.186zm-127.594.657l-.375 1.875c-.66 3.518-.632 3.54 8.813 3.47 4.685-.036 10.071-.252 12-.47 3.123-.351 3.255-.396 1.079-.47-2.543-.085-3.834-1.034-4.546-3.28-.347-1.092-.704-1.125-8.673-1.125zm93.329.563c-1.08 0-1.641.258-1.641.797s.561.797 1.641.797 1.593-.256 1.593-.795-.514-.798-1.593-.798zm-73.171.234c-.094.009-.15.411-.141 1.078.01.891.144 1.228.281.703s.102-1.275-.046-1.641c-.037-.09-.063-.144-.094-.141zm1.593.938c-.111.041-.206.324-.187.75.025.63.156.759.329.328.156-.39.132-.852-.046-1.032-.045-.045-.057-.06-.094-.045zm1.594 0c-.111.041-.159.324-.141.75.025.63.156.759.329.328.154-.39.132-.852-.048-1.032-.045-.045-.103-.06-.141-.045zm105.139.422l-1.125 1.595c-.625.879-1.681 1.701-2.343 1.828s.852.297 3.375.375 6.266.302 8.343.516c7.734.793 7.362.882 7.172-1.736l-.139-2.297-7.641-.141zm-7.125 1.08c-.297 0-.516.483-.516 1.077s.219 1.078.516 1.078.563-.484.563-1.078-.266-1.078-.562-1.078zm1.641 0c-.297 0-.562.483-.562 1.077s.266 1.078.563 1.078.516-.484.516-1.078-.219-1.078-.516-1.078zm-3.562.28c-.097-.036-.141.24-.141.797 0 .743.132 1.074.282.703a2.11 2.11 0 0 0 0-1.359c-.025-.065-.076-.116-.141-.141zm-68.532.516c-.163.03-.234.207-.234.514 0 .713.681 1.25 1.734 1.359.224.024.423-.181.423-.468s-.484-.807-1.078-1.125c-.424-.226-.679-.312-.845-.282zm-60.375.28c-.168.048-.393.261-.609.609-.198.321-1.425 1.065-2.764 1.641-2.389 1.024-2.436 1.074-2.111 3.047.183 1.107.326 2.434.329 2.953.007 1.23.566 1.2 3.516-.234l2.438-1.22v-3.375c0-2.37-.29-3.567-.798-3.422zm161.58 1.595v6.234l2.577 1.453c1.409.798 2.754 1.274 3 1.03s.51-1.571.563-2.953c.101-2.704.405-2.383-4.359-4.875l-1.782-.891zm-182.625.045c-.159 0-.282 1.533-.282 3.423v3.422l2.813 1.125c4.313 1.701 4.382 1.668 3.938-1.922-.212-1.707-.423-3.102-.469-3.141-.307-.26-5.769-2.905-6-2.905zm79.78.423c-.356.019-.651.232-1.125.609-.605.48-1.512 1.595-1.97 2.484-.805 1.571-.777 1.641.845 3.33 1.756 1.828 1.644 1.848 6.422.655 1.72-.43 2.112-.855 2.859-3.047.472-1.385.845-2.577.845-2.673s-1.122-.186-2.532-.187-3.21-.3-3.984-.703c-.607-.315-1.005-.488-1.359-.468zm22.453.657c-.642 0-5.64 5.325-7.266 7.734-4.256 6.298-4.595 9.024-4.595 35.016 0 17.28.093 19.827.797 19.827.653 0 .798-.834.798-4.312v-4.312h6.375l.422-4.03.375-4.078h7.407v-9.141h7.029v-6.891c-.001-8.095-.877-15.96-2.016-18.234-2.451-4.9-7.845-11.578-9.328-11.578zm22.92 0c-.839 0-1.311.292-1.311.795s.472.798 1.313.798 1.359-.292 1.359-.797-.52-.797-1.359-.797zm79.08 1.218c-.573.067-1.722.438-2.955.938-2.304.936-2.994 1.455-3 2.345-.001.633-.143 2.075-.327 3.186-.375 2.265-.45 2.244 3.282 1.266l2.718-.703.47-3.327c.264-1.832.368-3.477.188-3.657-.045-.045-.185-.069-.375-.047zm-154.736.938c-1.998-.003-18.057 2.118-18.421 2.438-.105.09-.021 1.202.188 2.438.327 1.936.549 2.184 1.546 1.97.638-.138 3.462-.665 6.282-1.173 11.712-2.111 11.343-1.971 11.343-3 0-.536.219-1.128.516-1.312 1.15-.711.48-1.356-1.454-1.359zm67.97.234c-.09.09.141 1.38.468 2.907l.563 2.813h2.672c1.9 0 3.282-.412 4.782-1.359 1.155-.731 2.256-1.583 2.438-1.875.512-.828-1.551-1.627-4.125-1.641a24.33 24.33 0 0 1-4.453-.516c-1.179-.273-2.255-.417-2.343-.328zm36.468 1.407c-.819.096-.984.399-.984 1.266 0 1.567 1.191 2.91 3.047 3.375 6.969 1.749 12.213 2.762 14.297 2.811 2.163.053 2.532-.075 2.813-1.125.366-1.365.465-4.218.141-4.218-.115 0-3.793-.44-8.203-1.032s-8.964-1.076-10.077-1.077c-.447 0-.759-.033-1.032 0zm-101.578.516c-.282 0 .054.617.75 1.359 1.311 1.395 2.205 1.728 2.205.843 0-.581-2.181-2.203-2.955-2.203zm22.407.843c-.354.354 3.238 4.032 3.938 4.032.3 0-.393-.975-1.547-2.157s-2.244-2.022-2.391-1.875zm-17.859.75c-.297 0-.516.484-.516 1.078s.219 1.125.516 1.125.563-.532.563-1.125-.266-1.078-.562-1.078zm4.641.047c-.129 0-.288.34-.469 1.032-.154.593-.081 1.125.188 1.125s.516-.532.516-1.125c0-.691-.105-1.032-.234-1.032zm-3.33.234c-.096-.036-.139.24-.139.798 0 .741.132 1.074.282.703s.15-.99 0-1.361c-.025-.065-.076-.116-.141-.141zm1.641 0c-.097-.036-.186.24-.186.798 0 .741.13 1.074.281.703s.15-.99 0-1.361c-.037-.093-.06-.127-.094-.141zm69.564.141c-.304.072-.894.486-1.97 1.266-1.26.915-2.28 1.881-2.25 2.157.145 1.355.26 1.593.797 1.593.32 0 1.29-.726 2.157-1.595s1.593-2.1 1.593-2.718c0-.528-.024-.774-.328-.703zm22.593.234c-.636-.067-1.749 1.088-1.407 1.641.195.315.667.177 1.173-.328.465-.465.666-1.02.468-1.218-.065-.065-.143-.084-.234-.095zm-6.891.141c-.097-.036-.187.288-.187.845 0 .741.132 1.028.282.655s.15-.94 0-1.312c-.037-.093-.061-.175-.095-.187zm1.595.563c-.097-.036-.141.288-.141.845 0 .741.132 1.028.282.655a2.11 2.11 0 0 0 0-1.359c-.025-.065-.076-.116-.141-.141zm1.641.516c-.099-.036-.187.288-.187.845 0 .741.131 1.026.28.655s.15-.942 0-1.312c-.037-.093-.06-.175-.095-.187zm-89.719.845c-1.755 0-4.356.381-5.812.843s-4.609 1.278-6.984 1.828c-7.421 1.72-10.74 2.592-11.719 3-.969.405-1.216 2.185-.609 4.453.387 1.44.481 1.446 4.407.375 1.677-.459 3.517-1.095 4.077-1.407s2.28-.909 3.798-1.359 3.825-1.381 5.156-2.016 4.237-1.743 6.469-2.484c2.76-.918 4.146-1.655 4.264-2.297.15-.813-.3-.939-3.046-.939zm-36.187 1.593c-.475-.011-1.177.654-2.437 1.828-2.388 2.223-2.559 2.559-2.204 4.218.871 4.058 1.278 4.196 4.548 1.407 1.62-1.383 1.716-1.671 1.359-3.797-.424-2.522-.654-3.643-1.266-3.657zm122.579.047c-.738.018-.669.326-.422 1.125.216.705.43 1.306.468 1.313s1.258.537 2.72 1.22 3.617 1.59 4.827 2.016l8.953 3.139c3.709 1.31 7.046 2.411 7.407 2.438s.911-.41 1.218-.984.563-1.62.563-2.345c0-1.208-.561-1.519-6.797-3.561-3.738-1.226-7.329-2.247-7.97-2.25s-2.141-.339-3.328-.75-3.558-.911-5.295-1.125c-1.182-.147-1.902-.246-2.345-.236zm36.609 1.032l-.984 3.047-.937 3.047 2.297 2.157c2.568 2.395 3 2.285 4.125-.984.834-2.427.276-3.576-2.72-5.861zm-180.328 2.25v1.172c0 .645.401 2.335.891 3.703.873 2.435.978 2.475 3.938 3l3.657.609c.45.054.301-.96-.516-3.234l-1.22-3.328-3.375-.937zm58.407 1.547c-.233 0-3.375 1.32-6.984 2.953s-6.84 3-7.173 3c-1.504 0-8.625 3.405-8.625 4.125 0 .432.39 1.515.844 2.391.986 1.906 2.358 2.037 5.343.514 1.155-.588 2.269-1.296 2.438-1.547s2.837-1.706 5.954-3.234c7.386-3.625 9.704-4.935 9.704-5.532a.52.52 0 0 0-.516-.516c-.297 0-.562-.485-.562-1.077s-.189-1.078-.421-1.078zm2.391.234c-.138-.006-.285-.008-.375.047-.855.53-.588 1.042.984 2.016 1.817 1.128 2.296 1.155 2.296.188 0-.81-1.941-2.202-2.907-2.25zm140.531.375c-.435-.019-1.248.117-2.109.375-1.149.345-2.619.657-3.234.657s-1.251.234-1.455.563c-.35.565-2.429 7.014-2.25 6.984.048-.007 1.78-.486 3.845-1.032l3.75-.984 1.032-3.093c.564-1.692.881-3.198.703-3.375-.045-.045-.138-.087-.282-.095zm-131.437.188c-.097-.036-.187.288-.187.845 0 .741.132 1.028.282.655a2.11 2.11 0 0 0 0-1.359c-.037-.093-.061-.129-.094-.141zm-3.516.282c-.297 0-.516.484-.516 1.078s.219 1.077.516 1.077.563-.484.563-1.078-.266-1.077-.562-1.077zm1.875.28c-.097-.036-.141.24-.141.797 0 .743.085 1.076.236.705s.15-.99 0-1.361c-.037-.093-.061-.129-.094-.141zm73.97.282c-1.35 0-3.516 1.214-3.516 1.968 0 .919.091.909 2.391-.187 1.965-.937 2.502-1.78 1.125-1.78zm-8.72.093c-.109.041-.157.324-.141.75.027.63.156.759.33.328.155-.39.132-.852-.048-1.032-.045-.045-.105-.06-.141-.045zm11.297.516c-.621.031-1.002.537-1.5 1.5l-.795 1.595 5.857 3.514c5.788 3.488 13.94 7.851 14.766 7.875.234.007.918-1.125 1.5-2.484s1.032-2.538 1.032-2.625-1.254-.693-2.812-1.359-4.812-2.178-7.22-3.328-4.614-2.062-4.922-2.062-1.614-.621-2.907-1.359c-1.503-.859-2.377-1.298-3-1.266zm-9.609.188c-.097-.036-.187.24-.187.797 0 .743.132 1.074.282.703a2.11 2.11 0 0 0 0-1.359c-.037-.093-.061-.129-.095-.141zm1.875.797c-.297 0-.516.399-.516.845s.219.797.516.797.563-.351.563-.797-.266-.845-.562-.845zm-67.453.516l-3.375.328c-1.854.2-3.501.516-3.702.703s-.629 2.63-.937 5.436c-.435 3.94-.415 5.231.093 5.58 1.083.739 6.097.135 7.734-.939.891-.583 1.279-1.089.891-1.218-.459-.153-.704-1.714-.704-5.062zm63 1.125c-.202 0-.375 2.049-.375 4.547 0 3.151-.234 4.575-.702 4.734-1.276.434 3.581 2.577 5.203 2.298a18.77 18.77 0 0 1 2.625-.234c.964 0 1.014-.285.702-2.861-.875-7.233-.548-6.675-3.984-7.641-1.706-.478-3.266-.843-3.47-.843zm-71.811 2.297c-.15-.15-2.109.906-4.361 2.345-10.362 6.617-15.421 10.068-15.421 10.453 0 .54 2.74 3.234 3.282 3.234.228 0 3.898-2.572 8.156-5.72 7.149-5.285 7.745-5.887 8.157-7.875.245-1.182.336-2.287.186-2.437zm79.92.188l.423 2.345c.33 1.95.95 2.838 3.657 5.343 3.075 2.85 12.131 9.797 12.795 9.797.171 0 .859-1.116 1.5-2.436l1.125-2.391-3.327-2.016c-1.845-1.107-4.695-2.994-6.328-4.22s-3.923-2.809-5.109-3.514l-3.47-2.109-1.264-.798zm-116.061.188l-2.298 2.25c-1.569 1.542-2.169 2.493-1.92 3.095.288.699 2.925 4.896 3.093 4.922.024.003.817-1.096 1.781-2.437l1.782-2.437-1.219-2.72-1.218-2.67zm95.672.563c-.297 0-.516.352-.516.797s.219.798.516.798.563-.352.563-.797-.266-.798-.562-.798zm-38.625.657c-.111.041-.157.322-.141.75.027.629.109.757.282.328.156-.39.18-.9 0-1.08-.045-.045-.105-.012-.141 0zm94.921.328l-1.359 2.67-1.312 2.673 1.641 2.203c1.833 2.53 2.008 2.625 3.141 1.313.447-.519 1.186-1.734 1.639-2.672.819-1.696.828-1.7-1.453-3.939l-2.295-2.25zm-96.187.093c-.297 0-.562.484-.562 1.078s.266 1.078.563 1.078.516-.486.516-1.08-.219-1.077-.516-1.077zm41.532 0c-.297 0-.562.351-.562.797s.266.797.563.797.563-.351.563-.795-.266-.798-.562-.798zm-43.453.797c-.097-.036-.187.24-.187.797 0 .743.132 1.076.282.705s.15-.99 0-1.361c-.037-.093-.061-.129-.095-.141zm44.766.516c-.097-.036-.141.288-.141.845 0 .741.132 1.026.282.655s.15-.942 0-1.312c-.037-.093-.109-.175-.141-.187zm-51.891.422c-.357.013-.566.171-.75.47-.333.54.12.9 1.594 1.359 2.718.846 2.764.876 2.764 0 0-.422-.847-1.098-1.921-1.453-.793-.261-1.331-.388-1.687-.375zm47.578.095c-.051-.002-.101.014-.141.046-.192.192-.444 2.766-.562 5.719l-.187 5.343h5.297l1.734-3.516c.956-1.935 1.736-3.607 1.736-3.75s-.615-.28-1.312-.28-2.4-.855-3.797-1.922c-1.224-.935-2.37-1.619-2.766-1.641zm-42.096.046c-.097-.036-.141.24-.141.797 0 .743.132 1.074.282.703a2.11 2.11 0 0 0 0-1.359c-.025-.065-.076-.116-.141-.141zm48.047 0c-.097-.036-.186.24-.186.797 0 .743.131 1.074.28.703a2.11 2.11 0 0 0 0-1.359c-.037-.093-.06-.129-.095-.141zm-42.045.282c-.132 0-1.035.462-2.016 1.03s-2.794 1.326-4.032 1.688l-2.25.657.984 2.202c.54 1.221 1.227 2.934 1.547 3.75.513 1.306.863 1.453 2.955 1.453 2.007 0 2.442-.192 2.718-1.22.375-1.395.453-9.561.093-9.561zm45.843.514c-1.335 0-2.437.266-2.437.563s1.101.516 2.438.516 2.438-.219 2.438-.516-1.102-.562-2.437-.562zm-122.812 2.157c-1.784 0-1.94.532-.703 2.905.487.936 1.054 2.087 1.266 2.532.225.48 1.48.935 3.047 1.125 4.986.603 4.728.843 2.953-2.672-1.675-3.318-2.569-3.891-6.562-3.891zm65.859 1.125c-.297 0-.516.351-.516.797s.219.797.516.797.563-.351.563-.797-.266-.797-.562-.797zm-1.594.516c-.296 0-.561.484-.561 1.077s.266 1.078.561 1.078.516-.484.516-1.078-.219-1.078-.516-1.078zm125.298 0c-.915-.015-2.148.09-3.328.327-1.367.273-1.947.875-3 2.953-.726 1.434-1.359 2.748-1.359 2.907s1.551.28 3.422.28h3.422l1.032-2.812 1.218-3.234c.109-.255-.492-.408-1.405-.422zm-126.657.795c-.097-.035-.187.288-.187.845 0 .743.132 1.028.282.657a2.11 2.11 0 0 0 0-1.359c-.037-.093-.061-.129-.094-.141zm-7.546.282c-.954 0-.028 1.524 1.219 2.016 1.962.775 2.295.765 2.295.141 0-.47-2.763-2.157-3.514-2.157zm5.907.234c-.099-.036-.141.288-.141.845 0 .743.084 1.028.234.657s.15-.942 0-1.314c-.037-.091-.06-.174-.094-.186zm60.515.189c-.982.066-.648 1.395 1.032 3.75 1.223 1.731 2.395 3.496 3.516 5.295.908 1.485 2.963 4.479 4.593 6.705s3.224 4.629 3.563 5.295c.739 1.455.725 1.433 2.672.282.853-.504 1.662-1.254 1.828-1.687.35-.912-1.305-3.612-4.595-7.405-1.269-1.465-3.133-3.937-4.125-5.484-1.942-3.036-4.433-5.265-7.077-6.375-.621-.261-1.08-.398-1.407-.375zm-54.047.327c-.641.131-2.928 1.228-5.859 2.859-1.356.756-8.186 8.726-9.891 11.532-.644 1.059-1.695 2.363-2.296 2.907-1.091.986-1.059.984.656 2.25 2.746 2.025 3.675 1.696 6.657-2.345 1.467-1.988 3.421-4.737 4.313-6.141 4.897-7.725 6.744-10.881 6.563-11.062-.022-.023-.049-.018-.141 0zm-14.25.328c-.816 0-7.234 5.214-10.171 8.25l-2.344 2.391 1.734 1.405c.933.786 1.778 1.453 1.923 1.453s2.79-2.486 5.859-5.532c5.565-5.523 5.57-5.544 4.594-6.75-.54-.663-1.255-1.218-1.594-1.218zm79.313 0c-1.627 0-2.157.232-2.157.891 0 .641.327.755 1.22.516.667-.18 1.637-.326 2.157-.33s.938-.218.938-.514-.97-.562-2.157-.562zm-108.282 1.688c-.418.143-1.212 1.029-2.436 2.72l-2.016 2.764 1.734 2.297c1.835 2.496 1.971 2.631 2.813 2.016.299-.218 1.228-1.319 2.063-2.437l1.5-2.062-1.641-2.062c-.91-1.149-1.687-2.389-1.687-2.718 0-.441-.076-.601-.327-.516zm110.814.375c-.284.03-.595.151-.937.282-1.537.579-1.519.585-.611 2.202 1.016 1.806 9.177 10.547 9.845 10.547.232 0 1.149-.591 2.063-1.359s1.688-1.609 1.688-1.828c0-.871-5.604-6.273-8.437-8.155-2.013-1.335-2.763-1.778-3.609-1.687zm29.67 1.22c-.588.156-1.248 1.256-2.482 3.42l-1.173 2.064 1.078 1.172c.607.647 1.125 1.455 1.125 1.782 0 .525.727 1.046 1.641 1.17.171.024.787-.502 1.359-1.17 2.367-2.768 2.425-3.214.563-6.236-.975-1.578-1.521-2.359-2.109-2.203zm-45.281 1.359l-1.03 1.968c-.998 1.944-.986 2.019.093 4.828 1.826 4.754 7.239 14.997 7.922 15 .352 0 1.256-.225 2.016-.516.865-.33 1.359-.948 1.359-1.641 0-1.381-2.476-6.342-5.577-11.155-1.299-2.016-2.893-4.772-3.562-6.095zm-49.593.093l-6.141 10.172-6.187 10.173 1.734.655c.966.351 2.093.635 2.484.657.4.023 2.127-2.935 3.939-6.75 1.776-3.743 3.867-7.738 4.639-8.907 1.385-2.091 1.38-2.171.47-4.078l-.937-1.92zm3.188.609c-.847.019-1.5.2-1.5.516 0 .881.756 1.172 3.047 1.172 1.842 0 2.262-.201 2.016-.843-.208-.542-2.151-.875-3.562-.845zm27.655.048v9.188h-7.545v8.109h-7.734l.328 2.813c.186 1.559.372 3.363.375 4.032.003.894.322 1.21 1.218 1.218.667.006 2.406.368 3.891.797 1.56.452 3.831.667 5.391.516l6.093-.562 3.375-.375V191.83h-5.389zm15.047.609a13.36 13.36 0 0 0-1.077.046c-1.299.096-2.4.492-2.532.891-.173.526.346.641 2.063.516 1.299-.096 2.4-.492 2.532-.891s-.12-.552-.984-.562zm-39.561 2.109c-.402-.06-.858.254-1.125.938l-3.798 9.845-3.75 9.797c-.27.693.003.95 1.171 1.125 2.432.364 2.86.402 2.86.234 0-.087.978-2.505 2.155-5.391 1.942-4.755 3.234-10.928 3.234-15.327 0-.726-.348-1.158-.75-1.22zm36.702.845l-.375 1.313c-1.192 4.282.309 14.197 2.953 19.313l.845 1.593 2.577-.843c1.422-.456 2.664-.906 2.766-.984.169-.133-1.338-3.834-5.391-13.266-.851-1.98-1.547-3.777-1.547-4.032s-.429-1.056-.937-1.78zm-109.312.75l1.454 3 1.454 2.953h3.702c3.593 0 3.702-.041 3.33-1.22-.212-.667-1.001-1.989-1.736-2.953-1.26-1.655-1.536-1.78-4.782-1.78h-3.42zm177.845 1.641c-2.097 0-3.651.244-3.984.655-.66.81-2.812 4.657-2.812 5.016 0 .139 1.639.234 3.655.234h3.657l1.452-2.953 1.453-2.953h-3.422zM90.28 198.861c-.198.011-1.153 1.184-2.111 2.578l-1.734 2.532 1.969 2.014 1.968 2.016 1.782-2.484 1.781-2.484-1.687-2.111c-.907-1.146-1.77-2.071-1.969-2.062zm126.327 1.078c-.127-.141-1.068.695-2.062 1.875l-1.78 2.157 1.453 2.577c.789 1.41 1.539 2.544 1.688 2.532s1.158-.816 2.25-1.782l1.968-1.734-1.641-2.672-1.875-2.953zm-116.905 7.594c-.48.522-3.046 5.893-3.046 6.375 0 .945 1.653 2.202 2.906 2.202.93 0 1.59-.63 2.625-2.625l1.359-2.672-1.829-1.734c-1.005-.975-1.897-1.675-2.014-1.547zm-23.297 1.688c-1.485.006-3.405.188-4.266.375-1.416.308-1.463.41-.657 1.077.492.408.891.98.891 1.266 0 1.284 2.441 2.57 4.313 2.297 1.04-.15 2.966-.278 4.266-.28h2.343l-2.109-2.391c-1.954-2.22-2.262-2.355-4.782-2.345zm132.045.514c-.701-.005-1.53.477-2.67 1.453l-1.78 1.547.938 1.688c1.152 2.025 3.344 2.283 5.016.609 1.296-1.294 1.35-1.728.28-3.795-.51-.99-1.08-1.497-1.78-1.5zm23.157.984c-4.216 0-4.26.045-6.328 2.111l-2.109 2.063 3.234.516c5.435.885 5.472.893 7.548-1.641 1.059-1.293 1.922-2.48 1.922-2.672s-1.926-.375-4.266-.375zm-89.859 7.125a11.14 11.14 0 0 0-3.657.563c-2.001.665-2.379 1.05-2.811 2.766-.315 1.245-.326 3.416 0 5.766.354 2.566.333 3.761-.048 3.75-.306-.009-1.617-.624-2.953-1.359-2.72-1.499-6.996-3.54-14.577-6.984-4.507-2.049-6.145-2.484-13.5-3.516-9.251-1.299-12.66-1.17-19.407.655-2.226.603-5.4 1.758-7.031 2.578l-2.954 1.5 2.157.563 5.389 1.359c5.961 1.503 5.946 1.5 7.266 5.766l1.219 3.845 3.045-.423c4.254-.636 11.109-.338 14.625.657 3.748 1.059 5.567 1.85 17.673 7.78 5.42 2.655 10.031 4.828 10.219 4.828.424 0 6.113-4.744 7.03-5.859.912-1.107.935-1.046-1.125-4.172-.998-1.515-1.911-3.426-2.062-4.22-.609-3.186 3.393-5.044 8.438-3.937 3.174.696 5.067.72 10.407.141 3.216-.35 4.116-.274 5.25.468.753.495 1.359 1.325 1.359 1.875 0 1.494-1.542 4.971-3 6.703-.987 1.173-1.158 1.77-.75 2.532.549 1.028 7.554 7.545 8.109 7.545.173 0 1.623-.99 3.234-2.202s3.923-2.674 5.109-3.282 3.26-1.868 4.595-2.812c5.441-3.847 12.583-5.542 21-4.92l8.345.514 2.625.047 1.405-3.75c1.38-3.623 1.541-3.817 4.125-4.78 1.475-.55 4.844-1.565 7.5-2.297s4.917-1.449 5.016-1.548c.615-.615-12.49-4.234-18.141-5.016-6.191-.855-6.915-.873-12.891 0-6.897 1.008-11.351 2.411-17.203 5.438-2.073 1.074-3.993 1.97-4.311 1.97s-1.779.827-3.236 1.828c-3.225 2.22-6.957 4.152-7.312 3.797-.144-.144.175-1.23.75-2.391.618-1.248 1.083-3.344 1.125-5.155.065-2.762-.081-3.186-1.5-4.407-1.521-1.308-1.74-1.362-6.187-.937-6.213.594-12.15.615-15.28.047-1.976-.357-2.558-.326-2.437.188a.84.84 0 0 1-.516.938c-.399.147-.657-.198-.657-.843 0-.956-1.539-1.551-3.468-1.595zm25.172 2.063c.372.008 1.27.448 1.97.986 1.643 1.263 2.235 5.439.938 6.516-.75.621-.95.36-1.547-1.875-.375-1.404-.987-2.67-1.361-2.812-.882-.339-.882-2.829 0-2.812zm-5.718.282c.318-.101.684.001 1.078.328.366.304 1.15.42 1.734.234 1.665-.528 1.797.472.28 2.109-1.128 1.216-1.308 1.852-1.03 3.328.268 1.434.157 1.782-.516 1.782-.468 0-.99-.42-1.172-.937a85.27 85.27 0 0 0-1.032-2.719c-.758-1.892-.299-3.825.657-4.125zm-11.016.375c.345-.054.735-.019 1.078.047l1.218.234-1.218.375c-.667.222-1.22.666-1.22.938s.483.225 1.078-.093 1.125-.44 1.125-.234.483-.024 1.078-.562 1.232-.799 1.453-.562.09.524-.282.655-.657.484-.657.75.615.2 1.361-.141c1.05-.478 1.665-.47 2.718.095 1.657.887 1.476 1.643-.609 2.72-3.072 1.584-3.21 1.746-2.062 2.155.575.204-.423.362-2.203.328l-3.234-.095-.516-2.297c-.36-1.623-.741-2.217-1.266-2.016-.41.157-1.138.282-1.639.282s-1.377.815-1.922 1.828c-1.53 2.839-4.928 3.394-6.75 1.077-1.343-1.704-1.357-1.792-.282-3.328 1.08-1.542 1.702-1.173 1.407.845-.196 1.335.008 1.665 1.218 1.97 1.98.496 2.438.012 2.438-2.391v-2.062l3.095.188c1.7.103 3.39-.075 3.75-.375.18-.15.5-.274.843-.328zm59.625.703c.107-.012.249.108.422.28.615.615.678 1.643.422 4.688-.18 2.153-.495 3.938-.75 3.938s-.468-2.148-.468-4.734c0-3.096.055-4.137.375-4.172zm-13.407.797c.309.023.774.374 1.125 1.032.308.573.762 2.335.986 3.889s.707 2.925 1.078 3.047c.414.139.518-.114.327-.609-.195-.508.141-.901.845-1.125 1.419-.45 2.203.03 2.203 1.359 0 1.236.975 1.35 2.438.282 1.005-.735.978-.809-.47-1.172-1.668-.42-1.677-1.122-.047-2.203.905-.6 1.25-.561 2.25.141.923.645 1.218 1.327 1.218 3.188 0 1.319.123 2.438.282 2.438s1.126-.368 2.155-.797c2.089-.875 2.476-2.457 1.078-4.455-.707-1.008-.703-1.182 0-1.452.514-.198 1.07.252 1.595 1.266 1.881 3.641.39 5.94-4.125 6.375l-2.766.28.375-1.453c.322-1.288.21-1.421-.891-1.17-.675.151-2.775.345-4.687.42l-3.516.141-.609-3.75c-.342-2.077-.805-4.215-1.032-4.734-.282-.653-.12-.96.188-.937zm-39.702.563c-.167.036-.399.091-.703.188-.743.234-1.912.424-2.578.422s-1.054.25-.891.516c.507.819 3.297.531 4.08-.422.5-.611.591-.813.093-.703zm48.656.282c.296 0 .633.279.75.889.114.591-.195.938-.75.938s-.816-.346-.703-.937c.119-.611.41-.891.705-.891zm-106.171.795c.683-.007.654.189.188.75-.847 1.023-3.466 1.18-3.141.189.121-.372 1.02-.795 2.016-.891.399-.039.71-.045.938-.047zm-6.562.143c.084 0 .157.063.282.139.327.202.939 1.2 1.359 2.203.48 1.146 1.147 1.782 1.781 1.782 1.026 0 4.425-1.162 6.188-2.157.538-.303 1.427-.422 2.016-.234.62.195 1.645-.045 2.438-.562 1.71-1.12 2.337-.647 1.032.797-.54.595-.725 1.078-.423 1.078s.427.681.282 1.5l-.282 1.5 1.829-1.687c2.189-2.019 3.847-2.493 5.157-1.5.904.687.912.735-.282.75-.704.009-2.127.75-3.141 1.641-1.713 1.503-4.953 2.231-5.109 1.17-.033-.222-.003-.913.046-1.545.064-.829-.351-1.288-1.5-1.687-1.347-.471-1.896-.351-3.516.75-1.23.835-2.7 1.313-4.077 1.313-1.851 0-2.265-.26-3.234-1.83-1.055-1.704-1.431-3.434-.844-3.42zm58.688 1.03c-.111-.015-.187.066-.187.234 0 .72.671 1.345 1.032.984.153-.153-.024-.585-.375-.937-.195-.194-.358-.267-.47-.28zm7.407.422c.889 0 1.593.219 1.593.516s-.36.563-.797.563c-.483 0-.659.304-.47.797.39 1.017-.37 1.017-1.266 0-1.098-1.248-.785-1.875.939-1.875zm32.811.141c.333-.048.611.133.611.609a.84.84 0 0 1-.845.844c-.47 0-.774-.258-.655-.609.165-.501.558-.797.891-.845zm-44.484.657c.147-.039.387.007.609.093 1.036.398 1.036.703 0 .703-.444 0-.843-.228-.843-.516 0-.144.087-.243.234-.282zm53.766.045c.297-.067.643-.015.797.236.188.302-.053.516-.516.516s-.843-.105-.843-.234c0-.285.266-.447.563-.516zm-6.375.798c.412-.006.98.183 1.407.609.715.717.852 3.085.234 4.032-.219.333-1.258.769-2.297.984s-2.361.705-2.955 1.078c-1.533.966-6.9 2.472-8.718 2.438-1.326-.025-1.743-.454-3-3.095-.799-1.68-1.399-3.147-1.312-3.234.484-.484 2.988 2.273 3.282 3.609.321 1.467.489 1.549 2.343 1.266 1.095-.167 2.406-.645 2.907-1.078s1.161-.63 1.5-.422c.345.213.999-.15 1.453-.797.53-.757 1.136-1.05 1.78-.845.543.173 1.168.075 1.359-.234s.81-.562 1.407-.562c1.082 0 1.114-.378.093-3.095-.162-.429.105-.649.516-.655zm-81.046 1.688c.375-.139.573.226.375 1.266-.529 2.764.495 3.496 3.75 2.625 1.016-.273 1.116-.466.563-1.359-.52-.84-.513-1.132.141-1.548 1.227-.78 2.025-.635 3.139.563l1.032 1.078 1.359-1.078c2.082-1.638 2.749-1.416 2.391.797-.231 1.425-.117 1.875.468 1.875.427 0 .796-.474.796-1.03 0-1.857 1.165-2.245 3.564-1.172 2.263 1.012 3.468 3.015 3.468 5.813 0 1.483-1 1.623-3.234.468-1.357-.702-1.56-.702-1.828 0-.18.465-1.035.797-2.016.797-1.603 0-1.635-.105-1.312-1.78.303-1.572.26-1.643-.421-.797-1.382 1.718-4.171.994-4.171-1.078 0-1.148-.191-1.278-1.219-.984-3.293.939-6.321.957-7.641.093-1.264-.828-1.299-.937-.609-2.578.48-1.143 1.032-1.828 1.407-1.968zm-10.829.47c.813-.073 1.627.067 1.875.468.363.587-.919 1.125-2.671 1.125-.924 0-1.207-.216-.984-.797.166-.438.968-.725 1.781-.797zm79.969.234c.49-.063.956.019 1.218.28.309.31-.077.733-.984 1.078-1.878.714-1.922.707-1.922-.187 0-.567.869-1.068 1.686-1.172zm-57.845 1.359c-.297 0-.516.248-.516.563s.219.418.516.234.563-.43.563-.562-.266-.234-.562-.234zm4.922 1.359c-.284.045-.544.174-.703.422-.708 1.116-.5 1.463 1.314 2.25 1.854.807 2.577.964 2.577.563 0-.135-.276-.816-.609-1.545-.512-1.125-1.726-1.824-2.578-1.689zm47.016.095c.405-.021.777.569 1.5 2.063 1.467 3.03 1.176 4.429-1.359 6.655-2.329 2.044-5.775 2.393-6.703.657-.308-.575-.562-1.192-.562-1.359 0-.63 1.509-.264 2.157.514 1.032 1.245 2.075.972 4.077-1.03 2.13-2.13 2.265-2.612.797-4.078-1.266-1.266-1.374-2.319-.327-3.187.151-.126.285-.228.422-.234zm-32.016.141c-.081.007-.153.06-.234.139-.549.549.315 6.405.891 6.047.274-.169.472-1.287.468-2.53-.007-2.028-.552-3.713-1.125-3.657zm5.157.563c-2.604 0-2.951.119-2.72.938.147.519.414 1.972.609 3.234.458 2.939 1.499 3.061 1.22.141-.187-1.968-.06-2.219 1.172-2.486 2.304-.498 2.72-.689 2.72-1.266 0-.315-1.296-.562-3-.562zm4.922 0c-.741 0-2.625 5.239-2.157 6 .348.561 1.407.607 2.625.139 1.391-.532.963-6.141-.468-6.141zm3.47.327c-.15.066-.195 1.611-.095 3.422.175 3.173 1.155 4.188 1.172 1.22.011-1.758.453-2.499 1.875-3.047.951-.366.865-.495-.797-1.078-1.04-.364-2.008-.581-2.157-.516zm-34.83.234c-.133 0-.234.279-.234.798 0 .446.23.797.516.797s.405-.351.234-.797c-.198-.519-.381-.797-.514-.797zm31.689 1.641c.368.053.478.396.375 1.125-.099.699-.624 1.35-1.172 1.453-.765.145-.982-.105-.845-1.078.099-.697.623-1.349 1.172-1.453.192-.036.346-.063.47-.045zm18.797 1.688c.19-.008.382.077.563.188.603.374.194 1.313-.562 1.313-.262 0-.625-.24-.797-.516-.3-.483.226-.96.797-.984zm-43.453.984c.446 0 .845.219.845.516s-.399.563-.845.563-.797-.266-.797-.562.351-.516.797-.516z" fill="#fecb00"/></svg>