<svg xmlns="http://www.w3.org/2000/svg" xmlns:xlink="http://www.w3.org/1999/xlink" width="1200" height="600" xmlns:v="https://vecta.io/nano"><style><![CDATA[.B{stroke-width:.833}.C{fill:#fecb00}.D{stroke-width:.803}.E{fill-rule:evenodd}.F{fill:#027b32}.G{fill:#d41a09}.H{stroke-width:.84}.I{stroke-width:3.333}]]></style><g class="E"><path d="M0 0h1200v600H0z"/><path d="M0 200h1200v400H0z" class="G"/><path d="M331.655 187.237a38.75 38.75 0 1 1-77.5 0 38.75 38.75 0 1 1 77.5 0z" fill="#b9b8ac"/></g><g stroke="#fecb00"><path d="M307.013 113.162l-28.218 160.033m46.593-169.265l-64.967 178.497m73.108-159.615l-81.25 140.733M355.147 140.95L230.663 245.407m155.773-68.72L199.372 209.67m169.885-44.282l-152.703 55.58m158.602-75.278l-164.502 94.977m143.3-120.243l-122.098 145.51m61.05-167.73v173.283M260.42 103.932l64.967 178.495m-46.592-169.265l28.218 160.033m-75.158-152.772l122.098 145.51M252.278 122.812l81.252 140.733M210.653 145.69l164.502 94.977M230.662 140.95l124.485 104.457m-138.593-80.018l152.703 55.58m-169.885-44.282l187.065 32.983" fill="none" stroke-width="5"/><path d="M351.008 214.327A61.833 61.833 0 0 1 234.8 172.03a61.833 61.833 0 1 1 116.208 42.297z" fill="#fff" stroke-width="5.001" class="E"/></g><g stroke="#000" class="B E"><path d="M292.917 181.958c-35.92 0-69.075 6.615-95.833 17.708 6.108 47.492 46.687 84.218 95.833 84.218s89.725-36.727 95.833-84.218c-26.758-11.093-59.912-17.708-95.833-17.708z" class="F"/><g class="C"><path d="M241.51 100.5c-29.593 17.587-49.427 49.843-49.427 86.717 0 6.827.683 13.498 1.98 19.948l4.217-4.897a96.33 96.33 0 0 1-1.197-15.052c0-35.703 19.54-66.795 48.49-83.282l-4.063-3.437zm102.813.052l-4.063 3.385c28.95 16.487 48.49 47.578 48.49 83.282 0 5.127-.423 10.143-1.198 15.052l4.218 4.897a101.108 101.108 0 0 0 1.98-19.948c0-36.85-19.867-69.072-49.427-86.667zm-135.73 132.187l-2.032 1.617-.52 4.008c16.452 27.893 45.908 47.227 80 49.533v-5.105c-33.525-2.38-62.272-22.002-77.448-50.053zm168.647 0c-15.183 28.067-43.953 47.69-77.5 50.053v5.103c34.088-2.287 63.533-21.603 80-49.478l-.468-4.063-2.033-1.615zm68.75-63.75c.705 5.983 1.093 12.058 1.093 18.23a154.433 154.433 0 0 1-4.01 35.052l5.833-3.282a159.357 159.357 0 0 0 3.177-31.77c0-5.615-.317-11.15-.885-16.615zm-306.198.053l-5.157 1.562c-.567 5.467-.885 11-.885 16.615 0 10.887 1.09 21.497 3.177 31.77l5.782 3.23a154.308 154.308 0 0 1-4.01-35c0-6.153.392-12.212 1.093-18.177zm8.282 84.167c12.808 28.03 33.52 51.702 59.27 68.177l-1.927-2.968-6.718-7.708.99-.73c-18.877-14.365-34.367-32.94-45-54.375l-6.617-2.395zm289.687 0l-6.667 2.395c-10.623 21.428-26.088 40.012-44.948 54.375l.99.73-6.718 7.708-1.927 2.968c25.75-16.475 46.462-40.147 59.27-68.177zM240 332.062l-5.625 3.177c15.175 6.018 31.503 9.72 48.542 10.783v-3.595h6.458v-1.042A153.397 153.397 0 0 1 240 332.062zm105.782 0a153.35 153.35 0 0 1-49.323 9.323v1.042h5.885v3.645a158.173 158.173 0 0 0 49.063-10.833z"/><path d="M145.052 167.375l-5.26 1.667a155.642 155.642 0 0 0-1.093 18.228c0 12.022 1.4 23.717 4.01 34.948l5.208 2.917.468-.73c-3.04-11.863-4.635-24.322-4.635-37.133 0-6.743.435-13.392 1.302-19.897zm295.677 0a150.68 150.68 0 0 1 1.303 19.895c0 12.795-1.607 25.233-4.635 37.083l.52.782 5.157-2.865a154.29 154.29 0 0 0 2.917-53.282l-5.26-1.613zm-286.04 88.228c10.638 21.418 26.122 40.018 45 54.375l4.167-3.073a149.897 149.897 0 0 1-42.188-48.75l-6.98-2.55zm276.407 0l-6.927 2.552a149.807 149.807 0 0 1-42.188 48.75l4.167 3.073a155.033 155.033 0 0 0 44.95-54.375zm-185.728 73.022l.103.363-5.417 3.073a153.762 153.762 0 0 0 49.323 9.272v-5a148.715 148.715 0 0 1-44.01-7.708zm95.052.052c-13.86 4.65-28.617 7.3-43.958 7.657v5a153.715 153.715 0 0 0 49.272-9.272l-5.417-3.073z"/><path d="M150.365 165.76l-5.313 1.615a149.752 149.752 0 0 0-1.302 19.843 149.017 149.017 0 0 0 4.688 37.187l3.8-5.677a144.56 144.56 0 0 1-3.488-31.51 144.82 144.82 0 0 1 1.615-21.458zm285.103 0c1.05 7.01 1.615 14.157 1.615 21.458a144.58 144.58 0 0 1-3.49 31.562l3.802 5.625a149.017 149.017 0 0 0 4.688-37.187c0-6.738-.433-13.342-1.302-19.843zm-271.407 86.198l-2.395 6.197a149.995 149.995 0 0 0 42.188 48.75l.677-.52-.625-5.782c-16.595-13.043-30.27-29.63-39.843-48.645zm257.657.052a144.94 144.94 0 0 1-39.843 48.645l-.625 5.73.625.468c17.367-12.945 31.85-29.535 42.24-48.698zm-177.76 70.833l1.407 5.782a148.558 148.558 0 0 0 44.01 7.708v-5a143.708 143.708 0 0 1-45.417-8.49zm97.865.052c-14.217 5.128-29.475 8.055-45.365 8.438v5a148.483 148.483 0 0 0 43.958-7.708z"/><path d="M155.677 164.145l-5.365 1.615a144.262 144.262 0 0 0 1.875 53.073l3.96-5.887a139.773 139.773 0 0 1-2.397-25.677c0-7.877.67-15.605 1.927-23.125zm274.48 0c1.257 7.52 1.875 15.248 1.875 23.125 0 8.777-.843 17.352-2.397 25.677l3.958 5.833a144.34 144.34 0 0 0 3.49-31.51c0-7.313-.56-14.487-1.615-21.51zm-263.593 81.407l-2.5 6.458c9.578 18.973 23.267 35.513 39.843 48.542l-.73-7.032c-15.438-13.067-28.028-29.39-36.615-47.968zm252.655.052a139.782 139.782 0 0 1-36.562 47.968l-.782 7.033c16.59-13.037 30.26-29.6 39.843-48.595zM242.552 317.01l1.458 5.833a143.637 143.637 0 0 0 45.365 8.49v-.833h-5.885v-4.375a138.287 138.287 0 0 1-40.938-9.115zm100.677.052a138.363 138.363 0 0 1-41.458 9.115v4.323h-5.312v.833a143.385 143.385 0 0 0 45.365-8.49l1.407-5.782z"/></g><path d="M239.063 320.447c-11.283 2.522-23.01 5.675-33.178 9.167l2.188 6.25c9.708-3.333 20.992-6.315 31.823-8.75z" class="F"/><path d="M238.282 313.988c-11.718 2.567-23.768 5.86-34.323 9.428l2.135 6.302c10.103-3.415 21.687-6.577 32.968-9.063z" class="G"/><path d="M237.448 307.322c-12.447 2.653-24.483 5.845-35.677 9.533l2.083 6.3c10.762-3.545 22.388-6.645 34.427-9.217z"/><g class="C"><path d="M271.093 52.322c-60.455 9.717-107.665 59.137-114.062 120.625l4.687 3.907c4.727-60.68 50.542-109.808 109.688-119.532zm43.647 0l-.313 5c59.125 9.725 104.938 58.827 109.688 119.48l4.687-3.907c-6.42-61.455-53.64-110.847-114.062-120.573z"/><path d="M271.407 57.322c-59.112 9.735-104.958 58.892-109.688 119.533l4.375 3.645.365-.262c3.247-59.582 47.667-108.177 105.313-117.863l-.367-5.053zm43.02 0l-.365 5.053c57.63 9.7 102.067 58.293 105.313 117.863l.313.262 4.427-3.698c-4.77-60.587-50.623-109.733-109.688-119.48z"/><path d="M271.772 62.375c-57.6 9.708-102.063 58.333-105.313 117.863l5.26-3.75c4.823-55.217 46.543-99.825 100.365-109.113l-.313-5zm42.292 0l-.313 5c53.807 9.3 95.54 53.907 100.365 109.113l5.26 3.75c-3.25-59.53-47.713-108.155-105.313-117.863z"/><path d="M272.083 67.375c-53.792 9.295-95.537 53.935-100.365 109.113l5.468-3.905c6.358-50.76 45.308-91.367 95.262-100.208zm41.667 0l-.365 5.052c49.955 8.857 88.922 49.442 95.26 100.208l5.47 3.853c-4.832-55.163-46.597-99.8-100.365-109.113zM176.353 181.853l-.05.26h.05c.005-.085-.003-.173 0-.26zm53.127-91.51c-31.543 20.717-52.45 56.375-52.45 96.875 0 6.5.583 12.85 1.617 19.062l5.467 2.137a111.385 111.385 0 0 1-2.03-21.198c0-39.342 20.512-73.827 51.407-93.49zm126.875 0l-4.012 3.385c30.875 19.667 51.355 54.165 51.355 93.49a111.39 111.39 0 0 1-2.032 21.198l5.468-2.083c1.038-6.228 1.615-12.597 1.615-19.115 0-40.5-20.853-76.16-52.397-96.875zM199.427 246.697l-5.782.208c20.3 33.65 57.18 56.2 99.272 56.2s78.988-22.548 99.272-56.2l-5.833-.208c-19.12 30.003-52.258 50.207-90.208 51.303v.363h-6.458V298c-37.953-1.097-71.128-21.3-90.262-51.303z"/><path d="M233.49 93.728c-30.883 19.695-51.407 54.205-51.407 93.49a111.22 111.22 0 0 0 2.032 21.198l5.573 2.135a106.252 106.252 0 0 1-2.605-23.333c0-38.115 20.178-71.48 50.417-90.105l-4.01-3.383zm118.853 0l-3.958 3.385c30.217 18.627 50.365 51.993 50.365 90.105a106.25 106.25 0 0 1-2.605 23.333l5.573-2.135a111.315 111.315 0 0 0 2.032-21.198c0-39.283-20.542-73.795-51.407-93.49zM205.103 246.28l-.05.208-5.627.208c19.145 30.025 52.335 50.258 90.26 51.355V293c-35.242-1.05-66.13-19.342-84.583-46.72zm175.627.053c-18.457 27.358-49.355 45.617-84.583 46.667v5.052c37.925-1.097 71.117-21.33 90.26-51.355l-5.677-.208z"/><path d="M237.448 97.113c-30.2 18.662-50.365 52.055-50.365 90.105a105.88 105.88 0 0 0 2.605 23.333l1.145.417 3.23-3.802a101.177 101.177 0 0 1-1.98-19.948c0-36.912 19.825-69.155 49.427-86.718zm110.937 0l-4.062 3.387c29.583 17.563 49.427 49.807 49.427 86.718a101.12 101.12 0 0 1-1.98 19.948l3.23 3.8 1.147-.417a105.917 105.917 0 0 0 2.603-23.333c0-38.053-20.178-71.445-50.365-90.105zM206.042 238.417l-.938 7.863c18.465 27.395 49.372 45.718 84.583 46.772v-3.698h-3.645v-1.51c-34.1-2.298-63.553-21.578-80-49.427zm173.698.052c-16.463 27.832-45.902 47.095-80 49.375v1.51h-3.593v3.698c35.178-1.067 66.123-19.357 84.583-46.718z"/></g></g><g stroke="#fecb00" class="I"><g fill="#fff" class="E"><path d="M280.55 203.803c2.817-3.808 12.635-14.067 12.635-14.067s9.817 10.258 12.637 14.067c2.1 2.838 7.928 7.883 7.928 14.917v45.72h-41.667v-45.72c0-7.033 6.367-12.078 8.467-14.917z"/><path d="M285.572 218.338c1.843-2.535 7.615-9.917 7.615-9.917l7.597 9.992c1.373 1.888 3.013 3.4 3.013 8.083v31.325h-21.76v-31.327c0-4.683 2.162-6.267 3.535-8.157z"/></g><path d="M282.917 248.052h6.667v-6.667h6.667v-6.667h6.667" fill="none"/></g><g class="E"><g stroke="#000"><g class="B C"><path d="M174.38 163.255c-2.503.213-5.083 2.32-5.762 4.702l-1.228 4.315 4.533-.388c2.505-.213 5.085-2.32 5.763-4.7l1.227-4.317zm-1.217 9.17c-2.508.138-5.153 2.167-5.9 4.525l-1.358 4.275 4.543-.25c2.508-.138 5.152-2.167 5.9-4.525l1.358-4.277-4.543.25zm3.558-17.688c-2.512-.07-5.315 1.73-6.257 4.02l-1.707 4.148 4.548.127c2.512.072 5.313-1.73 6.257-4.02l1.707-4.147-4.55-.128z"/><path d="M179.462 146.65c-2.508-.143-5.362 1.575-6.372 3.837l-1.827 4.097 4.543.26c2.508.143 5.362-1.575 6.372-3.837l1.827-4.097zm2.772-8.195c-2.5-.253-5.428 1.338-6.535 3.552l-2.007 4.012 4.528.462c2.5.253 5.427-1.338 6.533-3.553l2.007-4.012-4.528-.46zm4.657-8.102c-2.442-.593-5.558.58-6.96 2.622l-2.538 3.698 4.422 1.078c2.44.593 5.558-.58 6.96-2.622l2.537-3.698zm4.808-7.685c-2.347-.897-5.587-.125-7.233 1.723l-2.985 3.35 4.25 1.625c2.345.898 5.587.127 7.233-1.722l2.983-3.35-4.25-1.627zm4.725-7.272c-2.357-.87-5.588-.062-7.213 1.805l-2.947 3.383 4.27 1.578c2.355.87 5.588.062 7.213-1.807l2.945-3.383-4.267-1.577zm5.288-7.093c-2.325-.95-5.583-.247-7.268 1.567l-3.057 3.283 4.215 1.717c2.325.95 5.583.247 7.27-1.567l3.055-3.283z"/><path d="M199.043 99.155c-2.413.697-4.533 3.267-4.737 5.733l-.363 4.472 4.372-1.263c2.413-.697 4.535-3.265 4.737-5.733l.365-4.47zm-6.09 2.455c1.493 2.02 1.618 5.35.278 7.432l-2.427 3.772-2.705-3.66c-1.493-2.02-1.618-5.35-.278-7.43l2.427-3.773zm-6.3 6.828c1.657 1.887 2.058 5.195.898 7.382l-2.103 3.962-3.002-3.42c-1.658-1.888-2.06-5.195-.9-7.383l2.105-3.962 3 3.422zm-5.557 7.657c1.897 1.65 2.74 4.872 1.883 7.195l-1.55 4.208-3.437-2.985c-1.895-1.65-2.738-4.872-1.883-7.195l1.553-4.208zm-5.803 8.622c2.045 1.458 3.195 4.583 2.567 6.98l-1.138 4.338-3.707-2.64c-2.045-1.458-3.197-4.585-2.567-6.98l1.138-4.338zm-3.725 9.242c2.097 1.383 3.358 4.468 2.815 6.883l-.983 4.377-3.8-2.507c-2.095-1.383-3.355-4.467-2.813-6.883l.983-4.377 3.8 2.507zm-4.025 9.745c2.332.933 4.187 3.702 4.14 6.178l-.083 4.483-4.225-1.692c-2.333-.933-4.187-3.702-4.14-6.178l.083-4.483z"/></g><path d="M163.787 152.44c2.168.518 4.153 3.017 4.433 5.575l.503 4.633-3.927-.94c-2.167-.52-4.153-3.017-4.433-5.577l-.503-4.633zm-2.517 9.51c2.213.268 4.47 2.525 5.037 5.033l1.028 4.548-4.01-.49c-2.212-.27-4.468-2.525-5.037-5.035l-1.027-4.547 4.008.488zm-1.52 9.777c2.223.177 4.573 2.335 5.247 4.82l1.217 4.5-4.025-.322c-2.222-.177-4.572-2.335-5.245-4.818l-1.217-4.5 4.025.32z" class="C D"/><g class="B"><path d="M346.747 320.447c11.282 2.522 23.008 5.675 33.177 9.167l-2.188 6.25c-9.708-3.333-20.99-6.315-31.822-8.75z" class="F"/><path d="M348.36 307.322c12.448 2.653 24.483 5.845 35.678 9.533l-2.083 6.3c-10.763-3.545-22.39-6.645-34.428-9.217z"/><path d="M347.527 313.988c11.718 2.567 23.768 5.86 34.323 9.428l-2.135 6.302c-10.103-3.415-21.687-6.577-32.968-9.063z" fill="#bf0000"/><path d="M157.917 182.478a134.947 134.947 0 0 0-.105 4.74l.367 9.583 8.383-1.093 2.137 16.353-8.333 1.093a133.57 133.57 0 0 0 4.948 18.387l7.76-3.178 6.302 15.208-7.657 3.178a134.783 134.783 0 0 0 9.635 16.458l6.512-5 10 13.072-6.407 4.897A136.075 136.075 0 0 0 205 289.51l4.843-6.302 13.073 10.052-4.792 6.25a135.182 135.182 0 0 0 16.407 9.323l2.968-7.137L252.76 308l-2.917 7.03c5.912 1.992 11.985 3.63 18.23 4.792l.99-7.447 16.3 2.187-.937 7.292a136.717 136.717 0 0 0 8.49.26c3.462 0 6.917-.16 10.313-.417l-.938-7.133v-.053l16.355-2.135.937 7.083c6.177-1.24 12.18-2.95 18.022-5L334.948 308l15.208-6.303 2.657 6.407a135.24 135.24 0 0 0 16.145-9.427l-4.167-5.468 13.073-10 4.115 5.312a135.825 135.825 0 0 0 13.072-13.228l-5.26-4.012 10.052-13.072 5.26 4.01a134.762 134.762 0 0 0 9.272-16.093l-6.093-2.553 6.353-15.208 6.042 2.5a133.743 133.743 0 0 0 4.843-17.967l-6.562-.887 2.188-16.302 6.458.833c.21-3.08.363-6.192.363-9.323l-.052-4.74-16.823 1.458c.03 1.097.105 2.178.105 3.282 0 65.572-53.022 118.49-118.282 118.49s-118.282-52.918-118.282-118.49c0-1.103.075-2.185.105-3.282z" fill="#fff"/><g class="C"><path d="M392.653 184.125c2.465.483 4.805 2.853 5.222 5.295l.757 4.42-4.467-.872c-2.467-.483-4.805-2.855-5.223-5.295l-.755-4.422zm-.17 8.618c2.403.728 4.492 3.325 4.66 5.795l.305 4.475-4.355-1.32c-2.405-.728-4.492-3.325-4.66-5.795l-.307-4.475 4.355 1.32zm-.217-17.228c2.503.2 5.097 2.292 5.787 4.67l1.25 4.307-4.535-.362c-2.503-.2-5.097-2.292-5.788-4.67l-1.25-4.307 4.535.362zm-1.793-8.92c2.51.127 5.162 2.142 5.922 4.5l1.377 4.267-4.545-.228c-2.508-.127-5.162-2.143-5.922-4.5l-1.377-4.268zm-2.165-8.478c2.512.017 5.25 1.915 6.113 4.235l1.563 4.205-4.55-.03c-2.513-.017-5.252-1.913-6.115-4.233l-1.563-4.205 4.55.03zm-3.027-8.475c2.49-.328 5.463 1.175 6.637 3.355l2.125 3.95-4.512.595c-2.49.33-5.463-1.173-6.637-3.353l-2.125-3.95zm-3.955-8.158c2.43-.638 5.568.477 7.007 2.492l2.607 3.65-4.4 1.16c-2.428.64-5.567-.475-7.007-2.49l-2.607-3.65 4.4-1.16zm-3.917-7.737c2.437-.612 5.563.54 6.978 2.57l2.565 3.68-4.413 1.11c-2.437.612-5.563-.54-6.978-2.57l-2.565-3.68zm-4.493-7.622c2.413-.693 5.577.355 7.058 2.338l2.683 3.593-4.373 1.255c-2.415.692-5.577-.355-7.06-2.338l-2.683-3.593 4.373-1.255z"/><path d="M376.552 117.317c2.325.953 4.158 3.733 4.093 6.21l-.118 4.483-4.212-1.725c-2.325-.952-4.158-3.733-4.093-6.208l.12-4.483 4.21 1.725zm5.791 3.095c-1.703 1.848-2.183 5.145-1.077 7.358l2.008 4.012 3.083-3.347c1.7-1.848 2.183-5.145 1.075-7.358l-2.007-4.012zm5.53 7.467c-1.85 1.7-2.607 4.943-1.687 7.243l1.665 4.165 3.352-3.078c1.85-1.7 2.607-4.943 1.687-7.243l-1.665-4.165zm4.7 8.21c-2.062 1.435-3.248 4.55-2.647 6.95l1.09 4.352 3.737-2.6c2.062-1.433 3.247-4.547 2.645-6.95l-1.09-4.35-3.735 2.6zm4.843 9.197c-2.19 1.23-3.67 4.213-3.303 6.663l.667 4.435 3.967-2.227c2.192-1.23 3.672-4.213 3.305-6.663l-.667-4.435-3.967 2.227zm2.367 9.997c-2.232 1.15-3.817 4.08-3.537 6.542l.508 4.457 4.045-2.085c2.233-1.15 3.817-4.082 3.538-6.542l-.508-4.457-4.045 2.083zm3.265 10.007c-2.42.678-4.562 3.23-4.782 5.697l-.398 4.467 4.383-1.228c2.417-.678 4.56-3.23 4.78-5.697l.398-4.467-4.383 1.228z"/></g></g><path d="M404.755 174.85c-2.212.285-4.455 2.555-5.007 5.067l-1 4.555 4.005-.513c2.212-.283 4.455-2.553 5.007-5.067l1-4.553-4.005.513zm.732 9.793c-2.23.03-4.717 2.032-5.55 4.467l-1.512 4.408 4.038-.055c2.23-.03 4.717-2.03 5.55-4.465l1.512-4.41zm-.405 9.643c-2.228-.063-4.797 1.83-5.733 4.227l-1.695 4.343 4.037.115c2.228.063 4.797-1.83 5.733-4.228l1.695-4.342z" class="C D"/><g class="B C"><path d="M411.43 163.255c2.502.213 5.083 2.32 5.76 4.702l1.228 4.315-4.533-.388c-2.505-.213-5.085-2.32-5.763-4.7l-1.227-4.317 4.533.388zm1.217 9.17c2.508.138 5.15 2.167 5.9 4.525l1.357 4.275-4.543-.25c-2.508-.138-5.152-2.167-5.9-4.525l-1.358-4.277 4.545.25zm-3.56-17.688c2.512-.07 5.315 1.73 6.257 4.02l1.708 4.148-4.55.127c-2.51.072-5.313-1.73-6.257-4.02l-1.707-4.147 4.55-.128z"/><path d="M406.347 146.65c2.508-.143 5.362 1.575 6.372 3.837l1.827 4.097-4.543.26c-2.508.143-5.362-1.575-6.37-3.837l-1.828-4.097zm-2.77-8.195c2.5-.253 5.427 1.338 6.533 3.552l2.007 4.012-4.528.462c-2.5.253-5.425-1.338-6.533-3.553l-2.005-4.012zm-4.657-8.102c2.44-.593 5.558.58 6.958 2.622l2.538 3.698-4.422 1.078c-2.44.593-5.558-.58-6.958-2.622l-2.538-3.698zm-4.81-7.685c2.347-.897 5.588-.125 7.235 1.723l2.983 3.35-4.25 1.625c-2.345.898-5.587.127-7.233-1.722l-2.983-3.35 4.25-1.627zm-4.725-7.272c2.357-.87 5.588-.062 7.213 1.805l2.947 3.383-4.268 1.578c-2.357.87-5.588.062-7.215-1.807l-2.945-3.383zm-5.288-7.093c2.325-.95 5.583-.247 7.27 1.567l3.055 3.283-4.215 1.717c-2.325.95-5.583.247-7.268-1.567l-3.057-3.283z"/><path d="M386.765 99.155c2.413.697 4.535 3.267 4.737 5.733l.363 4.472-4.372-1.263c-2.413-.697-4.535-3.265-4.737-5.733l-.365-4.47zm6.09 2.455c-1.493 2.02-1.618 5.35-.278 7.432l2.427 3.772 2.705-3.66c1.493-2.02 1.618-5.35.278-7.43l-2.427-3.773zm6.3 6.828c-1.657 1.887-2.058 5.195-.898 7.382l2.103 3.962 3.002-3.42c1.658-1.888 2.06-5.195.9-7.383l-2.105-3.962-3 3.422zm5.557 7.657c-1.897 1.65-2.74 4.872-1.883 7.195l1.552 4.208 3.433-2.985c1.897-1.65 2.74-4.872 1.883-7.195l-1.55-4.208zm5.805 8.622c-2.047 1.458-3.197 4.583-2.567 6.98l1.137 4.338 3.707-2.64c2.047-1.458 3.197-4.585 2.567-6.98l-1.138-4.338zm3.723 9.242c-2.097 1.383-3.357 4.468-2.815 6.883l.983 4.377 3.8-2.507c2.095-1.383 3.357-4.467 2.813-6.883l-.983-4.377-3.8 2.507zm4.027 9.745c-2.333.933-4.188 3.702-4.142 6.178l.083 4.483 4.225-1.692c2.333-.933 4.187-3.702 4.14-6.178l-.083-4.483-4.225 1.692z"/></g><path d="M422.022 152.44c-2.167.518-4.153 3.017-4.433 5.575l-.503 4.633 3.927-.94c2.168-.52 4.153-3.017 4.433-5.577l.505-4.633zm2.517 9.51c-2.213.268-4.47 2.525-5.037 5.033l-1.028 4.548 4.01-.49c2.212-.27 4.468-2.525 5.037-5.035l1.028-4.547-4.01.488zm1.518 9.777c-2.222.177-4.572 2.335-5.245 4.82l-1.217 4.5 4.025-.322c2.222-.177 4.572-2.335 5.245-4.818l1.218-4.5z" class="C D"/><path d="M209.257 117.317c-2.325.953-4.158 3.733-4.093 6.21l.118 4.483 4.212-1.725c2.325-.952 4.158-3.733 4.093-6.208l-.118-4.483-4.212 1.725z" class="B C"/><g class="C"><path d="M197.935 127.878c1.85 1.7 2.607 4.943 1.688 7.243l-1.667 4.165-3.35-3.078c-1.852-1.7-2.608-4.943-1.688-7.243l1.665-4.165z" class="B"/><path d="M180.323 184.643c2.228.03 4.715 2.032 5.55 4.467l1.51 4.408-4.038-.055c-2.23-.03-4.717-2.03-5.55-4.465l-1.51-4.41z" class="D"/><path d="M193.157 184.125c-2.467.483-4.805 2.853-5.223 5.295l-.755 4.42 4.467-.872c2.465-.483 4.803-2.855 5.222-5.295l.755-4.422-4.467.873zm.17 8.618c-2.405.728-4.492 3.325-4.662 5.795l-.305 4.475 4.355-1.32c2.405-.728 4.492-3.325 4.662-5.795l.305-4.475zm.217-17.228c-2.505.2-5.097 2.292-5.788 4.67l-1.25 4.307 4.535-.362c2.505-.2 5.097-2.292 5.788-4.67l1.25-4.307zm1.79-8.92c-2.508.127-5.16 2.142-5.92 4.5l-1.377 4.267 4.545-.228c2.51-.127 5.162-2.143 5.922-4.5l1.377-4.268-4.545.23zm2.167-8.478c-2.512.017-5.25 1.915-6.113 4.235l-1.563 4.205 4.55-.03c2.513-.017 5.252-1.913 6.115-4.233l1.563-4.205-4.55.03zm3.027-8.475c-2.49-.328-5.463 1.175-6.637 3.355l-2.125 3.95 4.512.595c2.49.33 5.463-1.173 6.637-3.353l2.125-3.95zm3.955-8.158c-2.428-.638-5.567.477-7.007 2.492l-2.607 3.65 4.4 1.16c2.428.64 5.567-.475 7.007-2.49l2.607-3.65-4.4-1.16zm3.917-7.737c-2.437-.612-5.563.54-6.978 2.57l-2.565 3.68 4.413 1.11c2.437.612 5.563-.54 6.978-2.57l2.565-3.68zm4.495-7.622c-2.415-.693-5.578.355-7.06 2.338l-2.683 3.593 4.373 1.255c2.415.692 5.577-.355 7.06-2.338l2.683-3.593zm-9.427-5.713c1.7 1.848 2.183 5.145 1.075 7.358l-2.008 4.012-3.083-3.347c-1.7-1.848-2.183-5.145-1.075-7.358l2.008-4.012zm-10.232 15.677c2.063 1.435 3.248 4.55 2.647 6.95l-1.09 4.352-3.737-2.6c-2.062-1.433-3.247-4.547-2.645-6.95l1.09-4.35 3.735 2.6zm-4.843 9.197c2.19 1.23 3.67 4.213 3.303 6.663l-.667 4.435-3.967-2.227c-2.192-1.23-3.672-4.213-3.305-6.663l.667-4.435zm-2.368 9.997c2.233 1.15 3.818 4.08 3.538 6.542l-.507 4.457-4.047-2.085c-2.233-1.15-3.817-4.082-3.537-6.542l.507-4.457 4.045 2.083zm-3.263 10.007c2.42.678 4.562 3.23 4.782 5.697l.398 4.467-4.383-1.228c-2.417-.678-4.558-3.23-4.778-5.697l-.4-4.467 4.383 1.228z" class="B"/><path d="M181.055 174.85c2.21.285 4.453 2.555 5.005 5.067l1 4.555-4.005-.513c-2.212-.283-4.455-2.553-5.007-5.067l-1-4.553 4.007.513zm-.328 19.437c2.23-.063 4.797 1.83 5.733 4.227l1.695 4.343-4.037.115c-2.228.063-4.797-1.83-5.733-4.228l-1.695-4.342z" class="D"/><path d="M194.398 202.107c-2.36.86-4.302 3.568-4.333 6.045l-.057 4.483 4.275-1.558c2.36-.86 4.3-3.567 4.333-6.043l.057-4.487z" class="B"/><path d="M181.903 204.347c2.222-.188 4.892 1.562 5.958 3.903l1.933 4.242-4.025.338c-2.222.187-4.89-1.562-5.958-3.903l-1.933-4.242z" class="D"/><path d="M391.412 201.972c2.36.86 4.3 3.567 4.332 6.043l.057 4.485-4.275-1.558c-2.36-.862-4.3-3.568-4.333-6.045l-.057-4.483z" class="B"/><path d="M403.905 204.21c-2.222-.187-4.89 1.562-5.958 3.903l-1.933 4.242 4.025.338c2.222.187 4.89-1.562 5.958-3.903l1.933-4.242z" class="D"/><g class="B"><path d="M392.662 290.012c1.063 2.275.527 5.563-1.198 7.338l-3.125 3.217-1.928-4.122c-1.063-2.275-.527-5.563 1.198-7.338l3.125-3.217zm-7.128 6.255c1.132 2.243.695 5.547-.977 7.373l-3.027 3.31-2.05-4.062c-1.133-2.242-.697-5.545.973-7.372l3.027-3.31 2.052 4.062zm13.34-12.537c1.315 2.14 1.153 5.467-.36 7.427l-2.742 3.55-2.382-3.877c-1.315-2.142-1.153-5.468.36-7.428l2.742-3.55z"/><path d="M404.512 277.317c1.377 2.102 1.312 5.433-.143 7.437l-2.637 3.628-2.493-3.807c-1.377-2.102-1.313-5.433.143-7.435l2.637-3.628 2.493 3.807zm5.405-7.117c1.467 2.04 1.55 5.37.183 7.435l-2.473 3.742-2.66-3.693c-1.467-2.038-1.55-5.37-.183-7.433l2.475-3.742 2.658 3.693zm4.693-7.662c1.733 1.817 2.273 5.105 1.205 7.338l-1.938 4.045-3.14-3.293c-1.733-1.817-2.273-5.105-1.205-7.338l1.938-4.045zm4.572-7.795c1.95 1.583 2.898 4.777 2.118 7.128l-1.412 4.257-3.53-2.87c-1.95-1.585-2.9-4.778-2.12-7.128l1.412-4.258zm3.942-7.727c1.93 1.608 2.843 4.812 2.037 7.153l-1.46 4.24-3.498-2.91c-1.932-1.607-2.843-4.812-2.037-7.152l1.46-4.242 3.498 2.912zm10.908 4.992c-2.463-.492-5.53.81-6.845 2.908l-2.383 3.8 4.462.893c2.463.493 5.53-.81 6.845-2.907l2.383-3.8zm-3.862 8.638c-2.375-.82-5.588.058-7.175 1.96l-2.872 3.445 4.302 1.485c2.375.82 5.588-.058 7.173-1.96l2.873-3.445zm-4.573 9.333c-2.283-1.045-5.567-.48-7.328 1.26l-3.192 3.152 4.138 1.893c2.285 1.045 5.568.48 7.33-1.26l3.19-3.152zm-6.148 7.84c-2.245-1.125-5.547-.678-7.37 1l-3.3 3.037 4.068 2.038c2.247 1.125 5.547.678 7.37-1l3.3-3.035z"/><path d="M413.015 286.173c-1.973-1.553-5.298-1.778-7.42-.503l-3.843 2.312 3.575 2.817c1.975 1.553 5.298 1.778 7.42.502l3.843-2.312z"/></g><path d="M407.322 293.79c-1.533-1.62-4.688-2.093-7.045-1.058l-4.267 1.877 2.777 2.933c1.533 1.618 4.688 2.093 7.043 1.057l4.267-1.877-2.775-2.933zm-6.983 6.927c-1.338-1.782-4.42-2.61-6.878-1.85l-4.453 1.38 2.427 3.23c1.338 1.783 4.42 2.612 6.878 1.85l4.452-1.38-2.425-3.228zm-7.043 5.7c-1.46-1.683-4.593-2.295-6.992-1.362l-4.343 1.688 2.645 3.05c1.462 1.685 4.593 2.295 6.992 1.363l4.345-1.69z" class="D"/><path d="M386.508 250.233c-2.292-1.03-5.572-.443-7.322 1.308l-3.17 3.172 4.15 1.867c2.292 1.03 5.572.445 7.322-1.307l3.17-3.173z" class="B"/><path d="M341.293 288.81c-.908-2.037-3.727-3.532-6.293-3.338l-4.648.352 1.645 3.69c.907 2.035 3.725 3.532 6.292 3.337l4.648-.35z" class="D"/><path d="M336.707 276.813c.53 2.455-.727 5.542-2.805 6.887l-3.763 2.438-.96-4.448c-.53-2.455.727-5.54 2.805-6.887l3.765-2.438zm-7.985 3.243c.278 2.497-1.283 5.438-3.487 6.567l-3.993 2.047-.505-4.522c-.278-2.497 1.283-5.44 3.487-6.568l3.992-2.047zm15.745-6.995c.803 2.38-.095 5.587-2.008 7.16l-3.465 2.85-1.457-4.313c-.803-2.378.097-5.587 2.008-7.16l3.465-2.85zm7.49-5.165c.873 2.355.067 5.588-1.8 7.217l-3.378 2.947-1.583-4.267c-.872-2.355-.067-5.588 1.8-7.217l3.38-2.948 1.582 4.267zm6.935-5.335c.977 2.317.313 5.58-1.478 7.288l-3.247 3.095-1.768-4.193c-.977-2.315-.313-5.58 1.478-7.288l3.247-3.095zm6.595-6.125c1.283 2.16 1.077 5.483-.465 7.423l-2.79 3.512-2.328-3.912c-1.283-2.158-1.077-5.483.465-7.422l2.792-3.512zm5.937-6.85c1.547 1.978 1.758 5.303.475 7.42l-2.327 3.837-2.8-3.587c-1.548-1.98-1.76-5.305-.477-7.422l2.327-3.835 2.8 3.587zm5.565-6.652c1.523 1.997 1.7 5.323.39 7.427l-2.37 3.808-2.76-3.618c-1.523-1.997-1.698-5.325-.39-7.427l2.37-3.808zm14.198-.728c-2.368-.833-5.588.023-7.185 1.915l-2.895 3.427 4.292 1.513c2.37.833 5.588-.023 7.187-1.915l2.893-3.427zm-10.37 15.585c-2.132-1.328-5.46-1.19-7.43.31l-3.567 2.718 3.86 2.408c2.133 1.328 5.46 1.19 7.43-.312l3.568-2.717zm-6.54 8.078c-1.993-1.528-5.32-1.71-7.425-.407l-3.813 2.362 3.612 2.767c1.993 1.53 5.32 1.712 7.425.408l3.813-2.362-3.612-2.767zm-8.252 6.12c-1.938-1.6-5.255-1.9-7.405-.672l-3.897 2.225 3.512 2.895c1.938 1.598 5.257 1.898 7.407.67l3.895-2.223zm-7.908 6.943c-1.577-1.953-4.767-2.915-7.12-2.143l-4.262 1.395 2.857 3.542c1.578 1.955 4.767 2.917 7.122 2.147l4.262-1.397-2.857-3.542z" class="B"/><path d="M350.003 284.275c-1.133-1.92-4.103-3.085-6.632-2.6l-4.578.875 2.052 3.48c1.133 1.92 4.103 3.085 6.632 2.6l4.578-.877zm-17.732 7.967c-.82-2.072-3.573-3.685-6.145-3.6l-4.66.155 1.487 3.755c.822 2.073 3.575 3.687 6.147 3.6l4.658-.155z" class="D"/><path d="M319.693 282.767c.14 2.507-1.583 5.358-3.845 6.363l-4.1 1.822-.252-4.543c-.14-2.508 1.583-5.36 3.845-6.367l4.1-1.82.252 4.543z" class="B"/><path d="M312.825 297.768c-.412-2.19-2.808-4.298-5.35-4.703l-4.603-.733.745 3.97c.412 2.19 2.808 4.297 5.35 4.702l4.603.733-.745-3.967zm9.74-2.638c-.705-2.117-3.365-3.878-5.937-3.937l-4.662-.103 1.277 3.833c.705 2.115 3.365 3.877 5.937 3.933l4.662.105-1.277-3.833zm-18.982 2.892c-.567-2.155-3.11-4.083-5.675-4.303l-4.643-.397 1.03 3.903c.57 2.157 3.113 4.083 5.677 4.303l4.645.4z" class="D"/><path d="M311.188 284.905c-.067 2.512-2.017 5.212-4.353 6.028l-4.233 1.482.118-4.55c.067-2.512 2.017-5.212 4.353-6.03l4.233-1.48-.117 4.55z" class="B"/><path d="M302.427 286.233c-.07 2.378-2.158 4.938-4.662 5.713l-4.535 1.402.127-4.312c.07-2.378 2.158-4.938 4.663-5.713l4.533-1.402-.127 4.31z" class="H"/><path d="M380.868 235.462c1.91 1.633 2.778 4.85 1.942 7.178l-1.518 4.222-3.458-2.958c-1.908-1.633-2.778-4.85-1.94-7.178l1.517-4.222z" class="B"/><path d="M204.94 235.462c-1.91 1.633-2.778 4.85-1.942 7.178l1.518 4.222 3.458-2.958c1.908-1.633 2.778-4.85 1.94-7.178l-1.517-4.222zm-5.64 14.772c2.292-1.03 5.572-.443 7.322 1.308l3.17 3.172-4.15 1.867c-2.292 1.03-5.572.445-7.322-1.307l-3.17-3.173z" class="B"/><path d="M244.517 288.81c.907-2.037 3.725-3.532 6.292-3.338l4.648.352-1.645 3.69c-.907 2.035-3.725 3.532-6.292 3.337l-4.648-.35 1.643-3.69z" class="D"/><path d="M249.1 276.813c-.528 2.455.728 5.542 2.807 6.887l3.763 2.438.96-4.448c.53-2.455-.727-5.54-2.805-6.887l-3.765-2.438-.958 4.448zm7.988 3.243c-.28 2.497 1.283 5.438 3.487 6.567l3.992 2.047.505-4.522c.278-2.497-1.283-5.44-3.487-6.568l-3.992-2.047zm-15.747-6.995c-.803 2.38.097 5.587 2.008 7.16l3.465 2.85 1.457-4.313c.803-2.378-.097-5.587-2.008-7.16l-3.465-2.85zm-7.49-5.165c-.873 2.355-.067 5.588 1.8 7.217l3.378 2.947 1.583-4.267c.872-2.355.067-5.588-1.8-7.217l-3.38-2.948-1.582 4.267zm-6.935-5.335c-.977 2.317-.313 5.58 1.478 7.288l3.248 3.095 1.767-4.193c.977-2.315.313-5.58-1.478-7.288l-3.247-3.095zm-6.595-6.125c-1.283 2.16-1.077 5.483.465 7.423l2.79 3.512 2.328-3.912c1.283-2.158 1.077-5.483-.465-7.422l-2.79-3.512zm-5.937-6.85c-1.545 1.978-1.758 5.303-.475 7.42l2.327 3.837 2.8-3.587c1.548-1.98 1.762-5.305.477-7.422L217.188 246zm-5.565-6.652c-1.523 1.997-1.7 5.323-.39 7.427l2.37 3.808 2.76-3.618c1.523-1.997 1.7-5.325.39-7.427l-2.37-3.808zm-14.198-.728c2.368-.833 5.588.023 7.187 1.915l2.893 3.427-4.292 1.513c-2.37.833-5.588-.023-7.187-1.915l-2.893-3.427zm10.37 15.585c2.132-1.328 5.46-1.19 7.43.31l3.568 2.718-3.862 2.408c-2.133 1.328-5.46 1.19-7.43-.312l-3.568-2.717zm6.54 8.078c1.993-1.528 5.32-1.71 7.425-.407l3.813 2.362-3.612 2.767c-1.993 1.53-5.32 1.712-7.425.408l-3.813-2.362 3.612-2.767zm8.252 6.12c1.938-1.6 5.257-1.9 7.407-.672l3.895 2.225-3.512 2.895c-1.938 1.598-5.257 1.898-7.407.67l-3.895-2.223zm7.908 6.943c1.577-1.953 4.767-2.915 7.12-2.143l4.262 1.395-2.857 3.542c-1.578 1.955-4.767 2.917-7.12 2.147l-4.263-1.397 2.858-3.542z" class="B"/><path d="M235.807 284.275c1.133-1.92 4.103-3.085 6.63-2.6l4.578.875-2.052 3.48c-1.133 1.92-4.103 3.085-6.632 2.6l-4.578-.877zm17.73 7.967c.82-2.072 3.573-3.685 6.145-3.6l4.66.155-1.487 3.755c-.822 2.073-3.575 3.687-6.147 3.6l-4.658-.155z" class="D"/><path d="M266.115 282.767c-.14 2.507 1.583 5.358 3.845 6.363l4.1 1.822.253-4.543c.14-2.508-1.583-5.36-3.847-6.367l-4.1-1.82-.252 4.543z" class="B"/><path d="M272.983 297.768c.412-2.19 2.808-4.298 5.35-4.703l4.603-.733-.745 3.97c-.412 2.19-2.808 4.297-5.35 4.702l-4.603.733.745-3.967zm-9.74-2.638c.705-2.117 3.365-3.878 5.938-3.937l4.66-.103-1.277 3.833c-.705 2.115-3.365 3.877-5.937 3.933l-4.662.105 1.277-3.833zm18.98 2.892c.57-2.155 3.113-4.083 5.677-4.303l4.645-.397-1.033 3.903c-.567 2.157-3.11 4.083-5.675 4.303l-4.645.4 1.033-3.907z" class="D"/><path d="M274.62 284.905c.067 2.512 2.017 5.212 4.353 6.028l4.233 1.482-.117-4.55c-.067-2.512-2.017-5.212-4.355-6.03l-4.233-1.48.117 4.55z" class="B"/><path d="M283.382 286.233c.07 2.378 2.158 4.938 4.662 5.713l4.537 1.402-.128-4.312c-.07-2.378-2.158-4.938-4.662-5.713l-4.537-1.402.128 4.31z" class="H"/></g><g transform="scale(1.6666667)"><g stroke-width=".5" class="C"><path d="M91.126 128.967c-1.31.745-2.188 2.54-1.96 4.009l.415 2.659 2.374-1.35c1.31-.745 2.188-2.54 1.959-4.009l-.415-2.659zm-1.213-5.169c-1.334.701-2.27 2.467-2.09 3.942l.326 2.671 2.417-1.27c1.334-.702 2.27-2.467 2.09-3.942l-.326-2.672-2.417 1.27z"/><path d="M84.684 121.488c-.613 1.377-.254 3.343.8 4.39l1.912 1.894 1.11-2.494c.613-1.377.254-3.344-.8-4.39l-1.912-1.895zm-1.227 3.743c1.504.096 3.08 1.325 3.518 2.744l.794 2.572-2.725-.172c-1.505-.095-3.08-1.325-3.519-2.744l-.793-2.572zm.699 5.531c1.507-.03 3.18 1.062 3.735 2.44l1.006 2.497-2.73.056c-1.507.03-3.18-1.063-3.736-2.44l-1.005-2.497z"/></g><g stroke-width=".48" transform="matrix(1.08248 .06116 -.08447 .99905 -33.568 -98.307)"><use xlink:href="#B"/><use xlink:href="#C" class="G"/><use xlink:href="#D" class="F"/></g></g><g class="B"><path d="M292.887 310.64c-22.665 0-45.858 2.053-66.093 6.145l1.353 6.512c39.413-7.972 90.64-7.972 130.053 0l1.3-6.512c-20.233-4.092-43.948-6.145-66.613-6.145z" fill="#090"/><path d="M292.887 304.182c-23.085 0-46.788 2.238-67.395 6.302l1.3 6.563c40.183-7.923 92.477-7.923 132.658 0l1.25-6.563c-20.608-4.063-44.727-6.302-67.813-6.302z" fill="#bf0000"/><path d="M292.887 297.567c-23.787 0-47.573 2.027-68.802 6.042l1.25 6.51c41.462-7.842 93.695-7.842 135.157 0l1.197-6.51c-21.228-4.017-45.013-6.042-68.8-6.042z"/></g><g class="C"><g class="B"><path d="M193.147 290.012c-1.063 2.275-.527 5.563 1.198 7.338l3.125 3.217 1.928-4.122c1.063-2.275.527-5.563-1.198-7.338l-3.125-3.217zm7.13 6.255c-1.133 2.243-.697 5.547.975 7.373l3.027 3.31 2.052-4.062c1.133-2.242.695-5.545-.975-7.372l-3.027-3.31-2.052 4.062zm-13.342-12.537c-1.315 2.14-1.153 5.467.36 7.427l2.742 3.55 2.383-3.877c1.313-2.142 1.152-5.468-.362-7.428l-2.742-3.55z"/><path d="M181.297 277.317c-1.377 2.102-1.312 5.433.143 7.437l2.637 3.628 2.495-3.807c1.377-2.102 1.312-5.433-.143-7.435l-2.638-3.628-2.493 3.807zm-5.405-7.117c-1.467 2.04-1.55 5.37-.183 7.435l2.473 3.742 2.66-3.693c1.467-2.038 1.55-5.37.183-7.433l-2.473-3.742-2.66 3.693zm-4.693-7.662c-1.733 1.817-2.273 5.105-1.203 7.338l1.937 4.045 3.142-3.293c1.733-1.817 2.272-5.105 1.203-7.338l-1.938-4.045zm-4.572-7.795c-1.95 1.583-2.898 4.777-2.118 7.128l1.412 4.257 3.532-2.87c1.95-1.585 2.898-4.778 2.118-7.128l-1.412-4.258zm-3.942-7.727c-1.93 1.608-2.843 4.812-2.037 7.153l1.46 4.24 3.5-2.91c1.93-1.607 2.842-4.812 2.037-7.152l-1.462-4.242-3.498 2.912zm-10.907 4.992c2.463-.492 5.528.81 6.845 2.908l2.382 3.8-4.462.893c-2.463.493-5.53-.81-6.845-2.907l-2.383-3.8zm3.862 8.638c2.373-.82 5.587.058 7.173 1.96l2.872 3.445-4.302 1.485c-2.375.82-5.588-.058-7.173-1.96l-2.872-3.445 4.3-1.485zm4.572 9.333c2.283-1.045 5.567-.48 7.328 1.26l3.192 3.152-4.138 1.893c-2.283 1.045-5.568.48-7.33-1.26l-3.19-3.152zm6.148 7.84c2.247-1.125 5.547-.678 7.37 1l3.3 3.037-4.068 2.038c-2.245 1.125-5.547.678-7.37-1l-3.3-3.035z"/><path d="M172.793 286.173c1.975-1.553 5.298-1.778 7.42-.503l3.843 2.312-3.575 2.817c-1.973 1.553-5.298 1.778-7.42.502l-3.843-2.312z"/></g><path d="M178.487 293.79c1.533-1.62 4.688-2.093 7.045-1.058l4.267 1.877-2.777 2.933c-1.533 1.618-4.688 2.093-7.043 1.057l-4.267-1.877 2.775-2.933zm6.983 6.927c1.338-1.782 4.42-2.61 6.878-1.85l4.453 1.38-2.425 3.23c-1.34 1.783-4.422 2.612-6.878 1.85l-4.453-1.38 2.425-3.228zm7.043 5.7c1.46-1.683 4.593-2.295 6.992-1.362l4.345 1.688-2.647 3.05c-1.462 1.685-4.593 2.295-6.992 1.363l-4.345-1.69z" class="D"/></g><g class="B"><path d="M219.427 318.052c-11.282 2.522-23.008 5.675-33.177 9.167l2.188 6.25c9.708-3.333 20.99-6.317 31.822-8.75z" class="F"/><path d="M218.647 311.593c-11.718 2.567-23.768 5.86-34.323 9.427l2.135 6.302c10.103-3.413 21.687-6.575 32.968-9.062l-.782-6.667z" class="G"/><path d="M217.813 304.927c-12.448 2.652-24.483 5.843-35.678 9.532l2.083 6.302c10.763-3.545 22.39-6.647 34.427-9.218l-.833-6.615z"/><path d="M366.382 318.052c11.282 2.522 23.008 5.675 33.177 9.167l-2.187 6.25c-9.71-3.333-20.992-6.317-31.823-8.75z" class="F"/><path d="M367.163 311.593c11.717 2.567 23.767 5.86 34.322 9.427l-2.133 6.302c-10.105-3.413-21.688-6.575-32.97-9.062z" class="G"/><path d="M367.997 304.927c12.447 2.652 24.483 5.843 35.677 9.532l-2.083 6.302c-10.763-3.545-22.39-6.647-34.427-9.218z"/></g><g transform="scale(1.6666667)"><g stroke-width=".5" class="C"><path d="M260.36 128.967c1.31.745 2.187 2.54 1.959 4.009l-.415 2.659-2.373-1.35c-1.31-.745-2.188-2.54-1.96-4.009l.415-2.659 2.373 1.35zm1.212-5.169c1.334.701 2.27 2.467 2.09 3.942l-.326 2.671-2.417-1.27c-1.334-.702-2.27-2.467-2.09-3.942l.326-2.672 2.417 1.27z"/><path d="M266.801 121.488c.613 1.377.254 3.343-.8 4.39l-1.912 1.894-1.11-2.494c-.613-1.377-.254-3.344.801-4.39l1.911-1.895zm1.227 3.743c-1.504.095-3.08 1.325-3.518 2.744l-.793 2.572 2.725-.172c1.504-.095 3.08-1.325 3.518-2.744l.793-2.572zm-.698 5.531c-1.507-.03-3.18 1.062-3.736 2.44l-1.006 2.497 2.73.056c1.507.03 3.18-1.063 3.736-2.44l1.005-2.497-2.73-.056z"/></g><g stroke-width=".48" transform="matrix(-1.08248 .06116 .08447 .99905 385.054 -98.307)"><use xlink:href="#B"/><use xlink:href="#C" class="G"/><use xlink:href="#D" class="F"/></g></g><g class="C"><path d="M244.257 335.312c.763-2.095 3.47-3.783 6.043-3.772l4.662.025-1.382 3.795c-.762 2.095-3.468 3.783-6.042 3.772l-4.662-.025z" class="D"/><path d="M247.992 323.022c-.357 2.487 1.113 5.477 3.28 6.675l3.927 2.168.645-4.505c.357-2.487-1.113-5.477-3.28-6.673l-3.927-2.17zm8.193 2.677c-.103 2.51 1.662 5.335 3.938 6.308l4.125 1.76.188-4.547c.103-2.51-1.662-5.335-3.938-6.308l-4.127-1.762zm-16.197-5.875c-.635 2.43.487 5.567 2.505 7.002l3.655 2.6 1.15-4.403c.637-2.43-.485-5.567-2.503-7.002l-3.655-2.6-1.15 4.403z" class="B"/><path d="M235.252 331.397c.995-1.993 3.877-3.365 6.433-3.058l4.627.553-1.803 3.613c-.995 1.995-3.877 3.367-6.432 3.06l-4.628-.553zm18.245 6.707c.673-2.127 3.307-3.928 5.878-4.023l4.658-.172-1.22 3.85c-.673 2.127-3.307 3.928-5.878 4.023l-4.658.172z" class="D"/><path d="M265.38 327.767c.037 2.513 1.953 5.237 4.282 6.082l4.217 1.53-.067-4.55c-.033-2.512-1.953-5.237-4.28-6.082l-4.217-1.528.065 4.55z" class="B"/><path d="M273.283 342.253c.257-2.215 2.5-4.483 5.007-5.067l4.542-1.055-.467 4.013c-.257 2.213-2.5 4.483-5.007 5.067l-4.54 1.053.467-4.012zm-9.9-1.95c.553-2.16 3.083-4.105 5.645-4.342l4.643-.43-1.005 3.912c-.555 2.16-3.085 4.105-5.647 4.342l-4.642.43 1.003-3.912zm19.135 1.555c.417-2.19 2.818-4.29 5.36-4.69l4.607-.722-.757 3.967c-.417 2.19-2.817 4.292-5.36 4.69l-4.605.723.755-3.967z" class="D"/><path d="M274.015 329.307c.24 2.5 2.375 5.058 4.763 5.71l4.328 1.18-.437-4.53c-.242-2.5-2.377-5.058-4.767-5.71l-4.327-1.18z" class="B"/><path d="M282.847 330.017c.237 2.37 2.5 4.777 5.052 5.373l4.623 1.082-.43-4.292c-.237-2.368-2.5-4.777-5.05-5.373l-4.623-1.082z" class="H"/><path d="M341.55 335.312c-.762-2.095-3.468-3.783-6.042-3.772l-4.662.025 1.382 3.795c.762 2.095 3.47 3.783 6.042 3.772l4.662-.025-1.38-3.795z" class="D"/><path d="M337.817 323.022c.357 2.487-1.113 5.477-3.28 6.675l-3.927 2.168-.645-4.505c-.357-2.487 1.113-5.477 3.28-6.673l3.927-2.17zm-8.193 2.677c.103 2.51-1.662 5.335-3.938 6.308l-4.125 1.76-.187-4.547c-.103-2.51 1.66-5.335 3.937-6.308l4.127-1.762zm16.197-5.875c.635 2.43-.487 5.567-2.505 7.002l-3.655 2.6-1.15-4.403c-.637-2.43.485-5.567 2.503-7.002l3.655-2.6z" class="B"/><path d="M350.557 331.397c-.995-1.993-3.877-3.365-6.433-3.058l-4.627.553 1.803 3.613c.995 1.995 3.877 3.367 6.432 3.06l4.628-.553zm-18.245 6.707c-.673-2.127-3.307-3.928-5.878-4.023l-4.658-.172 1.22 3.85c.673 2.127 3.307 3.928 5.878 4.023l4.658.172z" class="D"/><path d="M320.428 327.767c-.035 2.513-1.953 5.237-4.282 6.082l-4.217 1.53.067-4.55c.035-2.512 1.953-5.237 4.28-6.082l4.217-1.528-.065 4.55z" class="B"/><path d="M312.525 342.253c-.257-2.215-2.5-4.483-5.007-5.067l-4.54-1.055.467 4.013c.255 2.213 2.498 4.483 5.005 5.067l4.54 1.053zm9.902-1.95c-.555-2.16-3.083-4.105-5.647-4.342l-4.642-.43 1.005 3.912c.553 2.16 3.083 4.105 5.647 4.342l4.642.43zm-19.137 1.555c-.417-2.19-2.817-4.29-5.36-4.69l-4.605-.722.755 3.967c.417 2.19 2.817 4.292 5.36 4.69l4.605.723-.755-3.967z" class="D"/><path d="M311.795 329.307c-.242 2.5-2.377 5.058-4.767 5.71l-4.327 1.18.438-4.53c.24-2.5 2.375-5.058 4.763-5.71l4.328-1.18z" class="B"/><path d="M302.962 330.017c-.237 2.37-2.5 4.777-5.052 5.373l-4.622 1.082.428-4.292c.237-2.368 2.5-4.777 5.05-5.373l4.623-1.082z" class="H"/></g><g class="B"><path d="M292.922 310.64c22.667 0 45.858 2.053 66.093 6.145l-1.353 6.512c-39.413-7.972-90.64-7.972-130.053 0l-1.3-6.512c20.233-4.092 43.948-6.145 66.613-6.145z" class="F"/><path d="M292.922 304.182c23.085 0 46.788 2.238 67.395 6.302l-1.3 6.563c-40.183-7.923-92.477-7.923-132.658 0l-1.25-6.563c20.608-4.063 44.728-6.302 67.813-6.302z" class="G"/><path d="M292.922 297.567c23.788 0 47.573 2.027 68.802 6.042l-1.25 6.51c-41.462-7.842-93.695-7.842-135.157 0l-1.197-6.51c21.228-4.017 45.013-6.042 68.802-6.042z"/></g></g><path d="M0 400h1200v200H0z" class="F"/></g><defs ><path id="B" d="M159.66 216.434c-12.836 1.43-24.186 7.179-34.87 14.282l1.93 4.01c10.263-6.823 23.026-12.758 34.863-14.076z"/><path id="C" d="M161.364 220.143c-12.823 1.428-24.06 7.404-34.716 14.488l1.644 3.72c10.291-6.844 23.432-12.86 35.283-14.18z"/><path id="D" d="M163.412 224.109c-12.8 1.426-24.428 7.114-35.046 14.174l1.8 3.922c10.328-6.868 23.643-13.11 35.516-14.433z"/></defs></svg>