<svg xmlns="http://www.w3.org/2000/svg" viewBox="0 0 800 600" xmlns:v="https://vecta.io/nano"><style><![CDATA[.AW{stroke:#000}.AX{fill:#fff}.AY{fill:none}.AZ{stroke-width:3.904}.Aa{stroke-opacity:.941}.Ab{stroke-width:2.413}.Ac{fill-rule:evenodd}.Ad{stroke-width:1.952}.Ae{stroke-linejoin:round}.Af{stroke-width:2.378}.Ag{stroke-width:2.41}.Ah{stroke-width:2.261}.Ai{stroke-width:2.292}.Aj{stroke-width:2.227}.Ak{stroke-width:2.271}.Al{stroke-width:2.375}.Am{stroke-width:2.249}.An{stroke-width:2.342}.Ao{stroke-width:2.255}.Ap{stroke-width:2.253}.Aq{stroke-width:3.209}.Ar{stroke-width:2.447}.As{stroke-width:2.499}.At{stroke-width:2.424}.Au{stroke-width:1.133}.Av{stroke-width:2.535}.Aw{stroke-width:2.464}.Ax{stroke-width:2.412}.Ay{stroke-width:2.377}.Az{stroke-width:2.575}.BA{stroke-width:2.404}.BB{stroke-width:2.576}.BC{stroke-width:4.223}.BD{stroke-width:4.186}.BE{stroke-width:1.894}.BF{stroke-width:2.151}.BG{stroke-width:1.98}]]></style><path d="M0 0h800v600H0z" class="AX Ac"/><g transform="matrix(.629156 0 0 .611461 -119.30974 52.06893)"><g class="AW AX AZ Aa"><path d="M1047.5 576.6s1.7 14-1.5 24.5-65.8 17.8-76.2 9.7c-10.3-8.1-8.6-26.1-8.6-26.1"/><path d="M960 551.7s-259.2 23.6-364.9-116.4c-34.6-45.8-50.3-106.3-47.3-162.7 6.2-114.4 86.3-192.4 86.3-192.4s-146.9 112.7-96.2 292.1c23.5 82.9 92.3 148.1 172.1 178.3 113.8 43 249.9 35 249.9 35s50.1-2 77.8-4.4c4.5-.4 7.4-1.5 10.3-5.1 2.3-2.8 2.3-7 2.1-10.7-.2-3.9-2.5-7.9-5.2-10.6-3.4-3.5-11.4-4.4-16.3-4.3l-68.6 1.2h0z" class="Ae"/></g><g class="AY AW AZ"><path d="M1019.9 550.7s2.1 9.3 2 14.8c-.1 8.9-4.3 15.1-4.3 15.1" class="Aa"/><path d="M961.3 584.9l-.7-33"/></g><path d="M935.5 568.1l25.7 16.1.8-30.8-26.5 14.7z" class="AW Aa Au"/><g class="AY AZ"><path d="M958.4,558.8l-17.4,9.6l17.4,11.2" stroke="#fff"/><path d="M987.8 553.1s2.1 9.3 2 14.8c-.1 8.9-4.3 15.1-4.3 15.1m26.9-26.9s1.3 6.6 1.3 10.4c0 6.2-2.8 10.6-2.8 10.6m28.5-21.2s1.3 6.6 1.3 10.4c0 6.2-2.8 10.6-2.8 10.6m-56.7-19.3s1.3 6.6 1.3 10.4c0 6.2-2.8 10.6-2.8 10.6" class="AW Aa"/></g><g class="AX Ac AW"><path d="M791.9 252c7.4-7.8 33-28.7 33-28.7s25.6 20.9 33 28.7c5.5 5.8 20.7 16.1 20.7 30.4v93.3H769.8v-93.3c0-14.3 16.6-24.6 22.1-30.4z" stroke-width="5.766"/><path d="M793.4 260.6c7.7-7 31.9-27.3 31.9-27.3l31.8 27.5c5.8 5.2 12.6 9.4 12.6 22.2v86.2h-91.2V283c.1-12.9 9.1-17.2 14.9-22.4z" stroke-width="4.238"/></g><g stroke-width="3.844" class="AY AW"><path d="M869 298.8l-34.3.1v12.5h-15.6v12.7l-15.4.2.1 12H869v-37.5z"/><path d="M819 324.2l50.2.2m-35.2-13l34 .2v-.2"/></g><g class="AX Ac Ae AW"><path d="M1090.1 311.9s1.3 39.2-21 29.6c-16.9-15.4 21-29.6 21-29.6h0z" class="Ag"/><path d="M1054.2 315.5s-12.8 33.6 8.9 36c18.8-5.4-8.9-36-8.9-36z" class="Ah"/><path d="M1088.6 339.5s-6.8 36-26.2 23.9c-13-16.7 26.2-23.9 26.2-23.9h0z" class="Ai"/><path d="M1047.3 334.8s-14.4 32.6 6.8 35.7c18.9-4.7-6.8-35.7-6.8-35.7z" class="Aj"/><path d="M1082.5 363.8s-14.7 35.3-32.6 19.4c-10.2-19.2 32.6-19.4 32.6-19.4z" class="Ab"/><path d="M1041.3 353.2s-20.4 29.6.7 36.4c20.2-1.2-.7-36.4-.7-36.4z" class="Ak"/><path d="M1073.9 385.3s-19.9 33.6-34.9 16.9c-7.1-19.6 34.9-16.9 34.9-16.9z" class="Al"/><path d="M1031.4 371.8s-22.5 27.8-2 35.8c20 .1 2-35.8 2-35.8z" class="Am"/><path d="M1061.3 405.9s-24.4 29.2-36.7 10.6c-4.1-20.1 36.7-10.6 36.7-10.6z" class="An"/><path d="M1020.2 387s-25.2 26.3-5.4 35.6c20.1 1.3 5.4-35.6 5.4-35.6h0z" class="Ao"/><path d="M1049.1 424.2s-26.2 25.5-36.4 6.6c-2-19.5 36.4-6.6 36.4-6.6z" class="Ap"/><path d="M626.7 190.1s-22.8 33.8 3.7 36.4c24.5-5.3-3.7-36.4-3.7-36.4z" class="Av"/><path d="M658.9 210.9s-6.4 35.9-28.3 27.3c-14.9-14 28.3-27.3 28.3-27.3z" class="Af"/><path d="M612.9 215.1s-13.4 35 11.7 33.9c21.6-8.3-11.7-33.9-11.7-33.9z" stroke-width="2.411"/><path d="M654.8 231.3s-4.2 35.8-26.1 28c-15.4-13.4 26.1-28 26.1-28z" stroke-width="2.343"/><path d="M605.4 239.5s-5.5 38.2 20.3 33.1c20.3-11.9-20.3-33.1-20.3-33.1z" stroke-width="2.539"/><path d="M650.4 250.4s3.1 36.1-20.7 31.6c-18.5-10.9 20.7-31.6 20.7-31.6z" stroke-width="2.389"/><path d="M601.7 262.6s.4 39.3 23.9 32.1c17.5-13.8-23.9-32.1-23.9-32.1h0z" class="As"/><path d="M649.5 271.6s6.1 35.6-17.8 32.5c-19.1-9.8 17.8-32.5 17.8-32.5z" stroke-width="2.366"/><path d="M602.3 286.8s7.1 37.7 29.1 27.4c14.9-15.6-29.1-27.4-29.1-27.4z" class="Aw"/><path d="M651.8 290.4s9.5 35.5-14.5 33.9c-19.8-8.6 14.5-33.9 14.5-33.9z" stroke-width="2.373"/><path d="M603.9 308.9s10.9 35.3 30.9 23.7c12.7-16.1-30.9-23.7-30.9-23.7z" stroke-width="2.37"/><path d="M588.8 173.4s-23.2 31.6.6 36.3c22.7-3.2-.6-36.3-.6-36.3z" class="Ag"/><path d="M616.4 196.6s-8.4 35-27.7 24.7c-12.5-15.1 27.7-24.7 27.7-24.7z" class="Ah"/><path d="M574.4 197s-14.7 33.6 8.1 34.5c20.2-6.4-8.1-34.5-8.1-34.5z" class="Ai"/><path d="M611.2 216.5s-6.5 35.1-25.8 25.6c-13-14.6 25.8-25.6 25.8-25.6z" class="Aj"/><path d="M565.7 220.5s-7.8 37.4 15.9 34.4c19.4-10.1-15.9-34.4-15.9-34.4z" class="Ab"/><path d="M605.7 235s.1 36-21.2 29.6c-15.9-12.3 21.2-29.6 21.2-29.6z" class="Ak"/><path d="M560.7 243.1s-2.6 39 19.3 33.7c16.8-12.2-19.3-33.7-19.3-33.7z" class="Al"/><path d="M603.4 256s2.9 35.7-18.6 30.7c-16.5-11.3 18.6-30.7 18.6-30.7z" class="Am"/><path d="M559.5 267.2s3.6 37.9 24.3 29.5c14.7-14.3-24.3-29.5-24.3-29.5z" class="An"/><path d="M604.1 274.8s6 35.9-15.6 32.4c-17.5-10.2 15.6-32.4 15.6-32.4z" class="Ao"/><path d="M559.2 289.2s7.2 35.8 26.3 26c12.7-14.9-26.3-26-26.3-26z" class="Ap"/><path d="M565.2 311.4s-1.3 39.2 21 29.6c17-15.5-21-29.6-21-29.6z" class="Ag"/><path d="M601.2 314.9s12.8 33.6-8.9 36c-18.8-5.3 8.9-36 8.9-36z" class="Ah"/><path d="M566.8 339s6.8 36 26.2 23.9c12.9-16.7-26.2-23.9-26.2-23.9h0z" class="Ai"/><path d="M608.1 334.3s14.4 32.6-6.8 35.7c-18.9-4.7 6.8-35.7 6.8-35.7z" class="Aj"/><path d="M572.9 363.3s14.7 35.3 32.6 19.4c10.2-19.3-32.6-19.4-32.6-19.4z" class="Ab"/><path d="M614.1 352.7s20.4 29.6-.7 36.4c-20.2-1.2.7-36.4.7-36.4z" class="Ak"/><path d="M581.5 384.7s19.9 33.6 34.9 16.9c7-19.5-34.9-16.9-34.9-16.9z" class="Al"/><path d="M624 371.3s22.5 27.8 2 35.8c-20.1 0-2-35.8-2-35.8z" class="Am"/><path d="M594 405.3s24.4 29.2 36.7 10.6c4.1-20-36.7-10.6-36.7-10.6z" class="An"/><path d="M635.1 386.4s25.2 26.3 5.4 35.6c-20.1 1.4-5.4-35.6-5.4-35.6h0z" class="Ao"/><path d="M606.3 423.6s26.2 25.5 36.4 6.6c2-19.4-36.4-6.6-36.4-6.6z" class="Ap"/><path d="M606.3 306.6s1.9 39.5 26.2 28.1c17.7-16.8-26.2-28.1-26.2-28.1z" stroke-width="2.571"/><path d="M647.1 307.4s17.3 32.8-6.9 36.9c-21.7-3.9 6.9-36.9 6.9-36.9h0z" class="Ax"/><path d="M610.4 334.3s10.8 35.7 31.5 22c13.2-17.8-31.5-22-31.5-22z" stroke-width="2.445"/><path d="M656.5 326.4s19.1 31.7-4.6 36.4c-21.7-3.3 4.6-36.4 4.6-36.4z" class="Ay"/><path d="M619.4 358.2s19.5 34.3 38.4 17c9.8-20.1-38.4-17-38.4-17z" class="Az"/><path d="M664.8 344.4s25.6 28.2 2.3 36.7c-22.7.3-2.3-36.7-2.3-36.7z" stroke-width="2.423"/><path d="M630.9 379.1s25.3 32.3 40.8 14.3c6.2-20.2-40.8-14.3-40.8-14.3h0z" stroke-width="2.534"/><path d="M677.6 362.3s27.8 26.3 5.4 35.9c-22.6 1.6-5.4-35.9-5.4-35.9z" stroke-width="2.399"/><path d="M646.8 398.8s30 27.5 42.3 7.8c2.9-20.4-42.3-7.8-42.3-7.8z" class="As"/><path d="M691.5 376.7s30.7 24.4 9.1 35.3c-22.5 3-9.1-35.3-9.1-35.3z" stroke-width="2.406"/><path d="M662.2 416.3s31.7 23.6 41.5 3.8c.6-19.7-41.5-3.8-41.5-3.8z" class="BA"/><path d="M1026.6 190.6s24.8 33.8-4 36.4c-26.7-5.3 4-36.4 4-36.4z" stroke-width="2.64"/><path d="M991.6 211.4s6.9 35.9 30.7 27.3c16.2-14-30.7-27.3-30.7-27.3z" stroke-width="2.477"/><path d="M1041.5 215.6s14.5 35-12.7 33.9c-23.4-8.3 12.7-33.9 12.7-33.9z" stroke-width="2.511"/><path d="M996.1 231.8s4.6 35.8 28.3 28c16.7-13.4-28.3-28-28.3-28h0z" stroke-width="2.44"/><path d="M1049.7 240s6 38.2-22 33.1c-22.1-11.9 22-33.1 22-33.1z" stroke-width="2.644"/><path d="M1000.9 251s-3.4 36.1 22.5 31.6c20-11-22.5-31.6-22.5-31.6z" stroke-width="2.488"/><path d="M1053.6 263.1s-.4 39.3-25.9 32.1c-18.9-13.8 25.9-32.1 25.9-32.1z" stroke-width="2.602"/><path d="M1001.8 272.2s-6.6 35.6 19.3 32.5c20.7-9.9-19.3-32.5-19.3-32.5z" class="Aw"/><path d="M1053 287.4s-7.7 37.7-31.6 27.4c-16.1-15.6 31.6-27.4 31.6-27.4z" stroke-width="2.566"/><path d="M999.3 291s-10.3 35.5 15.7 33.9c21.6-8.7-15.7-33.9-15.7-33.9z" stroke-width="2.471"/><path d="M1051.3 309.5s-11.8 35.3-33.6 23.7c-13.7-16.1 33.6-23.7 33.6-23.7z" stroke-width="2.468"/><path d="M1066.6 173.9s23.2 31.6-.6 36.3c-22.7-3.2.6-36.3.6-36.3z" class="Ag"/><path d="M1038.9 197.1s8.4 35 27.7 24.7c12.5-15-27.7-24.7-27.7-24.7z" class="Ah"/><path d="M1080.9 197.6s14.7 33.6-8.1 34.5c-20.1-6.5 8.1-34.5 8.1-34.5z" class="Ai"/><path d="M1044.2 217s6.5 35.1 25.8 25.6c12.9-14.5-25.8-25.6-25.8-25.6z" class="Aj"/><path d="M1089.6 221.1s7.8 37.4-15.9 34.4c-19.4-10.2 15.9-34.4 15.9-34.4z" class="Ab"/><path d="M1049.6 235.6s-.1 36 21.2 29.6c15.9-12.4-21.2-29.6-21.2-29.6z" class="Ak"/><path d="M1094.6 243.6s2.6 39-19.3 33.7c-16.8-12.2 19.3-33.7 19.3-33.7h0z" class="Al"/><path d="M1052 256.5s-2.9 35.7 18.6 30.7c16.5-11.3-18.6-30.7-18.6-30.7z" class="Am"/><path d="M1095.9 267.7s-3.6 37.9-24.3 29.5c-14.7-14.2 24.3-29.5 24.3-29.5z" class="An"/><path d="M1051.3 275.3s-6 35.9 15.6 32.4c17.4-10.2-15.6-32.4-15.6-32.4z" class="Ao"/><path d="M1096.1 289.7s-7.2 35.8-26.3 26c-12.6-14.9 26.3-26 26.3-26z" class="Ap"/><path d="M1050.1 307.2s-1.9 39.5-26.2 28.1c-17.8-16.8 26.2-28.1 26.2-28.1z" stroke-width="2.572"/><path d="M1009.2 308s-17.3 32.8 6.9 36.9c21.7-4-6.9-36.9-6.9-36.9z" class="Ax"/><path d="M1045.9 334.8s-10.8 35.7-31.5 22c-13.2-17.8 31.5-22 31.5-22z" stroke-width="2.446"/><path d="M999.8 326.9s-19.1 31.7 4.6 36.4c21.7-3.2-4.6-36.4-4.6-36.4z" class="Ay"/><path d="M1037 358.8s-19.6 34.3-38.4 17c-9.9-20.2 38.4-17 38.4-17z" class="Az"/><path d="M991.5 345s-25.6 28.2-2.3 36.7c22.7.2 2.3-36.7 2.3-36.7z" class="At"/><path d="M1025.4 379.7s-25.3 32.3-40.8 14.3c-6.2-20.2 40.8-14.3 40.8-14.3h0z" class="Av"/><path d="M978.7 362.9s-27.8 26.3-5.4 35.9c22.7 1.5 5.4-35.9 5.4-35.9z" stroke-width="2.4"/><path d="M1009.5 399.4s-30 27.5-42.3 7.8c-2.9-20.4 42.3-7.8 42.3-7.8z" class="As"/><path d="M964.8 377.2s-30.7 24.4-9.1 35.3c22.5 3 9.1-35.3 9.1-35.3z" stroke-width="2.407"/><path d="M994.1 416.8s-31.7 23.6-41.5 3.8c-.7-19.6 41.5-3.8 41.5-3.8z" class="BA"/><path d="M684.2 90s-50.7 14-34.7 33.3C670 134.5 684.2 90 684.2 90z" class="Aq"/><path d="M684.4 127.9s-28.8 25.6-40.8 6.3c-2.9-19.7 40.8-6.3 40.8-6.3z" class="Ab"/><path d="M644.5 105.5s-33.9 21-12.8 34.2c22.8 5.4 12.8-34.2 12.8-34.2z" class="Ar"/><path d="M667.7 142.3s-27 26.8-39.6 8.1c-3.7-19.6 39.6-8.1 39.6-8.1z" class="Af"/><path d="M622.3 121.1s-29.6 28.1-5.4 38.4c24.3 1.7 5.4-38.4 5.4-38.4z" class="BB"/><path d="M651.5 155.3s-21.2 31.2-37.6 14.1c-7.8-19.2 37.6-14.1 37.6-14.1z" class="At"/></g><path d="M624.1 122.7c16.9-21.5 32.1-31.3 52.3-48.8m7.3 16.4c11.3-9.5 22.2-16.6 35.9-23.4" class="AY AZ AW"/><path d="M664.4,96.6c11-11.6,21.8-20.6,35.8-29.5" class="AW AY BC"/><path d="M676.4,108.4c13.3-8.4,24.1-17.3,35.4-29.2" class="AW AY BD"/><path d="M672.9 125.1c11.4-5.5 19.6-11.3 28.9-19.5m-55.4 56.5c16.3-10.3 30.8-20 45.7-33.1" class="AZ AW AY"/><g class="AX Ac Ae AW"><path d="M656 155.6s-33.9 21-12.8 34.2c22.8 5.4 12.8-34.2 12.8-34.2z" class="Ar"/><path d="M695.7 140.1s-50.7 14-34.7 33.3c20.6 11.2 34.7-33.3 34.7-33.3z" class="Aq"/><path d="M696 178s-28.8 25.6-40.8 6.3c-3-19.8 40.8-6.3 40.8-6.3z" class="Ab"/><path d="M679.2 192.3s-27 26.8-39.6 8.1c-3.6-19.5 39.6-8.1 39.6-8.1z" class="Af"/></g><path d="M695.2,140.4c11.3-9.5,15.8-13.7,29.5-20.4" class="AW AY AZ"/><g class="AX Ac Ae AW"><path d="M970 88.9s50.7 14 34.7 33.3C984.2 133.4 970 88.9 970 88.9z" class="Aq"/><path d="M969.8 126.9s28.8 25.6 40.8 6.3c3-19.8-40.8-6.3-40.8-6.3z" class="Ab"/><path d="M1009.8 104.5s33.9 21 12.8 34.2c-22.9 5.3-12.8-34.2-12.8-34.2z" class="Ar"/><path d="M986.6 141.2s27 26.8 39.6 8.1c3.6-19.5-39.6-8.1-39.6-8.1h0z" class="Af"/><path d="M1032 120.1s29.6 28.1 5.4 38.4c-24.4 1.7-5.4-38.4-5.4-38.4z" class="BB"/><path d="M1002.8 154.3s21.2 31.2 37.6 14.1c7.7-19.3-37.6-14.1-37.6-14.1z" class="At"/></g><path d="M1030.2 121.6c-16.9-21.5-32.1-31.3-52.3-48.8m-7.3 16.4c-11.3-9.5-22.2-16.6-35.9-23.4" class="AY AZ AW"/><path d="M989.9,95.6c-11-11.6-21.8-20.6-35.8-29.5" class="AW AY BC"/><path d="M977.8,107.3c-13.3-8.4-24.1-17.3-35.4-29.2" class="AW AY BD"/><path d="M981.4 124.1c-11.4-5.5-19.6-11.3-28.9-19.5m55.4 56.4c-16.3-10.3-30.8-20-45.7-33.1" class="AZ AW AY"/><g class="AX Ac Ae AW"><path d="M998.3 154.6s33.9 21 12.8 34.2c-22.9 5.3-12.8-34.2-12.8-34.2z" class="Ar"/><path d="M958.5 139s50.7 14 34.7 33.3c-20.5 11.2-34.7-33.3-34.7-33.3z" class="Aq"/><path d="M958.3 177s28.8 25.6 40.8 6.3c2.9-19.8-40.8-6.3-40.8-6.3z" class="Ab"/><path d="M975.1 191.3s27 26.8 39.6 8.1c3.6-19.6-39.6-8.1-39.6-8.1z" class="Af"/></g><path d="M959.1,139.3c-11.3-9.5-16.3-12.7-30-19.4" class="AW AY AZ"/><g class="AX AW"><path d="M706.5 127.5c-5.6 13.5-7.7 19.6-7.9 31.6h-15.8c3.1 17.4 3.8 33.4-15.8 43.4.7 12.3 12.2 8.9 19.7 5.9 12.7-5.3 14-10.5 23.2-25.1 6.3-17.3 3.2-41-3.4-55.8zm-105.2 16.1c-12.4 6.6-14.3 10.4-16.7 19.4-2.3 11.4.6 21 8.8 32.2 30.9 36 45.9 33.4 57 56.1 2.8 8.9 4.8 15.5 2.2 27.4 11.7-3.4 17.2-8.3 23.7-19.4 4.5-13.6 4.2-23.3.7-35.8-22.3-35.2-23.9-14.5-75.7-79.9h0zm-42.6 143c-4.9 10.8-5.5 14.4-.8 27.1 5.8 12.7 9.8 16.6 33.8 25 38.7 7.1 47.6 5.8 73.5 11.5 11.7 3.8 13.3 4 21.1 12.3 2.6-13.1 2.6-16.3-.3-26.5-7.9-14.2-11.6-20.8-33.6-26.1-31.2-5-37.5-1.9-72-9.3-9.8-3.5-16.1-7.5-21.7-14h0zm387.5-159c5.6 13.5 7.7 19.6 7.9 31.6h15.8c-3.1 17.4-3.8 33.4 15.8 43.4-.7 12.3-12.2 8.9-19.7 5.9-12.7-5.3-14-10.5-23.2-25.1-6.3-17.4-3.2-41 3.4-55.8zm105.5 15.7c12.4 6.6 14.3 10.4 16.7 19.4 2.3 11.4-.6 21-8.8 32.2-30.9 36-45.9 33.4-57 56.1-2.8 8.9-4.8 15.5-2.2 27.4-11.7-3.4-17.2-8.3-23.7-19.4-4.5-13.6-4.2-23.3-.7-35.8 22.4-35.2 23.9-14.5 75.7-79.9zm42.7 143c4.9 10.8 5.5 14.4.8 27.1-5.8 12.7-9.8 16.6-33.8 25-38.7 7.1-47.6 5.8-73.5 11.5-11.7 3.8-13.3 4-21.1 12.3-2.6-13.1-2.6-16.3.3-26.5 7.9-14.2 11.6-20.8 33.6-26.1 31.2-5 37.5-1.9 72-9.3 9.9-3.4 16.1-7.5 21.7-14h0zM595.8 416.6c31 .7 42.9 0 64.5-15.2l15 18c7.6 1.8 12.7 3.6 20.3 7-.1 8-.4 9-5.9 14.3-14.4 11.1-28.6 15.6-54.1 13.6-19.2-9.7-28.5-19.3-39.8-37.7h0z" class="Ad"/><path d="M695.5 407.1c-8.1 3-14.2 7.2-18.8 12.3 8.6 2.2 12 3.6 18.9 6.4l-.1-18.7h0z" class="BE"/><path d="M1056.9 416.6c-33.5.7-43.2-1.4-64.5-15.2l-15 18c-7.6 1.8-13.3 3.2-21 6.6.1 8 1.1 9.4 6.6 14.6 14.4 11.1 28.6 15.6 54.1 13.6 19.2-9.5 28.5-19.1 39.8-37.6h0z" class="Ad"/><path d="M956.6 407c8.1 3 14.9 7.4 19.5 12.4-8.6 2.2-12.6 3.6-19.5 6.4-.1-5.9-.3-13.7 0-18.8z" class="BE"/><path d="M663.2 453.4l9.9 8.9-10.1 10.6 28.9 22.4 9.7-12.8 32.6 14.8-6 13.8 38.9 11.1 4.6-14.3L806 512v18.6l38.7-.1-.1-18.9 40.3-3.3 6.5 16.5 34.2-11.6-6.3-16.6 33.4-14.8 9.8 12 28.6-19.7-9.9-13.8 9.3-6.5c-14.3-4.6-25.1-7.7-34.5-22.7l.5-24.8c-8.2-4.6-11.1-6-20.5-9.9-12.3 11.7-18.2 14.8-30.1 21.9-17.8 8.6-27 12.6-45.6 17.3-30.1 4.5-37.7 4.4-63.6 1-18.8-3.9-26.3-5.7-42.4-13.3-20.2-10.7-26.6-14.7-39.2-26-8.2 2.8-12.3 5.2-19.6 9.3l.1 26.6c-9 12.6-18.7 16.2-32.4 20.2h0z" class="Ad"/></g><path d="M824.9 82.6l.7-69.8m-13.4 71.8L785.9 20m49.2 64.3l26.3-64.6m-58.7 68.5l-46.9-51.6m89.9 52.7l46.9-51.6m-100.3 60l-63.9-28.1m128 27.5l61.8-32.5" stroke-width="3.965" class="AY AW"/><ellipse cx="825.3" cy="105.6" rx="23.9" ry="23.3" stroke-width="1.993" class="AW AX Aa"/><g class="AZ AW"><path d="M809.9 38.7l5.6 29.6m22.6-30.1l-5.6 29.6M784 51.5l17.5 24.6m62.8-26.3l-17.5 24.6M767 71.7l24.5 17.6m90.9-20.4L858 86.5" class="AY"/><path d="M761.3 100.4l-24.7 82.3 88.2 19.2 83.8-22.7-15.3-79.4-68.2 10.2-63.8-9.6z" class="AX"/></g><path d="M735.6 182l89.5 18.3 85.3-21.8-6.6 14.7-70.7 23.5v9.9l-14.5-.3-.2-9.5-74.4-23.6-8.4-11.2z" stroke-width="9.07" class="AW AX"/><g class="Ad AW"><path d="M741.1 194.6l-43.4 15.8v15.8l81.8-18.7-38.4-12.9z" class="AX"/><path d="M697.3 226.2l25.8-11.2 51.9-7-54.4 18.8-23.3-.6z"/></g><path d="M765 113.4c19.8-.9 31-.2 51.3 3.9l1.1 71.8c-28.5-13.6-39.9-16.2-67.8-19.3l15.4-56.4z" class="AW AX BF"/><path d="M825.1 110l-.2 90.5" class="AW AY AZ"/><path d="M779.5 208.4l-90.7 50.3v19.7L817 230.1v-10.8l-37.5-10.9z" class="AW AX Ad"/><path d="M816.1 229l-84.3 27-43.6 22.4 28.1.4 20-16 79.8-33.8z" class="AW BG"/><path d="M908.4 194.5l43.4 15.8V226L870 207.3l38.4-12.8zM870 208.3l90.7 50.3v19.7L832.5 230v-10.8l37.5-10.9z" class="AX Ad AW"/><path d="M952.2 226.1L926.4 215l-51.9-7 54.4 18.8 23.3-.7z" class="AW Ad"/><path d="M833.3 228.9l84.3 27 43.6 22.4-28.1.4-20-16-79.8-33.8z" class="AW BG"/><g class="AX AW"><path d="M885.2 113.5c-19.8-.9-31-.2-51.3 3.9l-1.1 71.8c28.5-13.6 39.9-16.2 67.8-19.3l-15.4-56.4z" class="BF"/><g class="AZ Aa"><path d="M602.6 576.6s-1.7 14 1.5 24.5 65.8 17.8 76.2 9.7 8.6-26.1 8.6-26.1"/><path d="M690.4 550.7s259.2 23.6 364.9-116.4c34.6-45.8 54.4-100.2 48.8-164.8-9.7-112.1-83.1-189.3-83.1-189.3s142.2 111.8 91.4 291.1c-23.5 82.9-92.3 148.1-172.1 178.3-113.8 43-249.9 35-249.9 35s-50.1-2-77.8-4.4c-4.5-.4-7.4-1.5-10.3-5.1-2.3-2.8-2.3-7-2.1-10.7.2-3.9 2.5-7.9 5.2-10.6 3.4-3.5 11.4-4.4 16.3-4.3l68.7 1.2h0z" class="Ae"/></g></g><g class="AY AW AZ"><path d="M630.5 549.8s-2.1 9.3-2 14.8c.1 8.9 4.3 15.1 4.3 15.1" class="Aa"/><path d="M689.1 584l.7-33"/></g><path d="M714.9 567.2l-25.7 16.1-.8-30.8 26.5 14.7z" class="AW Aa Au"/><g class="AY AZ"><path d="M692,557.8l17.4,9.6L692,578.6" stroke="#fff"/><path d="M662.6 552.2s-2.1 9.3-2 14.8c.1 8.9 4.3 15.1 4.3 15.1M638 555.2s-1.3 6.6-1.3 10.4c0 6.2 2.8 10.6 2.8 10.6M611 555s-1.3 6.6-1.3 10.4c0 6.2 2.8 10.6 2.8 10.6m56.7-19.3s-1.3 6.6-1.3 10.4c0 6.2 2.8 10.6 2.8 10.6" class="AW Aa"/></g><g fill="#1f1a17"><path d="M879.096 128.532c-17.676-.402-20.488-5.222-23.702-5.222-4.419 0-1.205 9.641-.402 12.052-4.419.402-9.24 5.624-10.847 5.624-2.41-.402-2.41-2.009-2.41-5.624 0-2.009.402-4.017.402-6.026-.803 0-1.607 1.205-2.41 1.205-.402 1.607-1.205 4.821-.803 8.035.402 5.624 2.009 8.035 5.222 8.035 2.812 0 8.436-6.026 10.847-6.026 2.812 0 4.017.803 5.624 2.812 1.607-.803 2.812-2.009 3.616-3.214-2.009-2.812-5.624-6.428-6.428-10.043 6.428 3.214 24.104 4.419 25.711 3.214.803-1.607.803-11.65-.402-17.274-2.009-.402-3.616 2.009-4.821 2.812.402 3.616 1.205 6.428.803 9.641zm-.803 8.034c.803 7.231 2.41 14.462 4.419 21.292.803 1.205 2.41 2.009 4.017 2.812.803-2.009 1.205-3.616.402-5.624-3.214.402-4.419-7.231-4.821-12.454.803.402 2.812 2.009 4.017 1.607-.803-3.616-2.812-6.428-5.624-8.838l-2.41 1.205h0zm-2.41 7.231c-.803 1.607-1.205 3.214-2.009 4.821 2.009 1.607 2.812 4.017 3.616 6.026.402 2.812-1.205 4.419-3.214 5.222-3.214-1.205-5.222-2.812-6.026-5.624-1.205-3.616-2.009-6.829-2.009-11.248-.803 1.205-2.41 2.41-3.214 3.214-.803 3.214 0 5.624.803 8.838.402 2.812-.402 4.419-2.812 5.222-3.214 0-4.419-1.607-5.222-4.017-.402-2.812-.803-5.222-1.607-7.231-2.41 0-4.419 3.214-5.624 8.436-.402 2.41-1.607 5.624-4.017 5.624-1.607 0-3.214-3.214-3.616-5.624-.803-2.41-.402-4.821 0-6.829-.803.402-2.009.803-2.812 1.205-1.205 3.616-.803 6.428-.803 9.24.803 5.222 2.41 7.231 6.428 8.838 2.41-.402 4.821 0 6.428-4.419l1.205-6.026c.803 3.616 4.017 6.428 8.838 7.231 3.214-.402 4.821-1.205 6.829-4.419 1.205 2.009 3.616 3.616 6.026 3.214 3.214-.803 5.624-2.812 6.026-7.231 1.205-6.428-.402-12.052-3.214-14.462h0zm-62.177-19.105c-1.141 0-2.282 1.141-3.043 2.282.38 6.086.38 12.552-.761 17.877 1.521-.38 2.282-1.521 3.423-3.043.761-5.705 1.141-11.791.38-17.116h0zm-9.508 6.466c-.761 0-1.902 1.141-3.043 2.662 1.141 3.423 1.902 7.607 1.141 9.509-3.043 0-5.325-1.902-7.607-1.141-1.902.38-4.945 4.184-5.325 4.184-1.902 0-1.902-3.423-1.521-5.325-1.141.38-.761.38-1.521.761-.38 1.521-.761 3.423-.38 5.325 0 1.521 1.141 3.043 3.423 3.043 2.662 0 3.804-4.184 5.705-4.184 2.662 0 4.945 1.521 9.129 1.521 1.141 0 1.902-3.804 1.902-5.325 0-4.184-1.141-7.607-1.902-11.03h0z"/><path d="M788.223 133.82c.761-3.043 3.804-6.086 5.705-5.705 3.423 0 6.086 1.521 9.509 2.662-1.521.761-1.521 1.521-2.662 2.662-5.325.761-9.509 3.043-10.27 5.325.38.761.38.38 3.043 3.423-1.521 1.141-2.282 1.521-3.423 2.662-1.141-.761-5.325-4.184-7.227-6.086-.38 3.043-7.607 10.27-11.791 9.889-5.325 0-6.846-4.184-6.466-8.748.38-2.282 1.902-4.564 2.662-6.086 1.141-.38.761-.38 1.902-.761-.761 2.282-1.521 4.184-1.521 5.705 0 2.662 2.662 5.325 5.325 4.945 4.184-.761 7.227-3.043 7.227-7.227 0-1.902-2.282-4.564-2.662-6.086l3.423-3.423c1.902 3.804 2.662 5.325 3.043 6.846.38 2.282 2.282 4.564 3.043 4.945 1.902-3.043 6.086-4.564 11.03-5.325-1.141-.761-2.662-1.902-3.804-1.902-2.282-1.141-4.184 1.902-6.086 2.282h0zm-13.693-14.453l4.184 4.184-3.423 3.423-4.184-4.184 3.423-3.423zm21.3-2.282c1.521.761 3.423 3.043 3.423 4.564.38 1.141-.38 3.043-1.902 3.423-1.521 0-2.662-.38-3.804-.761-1.141.761-1.902 1.902-3.043 1.902-1.902.38-3.423-1.141-3.804-3.043 0-1.521.38-3.043 1.141-4.564.761 1.141 1.141 3.423 2.662 3.804s1.902-1.902 2.282-3.043c.761.761 1.521 1.902 2.662 2.662.38.38 1.141 0 1.141-.38.38-.761-.761-3.804-.761-4.564h0zm11.03 32.33c-1.141 1.141-2.282 3.423-3.043 4.184.761 4.945 2.662 8.368 1.521 13.312-1.902 2.282-5.325 4.184-7.607 4.184 0 1.141 3.043 1.902 6.086.761 2.282-.38 3.804-2.282 4.564-4.945.761-4.184-.761-6.466-1.141-11.03 1.141 1.141 1.141 1.141 3.043 1.521-.761-2.282-2.662-5.705-3.423-7.987h0zm-5.325 1.521c-.761 0-2.282 1.521-3.423 2.662 1.141 3.423 1.141 8.368.761 10.27-3.423.761-5.705-.761-8.368-.761-1.902 0-8.368 5.325-9.509 5.325-1.902 0-1.902-3.423-1.521-5.325-.761.38-.38.38-1.521.761-.38 1.902-.38 3.804-.38 5.325 0 1.141 1.141 2.662 3.804 3.043 2.282 0 6.086-5.705 8.748-5.325s5.705 1.141 10.27.761c1.141 0 2.282-3.804 2.282-5.705 0-3.804-.38-7.607-1.141-11.03h0zm-18.637 6.086c.761-1.902 4.564-4.945 7.227-4.564 3.043.38 5.325 3.423 7.987 4.945-.38 1.521-1.521 1.902-2.282 3.423-5.325-.38-10.27 1.521-14.834 2.282-2.282.38-5.325-5.705-7.987-7.227-2.282 1.521-.38 5.325.38 5.325 1.141.761 2.662 1.902 4.184 2.662-1.141 1.141-2.282 2.282-3.043 3.804-3.423-1.141-6.086-4.184-9.509-4.184-3.043-.38-5.325 3.804-7.987 3.423-2.282-.761-2.662-2.282-3.043-4.564s.761-4.564 1.902-6.086c.761-.38 1.141-.761 1.902-1.141-.38 1.902-1.141 3.804-1.141 5.325 0 .761.761 2.282 1.521 1.902 2.662 0 3.804-1.902 6.086-2.662 1.521 0 4.184.38 5.325.761-.761-3.043-1.141-2.282-.761-5.325.38-2.662 3.804-4.564 5.705-4.945 1.141 1.141 1.902 9.509 7.227 8.748 4.184-.38 7.987-1.141 11.411-.761-1.141-.761-2.282-1.902-3.804-2.282-1.902-.38-4.945.761-6.466 1.141h0zm102.458 241.442c-4.955.45-8.469 8.74-8.83 14.146 0 3.964 5.046 7.929 9.01 7.568 4.325 0 9.821-4.775 9.46-9.1 0-4.685-4.685-12.254-8.65-12.614a1.85 1.85 0 0 0-.991 0h0zm-.18 6.307c.36 0 .811 0 1.171.09 1.802.721 3.964 4.415 3.604 6.577-.36 1.802-2.252 3.153-4.415 3.153-1.442 0-4.325-1.351-4.685-3.153-.631-2.433 1.532-6.397 4.325-6.667zm-46.312-8.199c-5.136.27-7.658 7.298-8.019 12.794 0 3.964 4.325 7.568 8.379 7.568 4.325-.36 9.01-3.964 8.65-8.379 0-4.685-4.415-11.623-8.019-11.983-.36-.09-.631 0-.991 0h0zm-.27 5.676c.36 0 .811 0 1.171.09 1.802.721 3.964 4.775 3.604 6.577s-2.072 3.153-4.325 3.153c-1.442 0-4.325-1.351-4.685-3.153-.541-2.433 1.532-6.397 4.235-6.667h0zm21.984 16.128c1.442.721 2.883 1.802 4.325 2.883-1.081 2.523-2.883 5.046-5.406 6.848-.721-.36-1.442-.721-2.523-1.081 1.802-2.883 3.244-5.766 3.604-8.65h0zm-15.947-.36c1.442 1.081 2.883 2.162 4.325 2.883-1.081 2.883-2.883 5.046-5.406 7.298l-2.162-1.081c1.802-2.973 2.883-5.856 3.244-9.1zm25.318-26.129c-2.162.721-3.604 3.604-5.046 6.848 1.081 1.802 2.883 1.802 4.325 2.523 1.081 6.127.36 14.506 0 20.272 1.802-1.442 3.604-4.325 3.964-6.487 1.081-7.298 1.081-14.146.36-21.444-1.351-1.351-2.433-1.351-3.604-1.712zm-14.506-.361c-2.162.721-3.604 3.244-5.046 6.848 1.081 1.802 2.883 1.802 4.325 2.523 1.081 5.766.36 14.506-.36 20.272 2.162-1.442 3.964-4.325 4.325-6.487.721-7.298 1.081-14.506 0-21.444-.991-1.712-2.072-1.351-3.244-1.712h0zm-28.292.721c-1.081 1.081-2.883 1.802-3.964 3.244.721 8.379.721 18.11.721 25.048 1.802-1.442 3.244-3.964 3.244-6.487.36-6.938.721-14.866 0-21.804zm-13.064.36c1.442.721 2.162 2.523 2.523 3.964-1.442 1.081-3.604 3.244-2.523 4.685 1.081 1.802 2.523 3.244 3.964 4.685-.36.721-.36 1.081-.721 1.802-1.442 1.442-3.964 2.883-3.604 5.046.36 2.883 3.244 4.325 5.046 6.848-1.081.36-1.081.721-1.802 1.442-2.883-1.802-6.487-3.604-7.658-6.848-.721-2.162 1.081-4.685 1.802-7.298-1.081-1.802-3.244-3.244-3.244-5.406.09-3.063 4.054-6.757 6.217-8.92h0zm-14.146 3.604c2.162 1.802 4.325 4.325 5.766 6.848-.36 1.081-1.442 2.162-2.162 3.244 0 4.685.36 9.1-.721 13.425-.36 1.442-1.442 2.523-2.883 3.964.36-7.298 1.081-14.506-.36-21.444-.36-1.442-1.442-2.523-1.802-3.604.36-.901 1.081-2.072 2.162-2.433h0zm-17.479 7.569c-.901.18-.631 1.892-.631 2.162-.36.721-3.153 2.162-3.153 3.604 0 2.162 2.523 3.964 3.964 5.046-2.162 2.523-4.685 4.054-7.298 6.307 1.442-.721 2.162 0 4.685-.811 1.081-.36 4.685-2.523 5.406-3.604 1.081.721 3.334 1.802 5.136 1.442 2.523-.36 5.406-2.162 4.325-4.685-1.802-4.325-7.298-8.379-11.983-9.46h-.45 0zm2.072 4.685c.541.09 1.081.27 1.622.541-1.081 1.802-1.442 2.883-2.162 3.964-1.081-.36-2.072-1.081-3.153-2.162.811-1.982 2.162-2.613 3.694-2.343h0zm5.316 3.334c1.081.721 1.892 1.802 1.892 3.604-1.081.721-3.244.721-4.685 0 .991-.991 2.072-1.712 2.793-3.604zm-23.967-8.65c-.36-1.442 1.081-4.325 3.244-3.964 3.244 0 5.046 3.964 4.685 7.298-.721 5.406-6.487 14.506-13.064 13.785-5.046-.36-5.406-5.406-5.046-10.542.36-1.442 1.442-5.406 3.604-8.019l.721.36c-1.081 2.523-2.523 4.685-2.162 8.019.36 3.604 2.883 7.298 6.487 5.766 3.964-1.802 8.74-6.848 7.658-10.181-1.442-1.802-5.406 0-6.127-2.523zm5.046-11.623l3.604 3.244-2.523 2.523-3.244-3.244 2.162-2.523z"/><path d="M765.523 391.166l3.244 2.883-2.162 2.523-3.604-3.244 2.523-2.162zm167.464 47.77c1.863 1.118 4.472 1.491 6.707 2.608 9.688 3.726 24.594 6.335 23.476 12.297-3.354 16.768-14.533 26.83-19.377 27.202-4.099.373-5.589-.745-6.707-2.981-1.118-1.863-.373-4.099 0-5.217 1.491 1.491 3.726 2.236 5.589.745 7.08-5.589 12.669-14.16 13.042-17.514 0-5.589-16.023-6.707-24.594-10.806-.745-2.981 0-4.844 1.863-6.335zm-20.122-9.688c7.825 9.316 13.042 15.651 19.377 27.202.373 5.217-.373 10.806-2.608 12.297-.745-2.981 1.118-6.707-.745-10.061-2.608-4.472-6.335-10.434-10.061-14.16-1.118-.373-.373 4.472-3.354 7.825-2.981-11.552-5.589-21.985-2.608-23.103zm-19.75 61.857c5.589 0 9.316-2.236 12.297-6.335.745.373 1.863 1.863 7.08 2.236 7.453.745 14.905-13.042 13.042-20.122-1.491-4.844-5.217-10.061-10.434-10.061-2.608.373-4.472 5.589-4.472 8.571 0 4.472 2.236 7.08 5.589 6.335 4.472-1.491 5.962-.745 5.962.373-1.863 5.589-6.335 10.434-14.905 8.571 1.118-1.863 1.863-4.844 1.491-7.453 0-1.491-3.726-7.08-10.806-4.472-3.354 2.981-3.726 8.198-3.726 8.571.745 2.236 1.118 4.099 5.962 5.962-.745 1.491-2.236 2.236-8.198 1.863-8.943-6.707-7.453-20.122-11.179-29.811-1.491-2.236-2.981-4.472-4.844-5.589-.373 3.726 0 7.08-.745 10.061 4.472 6.335 5.589 13.042 7.453 20.122 2.236 7.08 5.217 11.179 10.434 11.179zm7.825-18.259c1.863-.373 2.981-.373 4.472 2.236 0 2.236-.373 3.354-2.236 4.844-2.608-.745-3.726-1.118-5.589-2.981 1.118-1.863 1.118-2.981 3.354-4.099zm4.472-27.575l6.335 2.981-2.236 5.589-6.707-3.354 2.608-5.217zm-8.571 7.825l6.335 2.981-1.863 5.589-7.08-3.354 2.608-5.217z"/><path d="M892.37 455.332l6.335 2.981-2.236 5.589-6.707-3.354 2.608-5.217zm8.198-18.632c-.373 2.236-2.236 6.335-3.726 7.825-4.099 4.844-7.453 6.335-12.669 10.434 0-2.236 1.491-5.962 2.608-7.453 4.472-4.844 8.198-6.707 13.787-10.806zm-44.716 19.377l5.962 2.608-1.863 5.589-7.08-2.981 2.981-5.217zm-108.809-32.419l1.118 6.707-5.962 1.491-1.118-7.453 5.962-.745z"/><path d="M741.454 420.305l.745 6.707-5.962 1.491-.745-7.825 5.962-.373zm122.968 57.385l6.335 2.608-2.236 5.589-6.707-2.981 2.608-5.217zm-10.433 2.981l6.335 2.608-2.236 5.589-6.707-2.981 2.608-5.217z"/><path d="M846.909 481.789l5.962 2.981-1.863 5.589-7.08-3.354 2.981-5.217zm29.81-11.552c.373-2.981 1.491-5.217 2.608-7.453 2.236 4.472 5.217 8.943 5.217 13.787 0 4.472-2.236 11.179-4.099 11.924-1.491 6.707-1.863 5.962-4.844 8.943-1.863 1.491-3.726 1.491-5.962 1.118-1.118.373 1.863.745-4.472 5.217-1.118.373-3.354 1.863-5.589 1.118-1.863 1.491-3.354 2.608-5.589 2.981s-4.472-1.863-5.589-3.354c-.745 1.863-3.354 5.962-6.335 5.962-3.726.373-7.453-13.415-8.198-22.358-.373-8.198-1.118-15.278-2.608-22.358 1.118-2.236 2.236-3.726 4.099-4.844 1.118 13.787 2.981 40.244 7.08 40.617s4.099-3.354 4.844-4.844c1.118-.745 1.863-1.491 2.981-1.863 1.118 1.491 1.863 5.962 4.099 5.589 2.981-.745 2.608-5.217 2.608-7.825.745-.373 1.491-1.118 2.608-1.863 1.118 1.491 2.608 4.472 4.472 4.472 2.608.373 3.354-2.981 2.981-5.589.373-.745.745-1.491 1.118-1.863 1.863 1.863 3.354 2.236 5.217 2.608 2.236-.745 1.491-4.844.745-8.198.373-.745.745-1.491 1.491-2.236 1.118 1.491 2.236 4.099 4.472 1.491.745-4.472-.745-8.198-3.354-11.179zm-9.316-23.848c2.981 3.726 4.472 5.962 4.472 10.806 1.118 18.632-15.278 21.24-18.259 21.24-6.707 0-10.434-5.217-10.434-11.179 0-5.589 2.981-10.806 4.844-14.905 1.491-.745 1.863-1.491 2.608-1.118-2.608 5.589-3.354 8.198-3.726 13.042 0 4.844 4.472 9.316 8.943 8.943 6.707-.373 13.042-4.099 12.669-11.924 0-5.217-1.491-7.825-4.099-12.297.373-.745 2.236-2.236 2.981-2.608zm-38.753 62.229c-4.844-.745-10.434-3.354-15.651-3.354-1.863 0-4.844 2.236-6.707 3.354 5.589 1.118 11.179 3.726 16.768 3.726 1.863 0 4.099-2.608 5.589-3.726zm-81.979-52.541c-4.844-.745-11.179-.745-16.023-.745-2.236 0-4.844 2.236-6.707 3.354 5.217 1.118 10.434 1.118 16.023 1.118 1.863 0 5.589-2.236 6.707-3.726zm71.172 5.59c-1.118 1.863-1.491 5.217-2.981 6.335-2.236 1.118-4.844 0-7.08 1.491l-5.217 4.099c-1.863 1.118-4.099 2.236-5.962 1.863 3.726-3.354 7.08-7.08 8.571-10.061 1.491-2.608 6.707-1.118 7.825-1.863 1.491-.745 3.354-1.118 4.844-1.863zm-17.886-6.708c1.863-1.491 10.061-4.099 10.806.745 0 1.863-2.608 6.335-4.472 7.08-3.726 1.491-5.589 1.491-8.571 2.608 2.608-2.236 7.08-4.844 8.571-7.453 1.491-3.354-5.589-2.236-6.335-2.981zm26.084-3.726c-3.726 3.726-5.962 7.453-5.589 11.552 1.491 9.688 1.491 19.377 1.118 29.438 2.236-2.608 3.726-5.217 4.099-8.571.745-7.453.373-14.533.373-22.358 1.118-.373 2.608-1.491 4.099-2.236-4.099-4.099-1.863-5.962-4.099-7.825z"/><path d="M820.079 484.025c-1.118 1.118-1.491 2.236-2.608 3.354 1.863 4.099-2.236 8.198-8.571 7.453 1.491-3.726 1.491-6.335 1.118-9.688-1.118.745-2.236 1.863-3.726 2.608.745 4.472-1.491 6.707-6.335 6.335.373-1.863 3.354-5.217.745-10.061-.373 1.118-.745.745-2.608 1.491-1.118 1.863-2.236 3.726-5.589 1.491 1.491-9.316 1.863-19.377 1.118-28.32-1.491.745-2.608 1.863-4.099 2.981 1.118 8.571.745 17.141-1.118 25.712-1.118-11.552-2.981-22.731-6.335-33.164-1.863 1.491-3.354 3.726-4.844 6.707 1.118 4.099 2.608 6.707 2.981 9.316.373 0 1.118-1.863 1.491-1.863a35.97 35.97 0 0 1 4.099 20.122c-3.726 4.844-13.042 5.217-19.749 4.844 1.118 2.236 3.726 6.707 8.943 6.335 8.198-.373 11.179-5.589 13.787-10.061 1.118 3.726 1.118 7.08 5.589 7.453 1.863 0 1.863-.373 2.981-.745.373 1.118 3.354 2.981 4.844 2.981 2.236.373 4.472-1.118 4.844-1.118.745 0 2.236 1.863 5.589 1.863 1.491-.373 8.198-2.236 8.943-8.571.745-5.217-.745-4.844-1.491-7.453zm-52.168-18.632c3.354 1.863 5.962 5.589 6.707 9.316 0 1.491-4.099 2.981-5.589 2.981-2.981.373-4.472-1.118-7.08-1.863.373 5.589 4.099 8.571 2.236 13.787-2.236 7.453-18.259 9.316-25.712 6.335-5.589-2.608-7.08-11.552-5.589-17.514s6.335-8.198 10.434-10.434c.745.745 1.118.745 1.863 1.491-2.981 2.236-7.08 5.589-7.453 8.943 0 4.472 1.118 10.061 4.472 11.924 4.844 2.981 12.297 2.981 16.768-.373 5.217-4.472-2.981-11.179-2.236-16.396.373-2.236 5.589-1.863 7.825-2.981 1.863-1.491 1.118-5.962 3.354-5.217zm1.49-21.985c-1.118.373-5.589 2.236-6.335 3.726-5.589 7.825-10.061 16.023-14.533 24.594 1.491 0 5.962.373 10.806-7.825 4.099-7.825 8.198-12.669 10.061-20.495zm-51.423 26.084c1.863-2.236 7.08-5.962 10.434-4.099 2.236 1.118 1.491 5.217.745 7.825-.745 2.236-11.552 7.08-16.396 4.099-13.787-7.453 9.688-27.575 13.042-33.91.745-1.118 1.118-3.354 1.863-4.844 1.491-.373 2.981.373 4.472 1.118-3.726 7.08-10.061 12.297-13.787 19.004-1.863 3.726-7.08 12.297-2.981 13.415s6.335.745 9.316-.373c1.118-.745 1.863-2.236 1.118-2.608-1.491-.373-4.472.745-5.962 1.863-.745 0-2.981 1.118-1.863-1.491z"/><path d="M758.595 432.974c-1.863 0-4.099.373-5.962.373.373 2.236.373 5.217-1.118 6.335-8.198-.373-16.768-4.472-24.221-8.943-2.981-1.863-3.726-5.962-2.981-9.316 1.491-4.099 4.472-6.707 7.825-8.943-1.118-.373-2.236-1.118-3.354-1.491-4.472 2.236-8.571 5.962-10.434 11.179-1.118 3.726-1.863 8.943 1.491 11.179 8.943 6.335 22.358 10.434 34.282 11.179 3.726-2.608 4.472-7.453 4.472-11.552zm-50.305 21.613c-1.118 0-1.863-.373-2.608-.373-1.863 3.354-7.08 8.571-12.297 7.825-7.08-1.491-10.806-7.825-12.669-13.787l-2.236 2.236c2.608 7.453 1.863 13.787 9.316 16.768 8.198 3.726 18.632-7.825 20.495-12.669z"/></g><g transform="matrix(.899224 0 0 .899224 100.9699 -429.69541)"><path d="M655.1 951.7l-30.4-40.2c18.8-14.7 33.7-23.8 56.6-35 26.6-11.4 32.4-12.1 65.3-18.4 45.8-4.7 58.4-5.3 114.3-.6 60.9 10.5 69.5 17.1 125.4 53.1l-30.5 40.9c-32.3-25.5-48.4-32.4-94.2-42.6-50.9-7-62.8-6.6-101.1-2.7-39.3 7.3-34.2 6.7-61.8 17.9-19.6 9.4-31.2 15.6-43.6 27.6h0z" stroke-width="2.124" class="AW AX"/><g fill="#1f1a17"><path d="M959.524 903.5c1 2.1.3 4.5 0 7.3-1-.7-1-2.1-2.1-1-4.2 4.9-5.6 12.6-11.2 13.6-4.5 1-8.7-1.4-13.6-3.5.3 0 .3-.7 1-.7 4.2.7 9.8 2.8 12.9.7-.7-5.2-.7-11.2-1.7-16.1-1-.3-2.1.7-2.8.3.3-2.1 0-4.9 1.4-7.3.7-.7 1.4-1 2.8 0 1 7.7 1.7 15 2.1 23 3.2-5.9 7-11.5 11.2-16.3h0zm-6.7-10.6c-1 .3-2.4.7-3.5.7 1 2.1 1 4.2.7 6.3.7 0 1 .3 1.7 0 .7-2.1 1.4-4.2 1.1-7h0zm-17.3-3.4c1.4 1.7 2.1 3.8 2.1 6.6-.7.3-2.1 1-2.4.3-1.4 1.4-2.4 8.4-7.3 13.3-.7 1-3.1 2.4-4.5 2.4 4.4-7.3 8.6-14.6 12.1-22.6h0zm-30.8 25.8c4.2-.3 8 .7 12.6 1-1.4.7-4.2 1.7-5.6 1.7-4.5.3-7-.3-11.2-1 1.1-.7 2.8-1.7 4.2-1.7zm13-36.3c-1 1-2.8 2.1-3.1 3.5-1.7 5.2-2.1 10.5-3.1 15.7 1-1 2.4-2.1 2.8-3.5 1.6-4.9 2.3-10.5 3.4-15.7zm-26.6 26.5c-2.8-.3-5.6-.7-8.4-.3-1 0-2.1.7-3.1 1.4 3.1.3 5.6 1 8.7.7 1.1-.1 2.1-1.1 2.8-1.8h0zm31.9-14.8c1.4 2.4 2.1 5.2 1.7 8-.7-.7-1.7-1-2.4-.3-2.8 4.2-4.9 8.7-9.4 10.8-2.4 1.4-4.9-1.7-7.7-2.1-1.7-.3-3.5-.3-5.2.3-.3-.7-.7-.7-1-1.4 1.7-2.1 3.1-5.2 5.9-5.2 5.9.3 4.9 3.8 7.3 4.2 1.7.3 3.8-2.8 4.9-3.8 3.2-3.5 3.8-6.7 5.9-10.5h0zm-23.5-19.1c2.4 2.8 2.1 6.6 2.4 10.8-1-.3-1.7-1-2.1-1.7-3.5 7.3-4.5 13.6-9.1 20.2-.7 1.4-3.1 2.8-4.5 3.5 4.6-10.8 9.5-21.2 13.3-32.8h0zm-9.4-1.7c2.1 2.4 3.1 5.6 3.1 9.1-2.8-.3-2.1-1.7-2.8-2.1-3.1 9.1-4.9 12.6-10.1 25.1-3.1 2.1-7 1.7-11.9 1.4-1-1-1-2.8 0-4.2 2.4-.7 5.2-1 6.3-2.8.7-7-.3-11.5-2.4-16.4 0-1.4-.7-.7-2.4.3-.3-3.8 0-7.7 2.8-11.2 2.8 7.7 5.2 14.3 5.6 28.3 4.5-8.6 8.6-18.4 11.8-27.5h0zm-27.6 1.7c2.1 1 3.5 4.2 4.2 7.7-1 .7-1.7-.3-2.1-.7-1 5.6-.7 11.2-2.4 16.4-1 2.1-3.5 2.8-5.6 3.1 1-1.7 3.1-3.5 3.5-5.6 1.7-6.5 1.7-13.9 2.4-20.9h0zm-33.2 18.2c1 2.8.7 6.6 4.2 7 3.8.7 6.3-2.4 8.7-4.9 2.1 1.7 3.5 4.2 5.9 4.2 2.8.3 5.6-1 6.3-3.5 1.7-6.6.3-13.6.7-20.2 1 0 1 .7 3.5.7 1.4-1 1.4-2.1.3-3.1-2.4-.3-2.8-1.7-5.2-5.9-1 0-2.1.3-2.8 2.1v18.5c0 2.4-1 5.2-2.8 5.2-.7 0-2.1-1.7-2.1-3.5 1.4-3.5 1.7-10.1-1.4-7.3-3.1 2.4-3.8 9.8-8.4 12.2-1.7.3-2.1-2.8-1.4-3.8 1-1.7 1-5.2 2.4-6.6-1.4-2.4-2.1-3.8-3.1-2.8-3.1 2.8-4.5 6.6-9.1 9.1-1.7.3-2.8 0-3.1-2.1.3-3.5 1-5.2 1.7-7.3-.7-.3-1-.3-1.7-.7-.7 2.4-2.1 4.9-2.4 7.7-.7 2.4-.7 5.9 1.4 7.3 2.5 1.5 6.4-1.3 8.4-2.3h0zm14-23.7c1.4.3 2.4 2.1 2.4 3.5.3 1.4.3 3.5-1.4 3.8-1.7.7-3.1 0-3.1-.7-1 .7-1.4 2.4-2.4 2.4-1.4 0-3.1-1.4-3.1-3.1 0-1.4-.7-1.4 1.4-4.2 0 1.4.3 3.5 1.7 3.1 1 0 1.4-2.4 2.1-3.1.3.7.3 2.1 1.4 2.1 1.4 0 1-3.1 1-3.8h0zm-14 5.5c-1.4 0-3.8-.3-4.2-1.7 0-1.7.7-4.2 2.4-4.5 2.1-.7 4.9.7 5.6 2.4.3 2.4-.3 3.5-.3 5.6-1 1-4.5 2.4-7 3.1-2.1.3-6.3-.3-8.4-.3 3.8-1.7 9.1-1.4 12.9-3.1.4-.8-.3-1.1-1-1.5zm-166.4 31.1c-1.4 0-3.8-.3-4.2-1.7 0-1.7.7-4.2 2.4-4.5 2.1-.7 4.9.7 5.2 2.4.7 2.4 0 3.5 0 5.6-1.4 1-4.5 2.4-7 3.1-2.1.3-6.3-.3-8.4-.3 3.8-1.7 9.1-1.4 12.9-3.1.5-.8-.2-1.1-.9-1.5h0zm21.6-14.6c1 .3 2.1 2.1 2.4 3.5 0 1.4 0 3.5-1.4 3.8-1.7.7-3.5 0-3.5-.7-.7.7-1.4 2.1-2.4 2.1s-3.1-1-3.1-2.8-.3-1.4 1.4-4.2c.3 1 .3 3.5 1.7 3.1 1 0 1.7-2.4 2.1-3.1.7.7.7 2.1 1.4 2.1 1.4 0 1.4-3.1 1.4-3.8h0zm126-23.1c2.8-.3 5.2 1.4 6.3 3.1.7 1 .3 2.1-.3 3.1-2.1.7-5.6 2.1-7.7 3.5l8.7 2.1c0 1.7-.3 3.5-.3 5.2-3.5 1.4-9.8 3.5-11.9 7.3.7 1.7 4.5 2.4 4.9 4.2.3 2.1-1 4.5-3.8 5.2-2.4-2.1-3.8-2.8-5.2-4.9s-2.4-4.5-3.5-7c-3.5 3.5-5.6 10.5-10.5 10.5s-8.7-5.6-9.1-10.5c0-2.8.3-5.2 1-8 1 .3 1 .3 2.1.3-.3 2.4-1.4 5.6 0 8 1 2.4 3.5 5.2 6.3 4.9 3.1 0 5.2-4.2 5.9-7-.7-5.6-4.5-9.8-7-14.7 1-1.7 2.1-2.8 3.8-2.8 3.1 6.3 6.6 13.6 11.2 17.5 4.2-1.4 6.6-3.5 10.8-5.2-4.2-1-8.4-2.4-12.9-2.4 0-1.7-.3-2.1-.7-3.8 3.8-1 7.3-2.1 11.2-3.5-.3-.7-1.4-1.7-1-2.8.3-1.2.7-2.3 1.7-2.3h0z"/><path d="M770.724 868.2h1c4.2 0 9.4-.3 12.9-1.7.3-.7 0-1.4-1-1.7-1 0-3.8-.3-3.8-1.4-.3-1.7.7-4.2 2.4-4.9 1.7-.3 4.9.7 5.2 2.8.7 2.1 0 3.5-.3 5.6-.7.7-2.8 1.7-4.9 2.4.7 0 1.4-.3 2.1-.3 3.1-1.4 8-1.7 9.1.3-7.7 1.4-17.8 3.5-20.2 2.1-1.1-.8-2.1-2.2-2.5-3.2h0z"/><path d="M770.024 867.1c3.1 5.2 5.6 10.8 6.6 16.8-2.1 4.5-6.3 8-9.4 11.9-2.8 1-1.4 2.8-14.7 1.4.3-.7.3-1.7.3-2.4 8-1 15.4-3.5 18.5-10.5 0-4.9-2.4-8.7-5.2-13.3 1.1-1.8 2.5-3.5 3.9-3.9h0zm-26.2 4.5c-1 0-3.8-.3-3.8-1.7-.3-1.7.7-4.2 2.1-4.5 2.1-.7 5.2.7 5.6 2.4.3 2.4 0 3.5-.3 5.6-1 1-4.5 2.4-7 3.1-2.1.3-6.3-.3-8.4-.3 3.8-1.7 9.1-1.4 12.9-3.1.3-.8-.4-1.5-1.1-1.5zm16.4-.7c3.1.7 4.2 2.8 4.5 5.6.3 3.8-1.4 6.3-4.9 8.7-2.1 1-4.9.7-7.3 0-1 2.8-3.1 3.8-3.5 4.2-2.8.3-4.2.3-5.6-.7-1 1.4-3.1 2.4-4.5 3.1-.7 5.6-4.2 9.4-7.3 13.3-3.5 0-5.6-.3-8-1 0-.7.3-.7.3-1.4 5.6-.7 11.5-4.5 11.9-11.2-1.4-3.8-6.3 2.4-9.8-4.9.3-4.2 2.4-7 4.5-7.3 5.9-1 6.3 2.8 8 5.6 2.4-.3 2.8-2.8 1.7-5.9 1-.7 2.1-1.4 2.8-2.1 2.4 1.7 3.5 3.8 2.1 7 3.1.7 4.9-3.1 4.2-7 .7-1 1.7-2.1 2.8-2.8 2.8 1.4 2.4 3.8 2.1 6.6 6.6 0 7-3.8 3.8-7.7.8-.7 1.5-1.4 2.2-2.1z"/><path d="M716.324 877.2c.7-1.4 1-3.1 1.4-4.5 5.6 8.4 7.7 18.1 10.8 27.2-2.4 5.2-7.3 10.5-13.6 11.2-4.2.7-7.3-3.1-8-7-1-3.8-.7-5.9-.3-8 .7-.3 1-.3 1.7-.3-.7 1.7 1.4 10.8 7.3 10.1 3.8-.7 7.3-2.8 9.4-5.9-2.1-7.8-4.9-15.8-8.7-22.8h0z"/><path d="M709.624 881.1c-2.1 1-2.1 5.6-2.4 9.1 5.2 4.9 5.9 11.9 7.3 18.8 1-.7 2.1-3.8 2.1-5.2-.3-5.9-1-9.4-2.8-15 .7-.3 1.4-.7 2.1-1-1.4-3.6-3.5-5.7-6.3-6.7zm-13.6 12.5c3.1 1.4 7 3.8 7.7 8 .3 3.5-.7 7-3.8 9.1s-6.6.7-9.4-1.4c.7 2.4-1 6.6-4.5 7.3-5.2.3-10.1-9.1-10.8-9.8-1-1.4-.3 10.8-4.2 12.9-3.8 1.7-8-.3-8.4-6.3-.3-2.8.7-5.6 1.7-8.4 1 .3 1.7.3 2.4.3-1 2.4-1.4 4.2-1 5.6.7 1.7 1.4 2.1 3.5 1.7 1.4-4.5-.3-11.9 4.9-12.6 4.9-.7 4.2 7.3 9.4 9.1 3.1.7 2.8-7.7.7-12.6.3-1 1-2.1 2.8-2.1 2.1 4.9 3.5 9.8 8.4 11.5 2.1.7 3.8-.3 3.5-3.5-.3-2.8-2.1-4.9-5.2-6.6-.1-.8.6-2.2 2.3-2.2h0z"/></g></g></g><g class="Ac"><path d="M432.6 480.6c-1.8 0-5.3 1.9-8.1 4.4s-3.8 2.4-5.3-.2c-.7-1.2-1.6-2.1-2-2.1-1.3 0-5.9 5.6-5.9 7.2 0 1.4.3 1.2 2.5-1.2l2.5-2.7 1 2c.6 1.1.9 2.6.6 3.3-.4 1.3 1.3 1.9 2.1.7.2-.3 2.6-.8 5.4-1.1 5.3-.5 10.1-2.4 10.8-4.4 1.5-3.4-.1-5.9-3.6-5.9zm-335.8 0c-3.3 0-3.7 3.7-1.6 12 1.3 4.8 1.4 7.6.3 4.5-.6-1.7-3-3.8-4.2-3.8-.5 0-1 .8-1 1.8s.3 1.8.6 1.8 1.6 1.4 3 3.2c3.3 4.4 4.2 4.2 4.2-.9 0-2.3-.5-5.7-1.1-7.6s-1.1-4-1.1-4.7c0-1.4 2.1-1.7 3.4-.4.7.7 1 .7 1.5-.2.9-1.5-1.4-5.2-3.4-5.5-.2-.1-.4-.2-.6-.2zm116 .1c-.2 0-.6 0-1 .2l-5.1 1.5-25.5 7.1c-5.7 1.7-5.5 1.8-6.7-3.2-1.2-5.1-3.1-6.6-3.9-3.1-.2 1.1-.5 2.4-.7 2.8-.1.4 0 2 .3 3.4.5 2.4.4 2.7-1.3 3.4-1 .4-3 1-4.4 1.3-10.5 2.3-25 7.8-28.1 10.7-1.7 1.6-2.1 4.4-.9 5.2.4.2 2.2-.4 4.1-1.3 1.8-1 5.1-2.5 7.2-3.3l5.6-2.2c7.5-3 18.8-6.2 19.2-5.5.7 1.1 1.3 11.1 1.5 23.3l.1 10.3-11.4 11.4c-12.2 12.2-15.7 14.6-18.9 13.1-3.9-1.8-3.9-7.6-.1-17.7l2.2-5.9 4.5-1.7c2.5-.9 5.3-1.7 6.3-1.7h1.8l-1.3 2.1c-.7 1.1-2.5 3.4-4 5.1-2.9 3.2-6.1 9-6.1 11 0 1.8 1.6.8 2.9-1.7.6-1.3 2.6-3.9 4.2-5.8 4.8-5.5 9-12.1 9.1-14 0-2.6-1.9-4.3-5-4.3-1.5 0-5.7 1.3-9.6 2.9-13 5.4-26.2 9.5-34.2 10.6-10.8 1.5-13 1.6-18.7.4-9-1.9-13.1-5.4-13.1-11.1 0-4.4.6-6.1 2.3-6.4 2-.3 4.7-4.5 4.7-7.4 0-2.7-.4-2.9-2.2-1.2-2.2 2-3 .5-2.6-5 .2-2.8.7-5.7 1.1-6.4 3.4-6.3 4.6-11.4 1.7-7.3-4.5 6.3-6 11.3-6.2 20.5-.1 4.5-.5 9-1 10.1-1.2 3.1-.9 9.2.6 12.6 1.8 3.9 3.2 5.6 6.8 7.7 2.7 1.6 3.4 1.7 14.1 1.7 12.8 0 19.5-1.3 34.6-6.8 3.1-1.1 5.7-1.9 5.8-1.8s-.8 2.5-1.9 5.4c-3.8 9.4-3.4 16.3 1.3 20.7 3.3 3.1 7.2 3.1 11.5 0 1.4-1 4.7-4.2 7.4-7.1 7.7-8.3 12.5-12.8 13.5-12.8.7 0 1 1.3 1 4.8 0 5.5 1.6 9.7 4.6 12.1 2.2 1.7 8.5 2.1 11.1.7 2.8-1.5 6.2-5.1 7.7-8.1 1-2 1.8-2.9 2.5-2.7.6.2 1 .6 1 .9 0 1 7 3.5 9.7 3.5 2.4 0 2.9-.3 3.9-2.5 1.6-3.3 1.5-10.5-.1-13.7-1.5-3.1-4.2-4.7-6.9-4-3.2.8-9.1 7.8-10.6 12.4-1.2 3.8-6.7 7.1-12.2 7.1-4.7 0-6.1-1.9-6.9-9-.5-5.1.1-5.9 5.6-5.9 2.5 0 3.7.4 5 1.8 2.4 2.4 3 2.2 3.5-1.2 1.1-7.2-4.2-10.7-11.9-8l-2.7.9v-2.2c0-1.2-.3-6.7-.7-12.1l-.9-14.8-.2-4.9 2.1-.5c1.2-.3 3.9-1 6-1.7 7-2 14.4-4 17.5-4.6 1.7-.3 3.6-.9 4.4-1.3.7-.4 2-.7 2.8-.7 1.5 0 4.3-3.1 4.3-4.8.4-1 .3-1.3-.1-1.3h0zm9.8.6c-.3 0-1.1 1.4-1.7 3-.9 2.4-1 3.8-.5 7.2.4 2.3 1 10.9 1.4 19.1s1.1 17.4 1.5 20.5.8 10.8.8 17.1.3 11.3.7 11.1 1.1-1.5 1.7-3c1.9-4.5 2.4-11.2 1.7-25.2-.4-7.4-1-16.1-1.4-19.4s-.8-8.2-1-10.8l-.3-4.8 1.9 1.2 1.9 1.2-.5-2.5c-1-4.1-5.3-14.7-6.2-14.7h0zm139.7 0c-3.3 0-11.4 6.9-16.2 13.7-3.5 5-19.5 23.1-20.4 23.1-.3 0-1.2-.6-1.9-1.2-.7-.7-4.4-4.1-8.2-7.6-7.2-6.6-15.4-14.8-15.8-16-.1-.4.4-.6 1.2-.6s1.5-.4 1.5-.9c0-1.3-10.5-9.1-11.7-8.7-.7.2-1 1.5-1 3.5 0 2.6.5 3.7 2.5 6.1a89.11 89.11 0 0 1 4.9 6.7c2.3 3.4 11 12.3 20.1 20.4l3.8 3.4-2.1 2c-2.9 2.8-12.6 10.5-18.2 14.4-4.5 3.2-5.8 4.8-3.8 4.8 1.3 0 18.4-10.1 20.3-12 .2-.2 1.9-1.6 3.7-3.1l3.4-2.7 2.5 1.9c1.3 1 2.5 2.1 2.5 2.5s-1.3 3.1-2.8 6c-2.5 4.8-2.8 6-2.8 10.2 0 7.9 3.2 9.9 9.8 6.1 3.7-2.1 3.6-2.1 3.6-.2 0 2.3 2.8 5.3 5.7 6 3 .7 8.2-.4 11.1-2.5 1.1-.8 2.9-2.6 4.1-4 2.5-3 3.2-3.2 3.2-.8 0 4.3 3.9 6.8 9.4 6.1 1.9-.2 3.6-1.1 5.6-3.1l2.9-2.8 1.9 1.8c2.2 2.1 5.5 2.4 8.1.7 2.4-1.5 4.9-7.7 4.4-10.8-.4-2.4-1.6-4.4-2.6-4.4-.9 0-2.3 4.9-1.8 6.8.4 1.6.2 1.7-1.9 1.7-3.3 0-4.8-1.8-4.3-5.2.6-3.8-.7-3.3-3.7 1.2-3.2 4.8-5 6-8.9 6-4.5 0-6.2-1.5-6.2-5.3 0-2.1-.3-3.1-.9-3.1-.5 0-2.9 1.9-5.3 4.1-4.6 4.3-7.9 5.8-12.6 5.7-4.8 0-6.4-2.5-4.2-6.3.6-1 1-2.6 1-3.7 0-2.3-1.8-7.2-3.7-9.9l-1.3-1.9 2.7-3.4c1.5-1.8 3-3.7 3.5-4.1 2.3-2 19-24.5 20.2-27.1 1.8-3.9 2.5-9.9 1.4-12-.8-.9-1.8-1.5-2.7-1.5zm-247.3 0c-1.3 0-1.6.5-2.1 1.7-.5 1-1.1 1.9-1.4 1.9s-.7.4-.9.9c-.3.7.6.9 3.6.9 2.2 0 4.1.3 4.2.6.1.4-2.6 2.1-6 3.8l-8.6 4.2c-3.2 1.6-3.8 3.2-1 2.6 1.1-.3 2.9-.9 4.1-1.4s2.4-1 2.9-1c1.9 0 10.8-5.2 12.9-7.5 4-4.5 3.1-5.7-4.6-6.4-1.1-.1-1.9-.2-2.5-.2-.2-.1-.4-.1-.6-.1h0zm491 .1c-.5 0-1 .6-1.2 1.7-.4 1.4-.1 2.3 1.2 3.6 1.4 1.5 1.6 2.4 1.6 7.9 0 4.4-.4 6.7-1.2 8.2-.7 1.2-1.2 2.7-1.2 3.4 0 1.5 1.1 1.3 9.2-1.6 13.7-4.9 16-5.8 16.6-6.4.4-.3 1.1-.6 1.7-.6s2-.4 3.2-1c4.8-2.1 10.1-4 10.9-4 1 0 4.6-5.5 4.1-6.3-.3-.5-3.2.3-8.2 2.2l-6.4 2.2c-6.8 2.3-21.3 7.8-23.2 8.8-2.4 1.3-3 1-2.3-1 1.3-3.5.8-9-1.3-13.1-1.4-2.7-2.6-4-3.5-4zm-144.5.1c-.3 0-.5.1-.8.2-1.3.4-1.4.9-1.1 4.5.2 2.2.6 4.6.9 5.4.4 1.2.4 1.3-.4.5-1.2-1.1-3.5-1.2-3.5-.1s4.5 6.3 5.5 6.3c.6 0 .9-1 .9-2.9 0-1.6-.4-4.1-.8-5.6-.9-3.1-.4-5.6 1-4.3 1.3 1.3 2 1 2-.9-.1-1.9-1.8-3.2-3.7-3.1z"/><path d="M399.7 482c-1.5 0-3.2 6-2.5 8.6.3 1.3 1.1 10.9 1.7 21.4l1.9 27.2c.4 4.5.6 11.1.4 14.6-.4 7.5.5 8.2 2.7 2.1 1.2-3.2 1.3-5.3 1.2-17.1-.1-7.4-.6-18.1-1.2-23.7s-1.1-11.9-1.1-14c0-3.6.1-3.7 1.5-2.9 1.5.8 1.5.7 1-2.2-.3-1.7-.8-3.4-1.1-3.8s-1.3-2.9-2.2-5.5-1.8-4.7-2.3-4.7zm-19.2.1c-2.1 0-2.7.4-4.1 2.4-1 1.3-1.9 2.6-1.9 2.9 0 .2 1.5.2 3.4 0 2.9-.3 6.1.4 5.1 1.3l-8.1 4c-8.5 4.1-9.7 4.8-9.2 5.7.3.6 6.3-1.1 7.8-2.2.4-.3 1.6-.7 2.6-1 3.2-.8 10-5.1 11.7-7.5 2.9-4 1.3-5.4-6.3-5.6h-1 0zm-74.7 0c-.5.1-.9.6-1.4 1.6-.7 1.5-.5 2 1 3.6 1 1.1 2.1 3.3 2.6 5 .8 3.2 1.7 3.9 2.4 2 .2-.6.4-1.7.4-2.3 0-1 1.1-1.2 9-1.2 7.2 0 9.9-.4 13.6-1.6 4.9-1.6 5.7-1.6 4.3.2-.6.8-.7 1.3-.2 1.8 1 1 6.6-5.6 6.6-7.8 0-1.5-.2-1.6-2.6-1.2-1.4.3-3.4.9-4.4 1.4s-5.1 1.5-9.1 2.2c-7 1.2-7.5 1.2-12.7 0-3-.7-6.2-1.9-7.2-2.6-1-.8-1.7-1.2-2.3-1.1h0zm193.8 0c-.2 0-.4.3-.8.6-2.3 2.3-3.4 8.8-1.8 10.5 1.1 1.1 1 1.1 2.3-.3 1.4-1.4 1.4-3.1 0-3.1-1.2 0-1.1-1.5.2-6.4.2-.9.2-1.3.1-1.3h0zm216 0c-1.2.1-9.2 3.1-14.7 5.6-1.6.7-5.1 2.1-7.8 3.2-11.9 4.6-16.6 8-16.6 11.9 0 2 0 2 1.6.9a191.49 191.49 0 0 1 6.2-3.9c5.4-3.3 15-7.8 21.9-10.4 6.8-2.5 8.2-3.3 9-5.1.5-1 .7-2 .5-2.2h-.1 0zm-233.5 0c-.6 0-1.1.5-1.4 1.4-.5 1.2-.3 2 .7 3.1 3.2 3.6 3.6 8.7 1.1 15.9-1.7 5-1.7 6.1.3 5.3.6-.2 3.8-1.3 7.1-2.5 3.3-1.1 10.1-3.7 15.2-5.7l11.3-4.3c1.2-.4 3.1-1.2 4.3-1.7s2.5-1 2.9-1c.8 0 3.1-3.8 3.1-5.2 0-1.1-3.8-.1-15.2 4.1l-6.7 2.4c-1 .3-5.1 1.9-9.2 3.5-8.7 3.4-9.6 3.5-8.8 1.3 1.2-3.2.6-9.4-1.3-13-1.3-2.3-2.4-3.6-3.4-3.6zm114.4.1c-.3 0-.6.2-.9.5-1.5 1.3-1.8 5-.7 8.6 1.4 4.6 2.3 14.6 3.1 37.1.9 25.8 1.8 28.6 8.7 30.5 1.6.4 3 .8 3.2.9.1 0 1.9-.5 3.9-1.1s4.2-1.6 4.8-2.1 1.4-1 1.8-1 1.3-.6 2-1.4c1.8-2 2.8-1.8 6.3 1 2 1.7 4.4 2.8 7.5 3.5 4 .9 5.1.9 9.8 0 7.3-1.5 12.2-4.9 15-10.3 1.8-3.4 1.8-11.7 0-16-2.6-6.4-9.2-11-13.2-9.2-2.8 1.3-5.6 6-6 10.2l-.4 3.8-2.8-1.6c-2.5-1.4-3.9-1.6-12-1.6-11.8-.1-15.9 1.2-18 5.3-1.8 3.6-1.8 5.2 0 4.6.8-.2 2-.6 2.7-.8s3 .6 5.1 1.9l3.8 2.2-1.6 1.3c-3.1 2.5-10.6 3.6-12.9 1.8-2.4-1.9-2.9-5.6-3.5-25.6-.6-21.2-1.6-31.6-3.3-37.8-1-3.5-1.6-4.8-2.4-4.7h0zm72.5 0c-.4-.1-1.2 1.1-1.8 2.6-.9 2.3-1 3.7-.5 6.6 1 5.6 3 38.7 3.3 54.8.2 7.9.5 14.3.8 14.3s.9-.9 1.4-1.9c2.8-6 3.4-13.4 2.2-28.6l-1.4-19.3c-.4-5.8-.9-11.4-1.1-12.4-.4-1.7-.3-1.7.9-.6.8.7 1.7 1 2.2.6.7-.4.2-2.3-2.2-8.2-1.7-4.2-3.5-7.8-3.8-7.9h0zm-404 0c-.2 0-.3 0-.5.1-1 .3-2.3 1-2.8 1.7-1.2 1.6-.8 9 .8 14.6.7 2.3 1.4 5.5 1.5 7.1l.3 2.8-1.2-2.3c-1.2-2.3-5.2-5.9-6.6-5.9-.4 0-.8 1.1-.8 2.4 0 1.7.5 2.7 1.7 3.5.9.6 2.9 2.9 4.3 5.1 2.9 4.4 4.2 4.4 5 0 .2-1.3-.1-4.8-.8-7.9-1.7-8.2-2.1-15.1-.9-15.1.6 0 1.6.6 2.3 1.4 2 2.2 3.2 1.8 3.2-1.1.1-3.2-2.9-6.5-5.5-6.4h0zm207.6.1c-.2 0-.5.1-.8.4-1.7 1.4-1.8 5.3-.4 12.4 1 4.8 1.5 11.2 1.8 20.8.9 30.8 2.2 40 6.2 42.4 2.2 1.4 4.9 2.1 6.5 1.8a11.2 11.2 0 0 1 2.2-.3c.9 0 6.6-5.1 6.6-5.8 0-.3.7-1.6 1.5-3.1l1.5-2.6 1.9 3.1c1.8 2.8 5.5 6.2 6.9 6.3.3 0 1.8.6 3.4 1.4 2 1 4.4 1.4 8.3 1.4 6.1 0 10.7-1.4 15.9-5l3.3-2.1c.1 0 .5.9.7 1.9.6 2.6 4.4 5.1 7.7 5.1 3.2 0 8.2-2.8 10.6-5.9l1.7-2.2 1.2 2.6c1.5 3 4.2 4.4 7.8 3.8 3-.5 4.9-2 6.4-5.3l1.2-2.5.8 2.1c1.4 3.3 3.6 4.9 6.9 4.9 3.5 0 5.4-1.5 7.5-6 1.7-3.8 1.8-7.5.4-12.7-.6-2.1-1.4-5.1-1.8-6.7s-1-3.1-1.4-3.5c-1.1-1.1-.7-2.5.7-2.5 2 0 1.8-.7-1.1-5-4.2-6.2-4.3-6.2-5.6-3.1-1 2.5-1 3.1 0 8.1 1.3 6.1 3.8 14.2 4.6 15.3.3.4 1 1.9 1.6 3.3 1 2.4 1 2.8 0 3.7-.6.6-2.3 1.1-4.1 1.1-3.8 0-5.6-1.8-5.5-5.3.1-3.4-1.2-3.1-3.5.7-4.7 7.8-13.5 8-12.3.4.3-1.6.3-2.8 0-2.8-.2 0-2.6 2.1-5.3 4.6L552 552h-4.6c-5.3 0-6.6-1.2-5.3-4.7 1.2-3.1-.1-3.3-4.6-.5-8 4.8-9.9 5.4-18 5.5-6.9.1-7.7-.1-11.1-2-4.8-2.6-6.4-4.4-7.1-7.9-.3-1.5-.9-2.8-1.2-2.8s-2.2 2.3-4.2 5c-3.9 5.5-6.4 7.4-10.1 7.4-6.1 0-7.1-2.8-7.6-21.2-.7-24.1-1.7-37-3.2-42.3-1.3-4.7-1.8-6.2-2.4-6.2h0zm108.6 0c-.8 0-2.1.3-3.7.9-1.1.4-15.4 4.3-22.6 6.3l-7.6 2.1c-2 .6-5.4 1.5-7.4 2-28.7 7.7-33.5 9.9-36.9 17-2.2 4.6-2.2 5-.4 6.8 1.6 1.6 2.7 1.7 5.3.6 2.5-1.1 4.9-5.1 4.4-7.5-.4-1.9 1-3.6 2.9-3.7.5 0 2-.5 3.2-1.1 2.9-1.4 26.9-9.3 33.7-11.1l7.4-2c11.1-3 16.7-4.4 17-4.1.2.2-.3 2.2-1.1 4.4-1.9 5.5-1.8 9 .2 11.3 1.4 1.6 1.8 1.7 2.9.9.7-.5 1.5-2.2 1.7-4 .4-2.9.3-3-1.1-2.3-1.2.7-1.5.6-1.9-.6-.9-2.8 1.8-11.5 4.2-13.5.6-.5 1.1-1.3 1.1-1.9-.1-.3-.5-.5-1.3-.5zm-344.2.2c-.4 0-1.1.6-2 2-2.1 3-2.6 8.5-1 10.1 1.4 1.4 4 1 5.9-.9 1.3-1.3 1.7-2.5 1.7-4.9 0-3.2-1.4-5.3-2.8-4.4-1 .6-.9 3.4 0 4.4 1.1 1.1.1 2.3-1.9 2.3-1.4 0-1.7-.4-1.7-1.8 0-1 .5-2.8 1.1-3.9 1-1.8 1.2-2.9.7-2.9h0zm294.1.4c-.2.1-.6.6-1.1 1.6-1.5 3-2 6.9-1.2 9 .9 2.3 1.7 2.3 3.2.3 1.5-2.1 1.4-2.7-.3-2.7-1.6 0-1.7-.5-.7-4.9.4-2.2.4-3.4.1-3.3z"/><path d="M432 483.9c.3 0 .6 0 .8.1.7.2.9.5 1.1 1.1.1.4 0 .4-.3.7-.2.1-.5.3-.7.3-.1 0-.6.2-1 .4-.7.4-1.9.6-3.6.8-.4 0-.9.1-1 .1-.2 0-.3 0-.5-.4-.1-.2-.2-.4-.2-.5s.6-.6.8-.6c.1 0 .4-.2.8-.4l1-.6c.2-.1.5-.3.7-.4.3-.3 1.3-.6 2.1-.6z" class="AX"/><path d="M165.7 485.5c-1 0-13.2 3.8-15.6 4.9-2.9 1.2-9.2 3.6-9.7 3.6-.3 0-3 1.2-6 2.6l-9.2 4.2c-3.7 1.6-6.1 4.3-7 8-1 3.7 1.9 7.1 6 7.1 1.4 0 1.6-.3 1.4-2.3-.2-1.8-.7-2.5-2.5-3.4-1.3-.6-2.2-1.4-2.1-1.8.3-.9 10.3-6 16-8.1 2.4-.9 4.5-1.9 4.7-2.2s.9-.6 1.5-.6 2.1-.4 3.3-1c1.2-.5 6-2.2 10.6-3.6 6.2-1.9 8.6-3.1 9.4-4.3 1-1.7.7-3.1-.8-3.1zm491 .7c-1.8 0-6.3 9.9-6.4 14 0 1.8 3.5 5.8 5.2 5.8.6 0 2-.5 3.2-1.2s2.7-2.1 3.3-3.3c1.7-2.9 1.7-8.2-.1-10.6-1.7-2.3-2.3-2.2-3.5.7-.9 2-.8 2.4.8 4.2l1.7 2-1.5 1.2c-.8.7-2.3 1.2-3.2 1.2-3.4 0-3.6-4.1-.4-10.6 1.8-3.4 1.8-3.4.9-3.4z"/><path d="M360.5 488.7c1.7 0 1.4 2.3-1.2 6.2l-3.6 4.8a14.71 14.71 0 0 0-1.8 2.3c-.3.5-2.5 3.3-4.8 6.1l-6 7.4a25.51 25.51 0 0 1-2.5 3c-.5.4-1.1 1.2-1.5 1.8-1.6 2.4-4.7 5.7-5.2 5.7-.3 0-1.6-1-2.8-2.2-2.5-2.6-2.7-1.8 2.2-6.9 1.4-1.4 3.3-3.6 4.2-4.8l6.1-7.4 4.4-5.6c0-.8 9.5-9.7 10.9-10.2.7-.1 1.2-.2 1.6-.2z" class="AX"/><path d="M280.4 490.1c-1.1.1-2.8 5.4-2.3 7.5.5 2.3 2.7 2.8 3.5.8.3-.7 0-1.5-.6-2-1.3-.9-1.4-2.6-.4-4.5.4-.8.4-1.5.1-1.7-.2-.1-.2-.1-.3-.1h0zm45.1 4.9c-.1.1-.5.4-1.1 1.1-1.7 2.1-2.5 5.7-1.9 8.6.5 2.4 2.1 2.7 3.2.5.7-1.3.6-1.7-.4-2.4-1.2-.9-1.2-3.3 0-7 .3-.6.4-.9.2-.8h0zm384.6.8c-.3-.1-1 .9-2.1 3.1-2.6 5.1-2.3 10 .7 10 .4 0 1.2-.4 1.6-.8 1.2-1.2 1.1-3.4-.2-3.4-1.5 0-1.7-1.4-.6-5.2.7-2.4.9-3.6.6-3.7zm-267.2 1c-2.8 0-3.4.3-5.3 2.8-2.2 2.8-1.9 4.3.5 2.8 1.8-1.1 6.9-.2 5.9 1-.4.5-4.4 2.6-8.9 4.7-8.3 3.9-11.1 6.2-6.6 5.3 1.3-.3 3.2-.9 4.3-1.5 1.1-.5 2.3-1 2.7-1 1 0 6.9-2.8 9.9-4.7 2.4-1.5 5.5-5.3 5.5-6.8 0-1-4.8-2.6-8-2.6h0zm-52.7 1.1l-1.5 2.2c-1.7 2.6-2.5 6.4-1.9 9 .6 2.4 3.1 2.4 4 0s.9-2.4-.8-2.4c-1.6 0-1.6.4-.2-6.7l.4-2.1zm-183 2.5c-1.8 0-4.4 3.5-4.9 6.5l-.5 2.9-1.5-2.1c-2.6-3.7-5.8-6.6-6.6-6.1-.4.3-1 1.8-1.3 3.4-.4 2.5-.3 3.2 1.1 4.4 1.6 1.5 2.2 1.7 4.2 1.6.7-.1 1.5 1.2 2.4 3.8 1.4 4.2 3.2 5.3 3.2 1.8 0-2.9 1.4-9.4 2.3-10.4.5-.6 1.1-.7 2.1-.1 1.8.9 2.7.3 2.7-1.8.1-1.9-1.6-3.9-3.2-3.9h0zm384.2.2c-.2 0-.4.1-.8.4-1.3 1.1-2.8 7.3-2.2 9.2s3 1.9 3.6 0c.3-1 .1-1.8-.7-2.3-1-.7-1.1-1.3-.4-3.7.7-2.5.9-3.5.5-3.6h0zm44.3.3c-.3.1-.9.7-1.6 2-2 3.3-2.4 9.1-.7 10.2 1.3.8 1.1.9 2.4-.4 1.4-1.4 1.5-3.9.1-3.4-1.7.7-2-1.1-.8-4.4 1-2.6 1.2-4.1.6-4h0zm-386.2.2c-1.1 0-2.8 2.5-5.1 7.4-2 4.3-2.3 5.8-2.5 11.8-.1 3.8-.5 7.4-.8 8.1-2.3 4.5-3.3 9.4-3.3 16.9 0 8.4.8 11 4.4 14.3 5.3 4.9 12 6 20 3.2 12.4-4.3 24.2-11 27.3-15.5 6-8.9 4.7-12.5-5.4-15.5-1.9-.6-3.5-1.3-3.5-1.5s2-1.5 4.3-2.8c3.9-2.1 4.5-2.2 5.5-1.2 1.6 1.4 2.1 1.4 2.1-.3s2.9-3.3 6.9-4c3-.5 3.7-1.4 4.8-6.2.4-1.7 0-2.4-2.3-4.6-3.1-3-8.5-5.8-11.1-5.8-.9 0-2.7.9-3.9 2.1-1.8 1.7-2.2 2.6-2.2 5.2 0 1.7.5 3.7 1 4.5 1.5 2 1.4 2.3-1.6 3.7-4.8 2.3-12.5 7.1-13.7 8.4-1 1.2-1.6 3.4-1.4 5.7.1.9 1.3 1.5 6.1 2.7 8.6 2.3 12.1 3.3 12.9 4 .9.7.7.9-5.2 4.6-.8.5-4.3 2.3-7.9 4.1-16.9 8.4-28.2 7.8-33-1.6-2.6-5.1-.4-19.6 3-19.7 2-.1 3.2-1.4 4.2-4.4 1.3-3.9 1.1-4.4-1.6-3.9-2 .4-2.4.2-2.7-.9-.6-2.4.8-9 3-13.9 1.3-2.8 2-4.9 1.7-4.9h0zm305.5 1.4c-1.9.1-4.2 1.2-6.4 3.3-1.4 1.3-2.8 1.1-3.3-.5-.6-1.9-1.5-1.8-3.9.7-2.9 2.9-2.8 5.1.1 2.5 1.6-1.4 2.8-.7 2.8 1.5 0 1.5.2 1.7 1.4 1 .8-.4 2.5-.7 3.9-.7 5.5 0 10.4-4 8.2-6.7-.7-.8-1.7-1.1-2.8-1.1z"/><path d="M554.9 504.8c.4.1.6.4.6.9 0 .7-.3 1-1 1-.3 0-.9.2-1.4.4-.9.4-1.2.5-1.7.3-.1 0-.4-.1-.5-.2-.5-.2.7-1.3 2-1.9.9-.3 1.6-.5 2-.5z" class="AX"/><path d="M691.6 505.3c-.6 0-.9 1-.9 3.2 0 3 .3 3.5 5.1 8.5 4.3 4.5 6.3 6 12.2 8.9 7.3 3.6 11.7 6.5 11.7 7.7 0 2-23.9 17.2-29.6 18.8-3.5 1-4 1-5.7 0-1.5-.9-1.9-1.7-2-4.7-.1-2 .1-5.2.6-7.3 1.1-4.9 1.2-6.6.5-6.6-1.5 0-1.8-2.5-.8-6.4.6-2.2.9-4.2.8-4.4-.2-.2-1.1 1.4-2.1 3.4-2 4.1-2.5 9.1-.9 10.4.8.7.8 1.3 0 4.1-.5 1.8-1 5.8-1 9 0 8.5 2.3 11.4 8.7 10.6 1.5-.2 4-1 5.7-1.8 7.1-3.6 22.7-14.3 25.7-17.7 2.4-2.7 3.6-8.5 2.5-12.5-1-3.9-2.3-5-9.3-8.4-2.9-1.4-7-3.7-9.1-5-3.4-2.3-3.7-2.5-2.3-3 .8-.3 1.5-.9 1.5-1.3-.2-.6-9.8-5.5-11.3-5.5h0zm-586.1 0c-.4 0-1.9 1.1-3.3 2.6l-2.6 2.6 2.1 3c1.1 1.7 2.1 3.3 2.1 3.7s-1 1.3-2.1 2.2c-1.2.9-2.1 1.8-2.1 2.1s1.1 1.9 2.6 3.5c1.7 1.9 2.8 2.8 3.4 2.4l3.4-2.6 2.6-2-2.5-3c-1.4-1.7-2.5-3.4-2.5-3.8s1-1.5 2.1-2.4c1.2-.9 2.1-1.8 2.1-2.2 0-.8-4.5-6.1-5.3-6.1zm60.6.1c-.3 0-.7.3-1.1 1-3.3 5.6-3.3 11.7-.1 11.7.4 0 1.2-.4 1.6-.8 1.3-1.3 1-3.2-.6-3.6-1.2-.3-1.4-.8-1-2.4.2-1.1.8-2.7 1.2-3.6.6-1.3.5-2.2 0-2.3h0zm252.4 1.3c-1.2 0-5.7 9.8-6.9 15.1-1.2 5.2-1.2 5.8-.1 8.7.8 2.3 1 3.8.5 5.4-1 3.4-.8 9.8.4 13.3 2.5 7.1 8.1 12.2 14.6 13.3 3.7.6 5.3.6 10.8-.3 3.2-.5 8.2-2.1 10.1-3.2.7-.4 2-1 3-1.4s2.4-1.1 3.2-1.6c8.9-5.6 13.1-9.4 14.9-13.1.7-1.4 1.2-4.3 1.2-6.9 0-3.6-.4-5.3-2.2-9-2.7-5.4-2.7-5.5-.8-5.5 2.1 0 1.8-.8-2.2-4.9-4-4.2-4.8-4.1-5.4.6-.3 2-.1 3.3.7 4.2.6.7 1.2 2.2 1.5 3.4s1.5 4.6 2.9 7.6 2.5 5.8 2.5 6.1c0 2.3-14.7 11.5-22.6 14.2-5.5 1.9-15.4 2.6-19.6 1.5-3.5-1-6.8-3.5-9.1-7.2-1.3-2.1-1.7-3.7-1.7-7.2 0-4.1.2-4.6 2-6 1.3-1 2.3-2.6 2.8-4.5.8-3.3.2-4.9-1.5-3.5-.6.5-1.5.6-2.2.4-2.2-.8-1.1-7.2 2.7-16 1.3-3.1 1.3-3.5.5-3.5h0zm230.1 0c-1 0-5.4 5.7-5.4 7.1 0 .8 5.6 4.1 7.1 4.2.6 0 1.9-1.4 3-3.1s1.9-3.6 1.9-4.1c.1-1-5-4.1-6.6-4.1h0zM509.9 509c.3 0 .6 0 .6.2 0 .1-.4.5-.8 1.1-.8.9-.8 1-.7 1.7.2 1.1.2 2.5-.1 2.8s-3.2.4-3.6.1c-.6-.5-1.2-1.5-1.2-2 0-.6 1.2-2 1.7-2 .2 0 .7-.2 1.1-.5s.9-.5 1.1-.5.6-.2 1-.4c.2-.3.6-.5.9-.5h0zm61.3.6c-.9 0-5.9 7.8-5.4 8.3 1.1 1.1 5.8 3.6 6.9 3.6.7 0 1.9-1.2 3-3 2.4-4 2.3-5-.6-6.4-1.3-.6-2.6-1.5-2.9-1.8-.3-.4-.7-.7-1-.7h0zm-192.4 2.8c-1.8 0-4 3-4.6 6.1l-.5 2.6-1.1-1.7c-1.9-2.8-5.4-6.3-6.3-6.3s-1.3 2.1-1.1 5.7c.1 2 1.9 3.5 4.1 3.5 1.1 0 1.8.7 2.4 2.3 2 5.4 2.2 5.7 3 4.9.4-.4 1-2.8 1.2-5.2.5-4.3 1.7-7.7 2.8-7.7.3 0 .9.4 1.3.8 1.2 1.2 2.3.1 2.3-2.2 0-2-1-2.8-3.5-2.8z"/><path d="M289.2 512.7c.2 0 .5 0 .8.1 2.1.4 6.1 2.2 6.1 2.8 0 .4-4.7 2.5-5.5 2.5-.2 0-.8-.9-1.4-1.9-1.5-2.6-1.5-3.6 0-3.5h0z" class="AX"/><path d="M130.7 513.1c-1 0-2.9 4.6-2.9 7.2 0 4.3 3 5.4 6 2.4 2-2 2.4-6.1.7-7.4-1.6-1.3-2.6-.2-2.4 2.7.2 2-.1 2.6-1 2.8-1 .2-1.2-.2-1.2-2.2 0-1.4.3-2.7.7-2.9.9-.7.9-2.6.1-2.6h0zm361.6.7c-.5 0-2.2 1-3.8 2.2l-3 2.2 1.4 2.3c3.1 4.9 3.3 5.5 1.8 6.6-3.8 2.6-4 3.6-1.4 6.4 1 1 1.8 2.2 1.8 2.5 0 1.3 2.6.4 5.2-1.8l2.8-2.4-2.3-3.7c-2.3-3.5-2.3-3.7-1-4.6 4.4-3.2 4.3-2.7 1.7-6.3-1.3-1.9-2.8-3.4-3.2-3.4zm128.5 2.2c-.6-.1-.8.3-1.2.9-.4.7-1.5 2.4-2.4 3.7-1.8 2.7-2 3.8-.7 3.8.5 0 2 .8 3.4 1.7s2.7 1.7 3 1.7 1.5-1.5 2.7-3.3 2.1-3.8 2.1-4.4-1.6-1.9-3.6-2.9l-3.3-1.2zm-90.9 1.5c-2.4.1-4.2 2.5-5 6.5l-.5 2.8-1.4-2.4c-1.9-3.1-4.9-6.3-6-6.3-.9 0-1.7 2.3-1.7 5 0 2.1 2.4 4.7 4.8 5 1.3.2 2 1.1 3.1 4 .8 2 1.7 3.7 2 3.7s.8-1.5 1.1-3.4l1.2-6.8c.7-3.4.8-3.4 3.1-3s2.4.3 2.4-2c0-1.8-.4-2.5-1.4-2.8-.4-.1-.8-.2-1.2-.2-.2-.1-.4-.1-.5-.1h0zm-140.8 2.1c-.4 0-1.4 1.3-2.2 3.2-1.3 3-1.4 6.7-.2 7.9 1.1 1.1 1 1.1 2.3-.3 1.4-1.4 1.4-3.1 0-3.1-1.2 0-1.1-1.8.2-6.3.2-1 .2-1.4-.1-1.4h0zm163.9 1.9c-2.2 0-3.5.7-4.8 2.4-2.4 3.1-2.3 3.5.6 3 3.1-.6 6.3.2 5.4 1.3-.4.4-4.3 2.6-8.8 4.7s-8.3 4.3-8.5 4.8c-.5 1.3.4 1.1 6.5-1 7.4-2.5 12.8-5.5 15.5-8.6 3.2-3.6 3-4.7-.8-5.7-2.1-.6-3.8-.8-5.1-.9zm-107.8.6c-.9 0-1.3.3-1.4 1.1 0 .4-.6 1.6-1.4 2.6-2.1 2.7-1.7 3.7 2 5.8l3.5 1.9c.1 0 .9-1.4 1.9-3.2s1.8-3.7 1.8-4.2-1.3-1.7-2.9-2.7c-1.4-.8-2.6-1.3-3.5-1.3zm-91.5 4.6c-.1 0-.4.2-.8.6-1.2 1.2-2.2 6.2-1.5 8 .6 1.4 2.3 1.4 2.9-.1.2-.6 0-1.7-.6-2.4s-1-1.3-.8-1.5.5-1.4.7-2.8c.3-1.2.4-1.8.1-1.8h0zm76.1 1.9c-.9-.1-3.3 3.6-4.5 7-2 5.5-1.5 7.9 1.9 9.9 1.8 1.1 1.8 1.1 4.3-.5 1.6-1 2.6-2.4 3.4-5 1.1-3.4 1.1-3.7-.1-5.9-1.7-2.9-3.1-2.9-3.9-.2-.4 1.6-.3 2.3.5 2.9 2.5 1.9-.4 4.7-3.6 3.5-1.5-.6-.9-4.5 1.1-8.5.8-1.5 1.2-3 1-3.2 0 .1 0 0-.1 0z"/><path d="M648.9 530c1.3 0 2.6.6 3.8 1.8 1 1 1.2 1.3 1 1.6-.2.2-.6.3-.9.3-.4 0-1.5-.1-2.6-.1-1.7-.1-2.1-.2-2.8-.7s-.8-.8-.8-1.4c.1-.7.2-.8 1.1-1.1a1.92 1.92 0 0 1 1.2-.4z" class="AX"/><path d="M514 530.8c-.2 0-.6.3-1.2 1-2.1 2.8-3 7.9-1.8 10.2.9 1.7 1.6 1.7 3.1.3 1.5-1.5 1.4-3.1-.3-3.1s-1.9-1.8-.3-5.4c.8-1.8.9-2.9.5-3zm-256.1 3c-.9 0-1.5.3-2.2.9-2.1 1.9-1.7 3 1.2 3.3 2.5.2 2.5.3-3.2 3-3.2 1.6-5.7 3.1-5.7 3.4 0 1 4.1-.1 8.9-2.5 7.6-3.7 8.9-6.8 3.2-7.9l-2.2-.2z"/><path d="M333.1 534.2c.6.1 1.3.9 2.7 2.4 1.5 1.7 2.9 3.5 3 4 .3 1.3-1.6 3.1-5.4 5-3.1 1.6-5.7 1.9-6.7.9-1.3-1.3-.5-3.5 2.9-8.4 1.9-2.8 2.7-4 3.5-3.9zM206.2 538c1.2-.1 2.4.6 3.9 2 3.1 3.1 2 4.2-2.6 2.8-1.2-.4-2.8-1.1-3.5-1.7-1.4-1.1-1.4-1.1 0-2.1.8-.6 1.5-.9 2.2-1h0zm437.8 1.2a.76.76 0 0 1 .4.2c.7.7 2.8 1 6 1 3.8 0 5.3.3 7.1 1.3 3.1 1.7 3.2 2.7.7 4.3l-3.3 1.9c-.3.1-.9.4-1.3.6s-.8.4-1 .4-.7.2-1.1.4c-3.6 1.9-10.6 2.8-14.7 1.9-2.1-.5-3.9-1.3-4.6-2.2l-.5-.6 1.1-.5c.6-.3 1.2-.6 1.3-.7s.4-.3.7-.3.9-.2 1.4-.5 1.1-.5 1.4-.5 1.1-.3 1.8-.6c1.3-.6 1.6-1 2.6-3.1.2-.3.4-.8.5-1s.4-.7.6-1.2c.5-.5.7-.8.9-.8zm-18.8 1.3c2.6 0 6.3.4 6.6.7.4.4-.1 1.2-1 1.5l-2.2 1c-.7.4-1.3.7-1.4.7s-.4-.1-.8-.4l-.8-.6c-.2-.3-1.8-1.3-2.6-1.7-.6-.3-.7-.4-.4-.8.4-.4.7-.4 2.6-.4z" class="AX"/><path d="M128.5 545c-.1-.1-.4.2-.9.7-1.3 1.3-3.3 6.5-3.3 8.6 0 3.2 2.3 5 4.1 3.2 1.2-1.2 1-3.4-.3-3.4-.9 0-1.1-.5-.8-3 .2-1.7.6-3.8.9-4.8.3-.8.4-1.2.3-1.3zm179.2 1.3c-1.3 0-1.9.9-3 3.2l-1.9 3.8c-.1.1-1.6-.3-3.1-.9l-2.9-1.2-1.7 3.7c-.9 2-1.5 3.9-1.3 4.2.4.7 6 3.3 7.1 3.4.4 0 1.5-1.7 2.4-3.9s1.8-3.9 1.9-3.9 1.4.5 2.8 1.1c3.4 1.4 3.7 1.4 4.5-.9.4-1.1 1.1-2.6 1.5-3.5 1.1-2.2.6-3.1-2.6-4.3-1.8-.4-2.9-.8-3.7-.8zm163.9 2.9c-.3 0-.8.4-1.6 1.4-1.3 1.7-2.8 6.5-2.8 8.7 0 2 1.4 4.7 2.4 4.7.6 0 1.4-.6 1.8-1.4 1.1-2.1.9-3.4-.7-3.8-1.3-.3-1.4-.7-1-3 .3-1.5.9-3.5 1.4-4.4.8-1.4.8-2.2.5-2.2zM168 550c-.1 0-.4.2-.8.7-1.8 1.8-2.9 6.5-2 8.3 1.1 2 2.4 1.6 2.7-.9.1-1.1-.1-1.9-.6-1.9-.8 0-.7-1.4.5-5.3.2-.6.3-.9.2-.9zm152.7 3.5c-.1 0-.4.3-.9.7-1.3 1.2-2.2 6.2-1.5 8 .5 1.2.6 1.3 2.2.7 1.4-.5 1.4-2 0-3.1-.6-.5-.9-1.5-.7-2.2.8-3 1.1-4 .9-4.1h0zm-34.1.9c-.1 0-.4.3-.7.7-1.5 1.9-2.1 5.6-1.1 7.4 1 1.9 1.9 1.9 2.9.1.6-1.1.5-1.5-.4-1.9s-1.1-1.1-.7-3.7c.1-1.9.2-2.6 0-2.6h0z"/></g></svg>