<svg xmlns="http://www.w3.org/2000/svg" xmlns:xlink="http://www.w3.org/1999/xlink" viewBox="0 0 482.57 321.02" xmlns:v="https://vecta.io/nano"><style><![CDATA[.G{stroke-miterlimit:10}.H{stroke-width:.4}.I{stroke-width:.5}.J{stroke:#020202}]]></style><g fill="#020202" stroke="#fff" class="G"><path d="M2.07.5h480v320h-480z"/><path d="M.5.52h320v320H.5z"/><path d="M2.07.5h160v320h-160z"/></g><g fill="#fff"><g class="J"><path d="M257.67 181.17h6.68a9.12 9.12 0 0 0 3.59 6.8h-12.81c2-1.82 2.55-4 2.54-6.8z" class="G"/><path d="M257.67 181.17h6.68a9.12 9.12 0 0 0 3.59 6.8h-12.81c2-1.82 2.55-4 2.54-6.8z" class="H"/><path d="M215.44 143.32l3.66 4.03 45.54.08 3.74-4.03-11.65-.15-5.68-3.96-18.29-.07-5.3 4.1h-12.02zm18.63-4.63h15.72c2.13-1.13 2.8-4.73 2.79-6.74 0-5.94-4.19-8.79-8.36-8.94a1.78 1.78 0 0 1-1.52-1.09c-.41-1.29-.3-2.11-.75-2.07s-.28.76-.64 2a1.88 1.88 0 0 1-1.55 1.23 8.45 8.45 0 0 0-8.41 8.91c.09 3.22.46 5.13 2.72 6.75z" class="G"/><path d="M234.07 138.69h15.72c2.13-1.13 2.8-4.73 2.79-6.74 0-5.94-4.19-8.79-8.36-8.94a1.78 1.78 0 0 1-1.52-1.09c-.41-1.29-.3-2.11-.75-2.07s-.28.76-.64 2a1.9 1.9 0 0 1-1.55 1.24 8.43 8.43 0 0 0-8.41 8.9c.09 3.22.46 5.13 2.72 6.75z" class="H"/><path d="M208.2 194.77h67.57l-6.04-4.93h-55.48l-6.05 4.93zm30.98-18.52l1.23 3.7h2.8l-2.24-3.7zm-1.57 3.7l.71 3.66h3.29l-1.2-3.7zm5.56 0l2.28 3.63h4.67l-3.66-3.67zm-27.55 8.29c2.48-2.3 4.06-4.27 4.07-7.09h6c0 1.58.59 2.53 1.46 2.46h6.12v-3.63h-4.44v-19.75c-.16-7 8.49-11.05 12-11h-21v-.63h44.24v.63h-21.32c6.33 0 12.42 6 12.47 11v5.6h-.82v-5.52c0-5.53-6.95-10.69-12.54-10.53-4.83.14-12.32 4.74-12.24 10.49v1.72l11.46.07-.11 2 1.79 1.15 3.59 1.14v3l2.57.76v3l3.08 1.33v3.06l2 1.2-.09 3.12 2.65 1.86h-6.28l3.92 4.37h-5.78l-2.88-4.37h-3.81l1.72 4.33h-4.07l-1-4.3h-5v4.63zm17.74-12v3.65h4.26l-.87-3.65z" class="G"/><path d="M239.18 176.25l1.23 3.7h2.8l-2.24-3.7zm-1.57 3.7l.71 3.66h3.29l-1.2-3.7zm5.56 0l2.28 3.63h4.67l-3.66-3.67zm-27.55 8.29c2.48-2.3 4.06-4.27 4.07-7.09h6c0 1.58.59 2.53 1.46 2.46h6.12v-3.63h-4.44v-19.75c-.16-7 8.49-11.05 12-11h-21v-.63h44.24v.63h-21.32c6.33 0 12.42 6 12.47 11v5.6h-.82v-5.52c0-5.53-6.95-10.69-12.54-10.53-4.83.14-12.32 4.74-12.24 10.49v1.72l11.46.07-.11 2 1.79 1.15 3.59 1.15v3l2.57.76v3l3.08 1.33v3.05l2 1.2-.09 3.12 2.65 1.86h-6.28l3.92 4.37h-5.78l-2.88-4.37h-3.81l1.72 4.33h-4.07l-1-4.3h-5v4.63zm17.74-12v3.65h4.26l-.87-3.65zm.22-6.46h2.65v6.08h-2.65zm-3.74 6.51h2.58v-4.48c0-1.94 1.71-3.91 2.55-4s2.29 1.84 2.34 3.82v4.64h2.76v-11.45l-10.24.06zm20.47 2.67h3.21v2.54h-3.21zm-1.9-4.3h3.21v2.51h-3.21zm-3.1-4.29h3.21v2.5h-3.21zm-2.65-3.62h3.21v2.5h-3.21zm-2.13 9.55l3.29.12 5.86 5.19v-3.01l-2-1.42v-2.43l-2.87-1.64v-2.61l-2.8-.94v-3.54l-1.42-1.17z" class="H"/><path d="M254.41 168.78h.79v5.64h-.79z" class="G"/><path d="M254.41 168.78h.79v5.64h-.79z" class="H"/><path d="M207.92 149.72c-1-1.58-2.16 2.2-6.23 5-1.89 1.29-3.2 4.71-3.21 7-.07 1.55.17 3.09 0 4.59-.11 1-1.1 3.05-.43 3.59 1.79 1.33 4.11 4.35 5.18 5.39.93.81 1.73-4.2 2.43-6.44.74-2.41.41-5.28 2.48-7.5 1.46-1.5 5.16-3 4.75-3.64z" class="G"/><path d="M207.92 149.72c-1-1.58-2.16 2.2-6.23 5-1.89 1.29-3.2 4.71-3.21 7-.07 1.55.17 3.09 0 4.59-.11 1-1.1 3.05-.43 3.6 1.79 1.32 4.11 4.34 5.18 5.38.93.81 1.73-4.2 2.43-6.44.74-2.41.41-5.28 2.48-7.5 1.46-1.5 5.16-3 4.75-3.64z" class="H"/><path d="M207.72 162a8.17 8.17 0 0 0-1.33-2.07 4.89 4.89 0 0 0-2-1.43 4.27 4.27 0 0 1-1.92-1.22 3 3 0 0 1-.58-1.18 4.51 4.51 0 0 1 0-1.57c-.09.06-.14.13-.23.2-1.89 1.29-3.21 4.72-3.22 7v1.85a3.33 3.33 0 0 0 .47 1 2.33 2.33 0 0 0 .9.65c.66.28 1.42.34 2.13.6a5.69 5.69 0 0 1 2.12 1.55 8.05 8.05 0 0 1 1.4 2.13l.18-.65c.67-2.18.56-4.71 2-6.83z" class="G"/><path d="M207.72 162a8.17 8.17 0 0 0-1.33-2.07 4.89 4.89 0 0 0-2-1.43 4.27 4.27 0 0 1-1.92-1.22 3 3 0 0 1-.58-1.18 4.51 4.51 0 0 1 0-1.57c-.09.06-.14.13-.23.2-1.89 1.29-3.21 4.72-3.22 7v1.85a3.33 3.33 0 0 0 .47 1 2.33 2.33 0 0 0 .9.65c.66.28 1.42.34 2.13.6a5.69 5.69 0 0 1 2.12 1.55 8.05 8.05 0 0 1 1.4 2.13l.18-.65c.67-2.18.56-4.71 2-6.83zm-5.8-7.59a3.36 3.36 0 0 0 2.52 4.1 6.44 6.44 0 0 1 3.28 3.5m-9.41 1.24c.61 2.32 2.24 2 3.65 2.55a7.6 7.6 0 0 1 3.61 3.78" class="H"/><path d="M206.56 148.09l.74-.48 14.2 23.92-.74.47-14.2-23.91z" class="G"/><path d="M206.56 148.09l.74-.48 14.2 23.92-.74.47-14.2-23.91z" class="H"/><use xlink:href="#B" class="G"/><use xlink:href="#B" class="H"/><path d="M220.23 127.91h5.75v1.32h-5.75z" class="G"/><path d="M220.23 127.91h5.75v1.32h-5.75z" class="H"/><path d="M220.23 130.42h5.75v11.02h-5.75z" class="G"/><path d="M220.23 130.42h5.75v11.02h-5.75z" class="H"/><path d="M219.88 126.41h6.38c.25-2.17-1.91-4.51-3.17-4.48s-3.26 2.37-3.21 4.44z" class="G"/><path d="M219.88 126.41h6.38c.25-2.17-1.91-4.51-3.17-4.48s-3.26 2.37-3.21 4.44z" class="H"/><g class="G"><path d="M236.17 125.11a5.78 5.78 0 0 0-2.73 3.5 9.89 9.89 0 0 0-.52 4.87h0a3.4 3.4 0 0 0 .4 1.12.84.84 0 0 0 .55.45.5.5 0 0 0 .52-.25 1.08 1.08 0 0 0 .15-.67 12.92 12.92 0 0 1 .25-4.33 6.19 6.19 0 0 1 2.38-3.5.92.92 0 0 0 .4-.57.56.56 0 0 0-.23-.5 1.15 1.15 0 0 0-1.17-.15zm.12.35a1 1 0 0 1 .83.07.18.18 0 0 1 .07.18c0 .07-.06.18-.25.32a6.62 6.62 0 0 0-2.5 3.7 13.46 13.46 0 0 0-.25 4.45.67.67 0 0 1-.1.45c-.06.09-.09.12-.15.1s-.2-.09-.32-.3a2.81 2.81 0 0 1-.35-1 9.61 9.61 0 0 1 .52-4.7 5.45 5.45 0 0 1 2.5-3.27zm1.93 1.22a4.86 4.86 0 0 0-2.42 3.35 10.89 10.89 0 0 0-.23 4.7c.21 1 .75 1.57 1.28 1.65a.67.67 0 0 0 .67-.27 1 1 0 0 0 .13-.85 10.49 10.49 0 0 1-.2-4.05 4.81 4.81 0 0 1 1.77-3.3.88.88 0 0 0 .4-.57.61.61 0 0 0-.22-.53 1.19 1.19 0 0 0-1.18-.13zm.15.35a.86.86 0 0 1 .8.08c.08.06.11.1.1.17s-.08.19-.27.33a5.17 5.17 0 0 0-1.93 3.55 10.94 10.94 0 0 0 .23 4.18.68.68 0 0 1-.08.57.29.29 0 0 1-.32.12c-.31 0-.79-.44-1-1.37a10.67 10.67 0 0 1 .23-4.55 4.45 4.45 0 0 1 2.22-3.08z" class="I"/><path d="M219.92 150.41h6.42v8.89h-6.42z"/></g><path d="M219.92 150.41h6.42v8.89h-6.42z" class="H"/><path d="M220.29 164.38h6.2v1.87h-6.2z" class="G"/><path d="M220.29 164.38h6.2v1.87h-6.2z" class="H"/><path d="M220.14 167.66h6.35v6.95h-6.35z" class="G"/><path d="M220.14 167.66h6.35v6.94h-6.35z" class="H"/><path d="M219.69 176.03h6.94v3.88h-6.94z" class="G"/><path d="M219.69 176.03h6.94v3.88h-6.94z" class="H"/><path d="M220.55 162.71h5.59l1.11-1.85h-7.7l1 1.85z" class="G"/><path d="M220.55 162.71h5.59l1.11-1.85h-7.7l1 1.85z" class="H"/><path d="M228.07 155.9l.06-4.86h3.85a14 14 0 0 0-3.91 4.86z" class="G"/><path d="M228.07 155.9l.06-4.86h3.85a14 14 0 0 0-3.91 4.86zm-7.17 2c0 1 1.21.58 1.21.05v-4.46c0-.84 2-.63 2-.12v4.8c0 .77 1.29.7 1.27 0v-5.67c0-1.68-4.39-1.64-4.43 0v5.41zm0 10.59h4.56v5.68h-4.56z" class="H"/><path d="M223.84 170.84h1.6v.93h-1.6z" class="G"/><path d="M223.84 170.84h1.6v.93h-1.6z" class="H"/><path d="M221.04 170.84h1.57v.93h-1.57z" class="G"/><path d="M221.04 170.84h1.57v.93h-1.57z" class="H"/><path d="M222.6 168.55h1.23v2.32h-1.23z" class="G"/><path d="M222.6 168.55h1.23v2.32h-1.23z" class="H"/><path d="M222.6 171.73h1.23v2.47h-1.23z" class="G"/><path d="M222.6 171.73h1.23v2.47h-1.23z" class="H"/><path d="M197.26 111.68c.29 4.45-1.1 6.89-3.46 6.52-.64-2.47.84-4.13 3.46-6.52z" class="G"/><path d="M197.26 111.68c.29 4.45-1.1 6.89-3.46 6.52-.64-2.47.84-4.13 3.46-6.52z" class="H"/><path d="M192.07 121.55c-2.1-1.07-.59-9.21.22-12.62.59 4.39 1.59 10.64-.22 12.62z" class="G"/><path d="M192.07 121.55c-2.1-1.07-.59-9.21.22-12.62.59 4.39 1.59 10.64-.22 12.62z" class="H"/><path d="M192.83 121.93c3.52 1.23 6.31-2.57 7.26-7-2.91 4-7.65 4-7.26 7z" class="G"/><path d="M192.83 121.93c3.52 1.23 6.31-2.57 7.26-7-2.91 4-7.65 4-7.26 7z" class="H"/><path d="M190.16 126.04c-2.76-.72-1.1-9.36-.6-12.82.61 3.57 2.51 11.64.6 12.82z" class="G"/><path d="M190.16 126.04c-2.76-.72-1.1-9.36-.6-12.82.61 3.57 2.51 11.64.6 12.82z" class="H"/><path d="M191.07 125.77c.16-3 3.13-2.12 5.18-3.71a4.49 4.49 0 0 1-5.18 3.71z" class="G"/><path d="M191.07 125.77c.16-3 3.13-2.12 5.18-3.71a4.49 4.49 0 0 1-5.18 3.71z" class="H"/><path d="M187.73 129.77c-2.73-.74-1.09-10-1.25-13.87.8 3.31 3.34 13 1.25 13.87z" class="G"/><path d="M187.73 129.77c-2.73-.74-1.09-10-1.25-13.87.8 3.31 3.34 13 1.25 13.87z" class="H"/><path d="M189 129.36a4.2 4.2 0 0 0 5.43-3.39c-1.93 1.31-5 .31-5.43 3.39z" class="G"/><path d="M189 129.36a4.2 4.2 0 0 0 5.43-3.39c-1.93 1.31-5 .31-5.43 3.39z" class="H"/><path d="M185.69 133.87c-2.62.21-1.45-7.71-1.44-15.09 1 6.9 3.57 13.21 1.44 15.09z" class="G"/><path d="M185.69 133.87c-2.62.21-1.45-7.71-1.44-15.09 1 6.9 3.57 13.21 1.44 15.09z" class="H"/><path d="M186.59 133.5c1.77.88 4.93-.53 5.83-3.51-3.19 1.38-5.32 0-5.83 3.51z" class="G"/><path d="M186.59 133.5c1.77.88 4.93-.53 5.83-3.51-3.19 1.38-5.32 0-5.83 3.51z" class="H"/><path d="M207.07 115.8c-.46 3.87-2 6.11-4.4 5.74-.65-2.47 1.26-4.05 4.4-5.74z" class="G"/><path d="M207.07 115.8c-.46 3.87-2 6.11-4.4 5.74-.65-2.47 1.26-4.05 4.4-5.74z" class="H"/><path d="M200.85 125.71c3.92.56 5.33-2.44 8-6.29-3.7 2.67-8.11 3.23-8 6.29z" class="G"/><path d="M200.85 125.71c3.92.56 5.33-2.44 8-6.29-3.7 2.67-8.11 3.23-8 6.29z" class="H"/><path d="M199.74 125.28c-2.14-2.57-.07-5.79 1.56-8.53-.35 4.08 1 6.35-1.56 8.53z" class="G"/><path d="M199.74 125.28c-2.14-2.57-.07-5.79 1.56-8.53-.35 4.08 1 6.35-1.56 8.53z" class="H"/><path d="M198.8 129.5c-.24-2.51 4-3.07 6-4.46-.65 1.45-1.64 5.35-6 4.46z" class="G"/><path d="M198.8 129.5c-.24-2.51 4-3.07 6-4.46-.65 1.45-1.64 5.35-6 4.46z" class="H"/><path d="M197.9 129.56c-3-.33-1.73-5.35.39-8.13-.89 3.84 1.56 6.52-.39 8.13z" class="G"/><path d="M197.9 129.56c-3-.33-1.73-5.35.39-8.13-.89 3.84 1.56 6.52-.39 8.13z" class="H"/><path d="M195.68 133.74c-3.36-1.49-1.21-5.7 0-8.19-.54 3.27 2.16 5.76 0 8.19z" class="G"/><path d="M195.68 133.74c-3.36-1.49-1.21-5.7 0-8.19-.54 3.27 2.16 5.76 0 8.19z" class="H"/><path d="M196.34 133.35c1.77 2.3 5.2-.69 5.91-4.18-3 2.49-5.2 2.08-5.91 4.18z" class="G"/><path d="M196.34 133.35c1.77 2.3 5.2-.69 5.91-4.18-3 2.49-5.2 2.08-5.91 4.18z" class="H"/><path d="M188.66 149.55c-.34-3.43 2.24-9.66.41-13-.25-.46.54-1.67 1.06-.93.8 1.17 1.63 4.52 2 3.28s.42-3.72 1.61-4.18c.76-.27 1.83-.45 1.54.75s-.94 2.73-.22 2.84c.42.06 1.62-1.57 2.64-2.32.82-.67 2 .38.84 1.39-3.89 3.22-7.65 4.68-9.86 12.16z" class="G"/><path d="M188.66 149.55c-.34-3.43 2.24-9.66.41-13-.25-.46.54-1.66 1.06-.93.8 1.17 1.63 4.52 2 3.28s.42-3.71 1.61-4.18c.76-.27 1.83-.44 1.54.75s-.94 2.73-.22 2.84c.42.06 1.62-1.57 2.64-2.32.82-.67 2 .38.84 1.39-3.89 3.22-7.65 4.68-9.86 12.16z" class="H"/><use xlink:href="#C" class="G"/><use xlink:href="#C" class="H"/><use xlink:href="#D" class="G"/><use xlink:href="#D" class="H"/><path d="M178.55 146.84c-1-1-.69-1.41.75-1.42 1.14-.08 3.39.7 4.25.07s.48-3 .82-4.11c.16-.62.59-1.6 1.57-.07 2.9 4.64 6.52 10.22 8.07 15.68a13 13 0 0 1-2.77 11c.1-2.74-.92-4.58-2.16-6.87-1.54-3-7.25-11.16-10.53-14.33zm11.95 24.41c3.18 0 3.73-4.25 3.73-5.45-1.57.3-4.33 2.91-3.73 5.45z" class="G"/><path d="M190.5 171.25c3.18 0 3.73-4.25 3.73-5.45-1.57.3-4.33 2.91-3.73 5.45z" class="H"/><path d="M218.07 212.71c2.27.51 2.23-4.94-.08-7.26 1 3.51-1.7 6.71.08 7.26z" class="G"/><path d="M218.07 212.71c2.27.51 2.23-4.94-.08-7.26 1 3.51-1.7 6.71.08 7.26z" class="H"/><path d="M217.15 212.66c.15 2.59-6.37-.34-8-2.36 3.85 1.64 7.85.29 8 2.36z" class="G"/><path d="M217.15 212.66c.15 2.59-6.37-.34-8-2.36 3.85 1.64 7.85.29 8 2.36z" class="H"/><path d="M214.29 208.96c.24 2.51-5.65.3-7.39-1.66 3.87 1.25 7.14-.41 7.39 1.66z" class="G"/><path d="M214.29 208.96c.24 2.51-5.65.3-7.39-1.66 3.87 1.25 7.14-.41 7.39 1.66z" class="H"/><path d="M215.37 209.31c2.27.51 1.9-5.13-.3-7.07 1.06 3.76-1.48 6.52.3 7.07z" class="G"/><path d="M215.37 209.31c2.27.51 1.9-5.13-.3-7.07 1.06 3.76-1.48 6.52.3 7.07z" class="H"/><path d="M212.99 205.88c2.27.51 1-4.35-.71-6.29.27 3.54-.85 6 .71 6.29z" class="G"/><path d="M212.99 205.88c2.27.51 1-4.35-.71-6.29.27 3.54-.85 6 .71 6.29z" class="H"/><path d="M211.79 205.86c.23 2.59-4.35.6-6.12-1.85 3.83 1.25 5.86-.22 6.12 1.85z" class="G"/><path d="M211.79 205.86c.23 2.59-4.35.6-6.12-1.85 3.83 1.25 5.86-.22 6.12 1.85z" class="H"/><path d="M210.54 203.89c1.49-1.07-.09-3.89-2.92-3.71.28 1.7 1.26 4.7 2.92 3.71z" class="G"/><path d="M210.54 203.89c1.49-1.07-.09-3.89-2.92-3.71.28 1.7 1.26 4.7 2.92 3.71z" class="H"/><path d="M221.7 215.6c.15 2.59-6.36 1.3-8.41-1.46 4.11.77 8.22-.62 8.41 1.46z" class="G"/><path d="M221.7 215.6c.15 2.59-6.36 1.3-8.41-1.46 4.11.77 8.22-.62 8.41 1.46z" class="H"/><path d="M195.81 210.96c.24 2.58-6.88-.26-8.65-2.71 3.82 1.25 8.4.64 8.65 2.71z" class="G"/><path d="M195.81 210.96c.24 2.58-6.88-.26-8.65-2.71 3.82 1.25 8.4.64 8.65 2.71z" class="H"/><path d="M200.17 212.06c1.49-1.07-1.54-3.82-4-4.46.28 1.7 2.3 5.45 4 4.46z" class="G"/><path d="M200.17 212.06c1.49-1.07-1.54-3.82-4-4.46.28 1.7 2.3 5.45 4 4.46z" class="H"/><path d="M200.63 213.85c.16 2.33-7.63 1-9.67-1.1 6.7 1.21 9.45-.89 9.67 1.1z" class="G"/><path d="M200.63 213.85c.16 2.33-7.63 1-9.67-1.1 6.7 1.21 9.45-.89 9.67 1.1z" class="H"/><path d="M204.28 215.4c.86 2.17-6.61 1.64-9.24.38 4.24 0 8.64-1.88 9.24-.38z" class="G"/><path d="M204.28 215.4c.86 2.17-6.61 1.64-9.24.38 4.24 0 8.64-1.88 9.24-.38z" class="H"/><path d="M207.77 216.98c.83 1.94-6.08 1.89-9.45.82 4.46 0 8.64-2.74 9.45-.82z" class="G"/><path d="M207.77 216.98c.83 1.94-6.08 1.89-9.45.82 4.46 0 8.64-2.74 9.45-.82z" class="H"/><path d="M212.8 218.02c1.23 2.29-6.07 2.52-8.43 1.39 4.22-.58 7.39-3.2 8.43-1.39z" class="G"/><path d="M212.8 218.02c1.23 2.29-6.07 2.52-8.43 1.39 4.22-.58 7.39-3.2 8.43-1.39z" class="H"/><path d="M204.26 214.1c-2.32 1.46-2.19-2.85-4-5.84 2.9 2.64 5.62 4.44 4 5.84z" class="G"/><path d="M204.26 214.1c-2.32 1.46-2.19-2.85-4-5.84 2.9 2.64 5.62 4.44 4 5.84z" class="H"/><path d="M208.37 215.65c-1.95 1.72-3.5-4.19-5.27-7.52 2.86 3.17 7.07 6.09 5.27 7.52z" class="G"/><path d="M208.37 215.65c-1.95 1.72-3.5-4.19-5.27-7.52 2.86 3.17 7.07 6.09 5.27 7.52z" class="H"/><path d="M213.81 217.3c-1.65 1.91-6.41-5.62-8.15-9.53 2.64 3.05 9.46 7.91 8.15 9.53z" class="G"/><path d="M213.81 217.3c-1.65 1.91-6.41-5.62-8.15-9.53 2.64 3.05 9.46 7.91 8.15 9.53z" class="H"/><path d="M209.17 223.04c-.82 2.91-13-2.74-14.3-5.66 6.94 3.68 14.47 2.91 14.3 5.66z" class="G"/><path d="M209.17 223.04c-.82 2.91-13-2.74-14.3-5.66 6.94 3.68 14.47 2.91 14.3 5.66z" class="H"/><use xlink:href="#E" class="G"/><use xlink:href="#E" class="H"/><path d="M198.5 188.39c1.56 1.15 3.28-3 1.3-6.86-.06 3.76-3.05 5-1.3 6.86z" class="G"/><path d="M198.5 188.39c1.56 1.15 3.28-3 1.3-6.86-.06 3.76-3.05 5-1.3 6.86z" class="H"/><path d="M200 192.16c2.15.66 2.83-3.14 1.41-6.2.23 3.28-3.39 5.25-1.41 6.2z" class="G"/><path d="M200 192.16c2.15.66 2.83-3.14 1.41-6.2.23 3.28-3.39 5.25-1.41 6.2z" class="H"/><path d="M201.64 195.19c2.08 1 2.87-2.81 1.37-5.67.16 3.64-3 4.72-1.37 5.67z" class="G"/><path d="M201.64 195.19c2.08 1 2.87-2.81 1.37-5.67.16 3.64-3 4.72-1.37 5.67z" class="H"/><path d="M200.78 195.42c-.82 2.46-5.61-2.12-6.41-4.62 3 3 7 2.62 6.41 4.62z" class="G"/><path d="M200.78 195.42c-.82 2.46-5.61-2.12-6.41-4.62 3 3 7 2.62 6.41 4.62z" class="H"/><path d="M198.61 191.65c-.94 2.47-6.95-3.88-8.27-6.93 3 2.94 8.94 5.19 8.27 6.93z" class="G"/><path d="M198.61 191.65c-.94 2.47-6.95-3.88-8.27-6.93 3 2.94 8.94 5.19 8.27 6.93z" class="H"/><path d="M197.42 187.96c-.94 2.8-7.47-4.67-9.32-7.31 3.11 2.91 10 5.27 9.32 7.31z" class="G"/><path d="M197.42 187.96c-.94 2.8-7.47-4.67-9.32-7.31 3.11 2.91 10 5.27 9.32 7.31z" class="H"/><path d="M197.21 185.19c2.3-.45-.13-2.37-2.95-5.48-.13 3.28.41 5.57 2.95 5.48z" class="G"/><path d="M197.21 185.19c2.3-.45-.13-2.37-2.95-5.48-.13 3.28.41 5.57 2.95 5.48z" class="H"/><path d="M193.34 183.32c1-1.08-1-1.54-3.37-4.24-.35 1.82 2.24 5.16 3.37 4.24z" class="G"/><path d="M193.34 183.32c1-1.08-1-1.54-3.37-4.24-.35 1.82 2.24 5.16 3.37 4.24z" class="H"/><path d="M204.47 195.5c1.26.74 2.12-1.84.55-4.18-.36 2.53-1.7 3.24-.55 4.18z" class="G"/><path d="M204.47 195.5c1.26.74 2.12-1.84.55-4.18-.36 2.53-1.7 3.24-.55 4.18z" class="H"/><path d="M177.12 179.2c-2.68 1.61-6.93-4.79-8.06-7.42 2.35 3 8.56 5.78 8.06 7.42z" class="G"/><path d="M177.12 179.2c-2.68 1.61-6.93-4.79-8.06-7.42 2.35 3 8.56 5.78 8.06 7.42z" class="H"/><path d="M179.39 182.93c-1.48 1.64-6.14-2.81-7.75-5.07 2.49 2.16 8.4 2.42 7.75 5.07z" class="G"/><path d="M179.39 182.93c-1.48 1.64-6.14-2.81-7.75-5.07 2.49 2.16 8.4 2.42 7.75 5.07z" class="H"/><path d="M181.92 186.28c-.48 2.24-7.28-2.8-8.87-5.19 2.93 2.76 9.32 2.52 8.87 5.19z" class="G"/><path d="M181.92 186.28c-.48 2.24-7.28-2.8-8.87-5.19 2.93 2.76 9.32 2.52 8.87 5.19z" class="H"/><path d="M180.89 188.7c-1.05 2-6.58-3-7.91-5.59 3.38 2.95 8.76 3.59 7.91 5.59z" class="G"/><path d="M180.89 188.7c-1.05 2-6.58-3-7.91-5.59 3.38 2.95 8.76 3.59 7.91 5.59z" class="H"/><path d="M178.07 178.87c1.74-1.83 1-2.69-.27-5.59-.7 3-1.75 4.16.27 5.59z" class="G"/><path d="M178.07 178.87c1.74-1.83 1-2.69-.27-5.59-.7 3-1.75 4.16.27 5.59z" class="H"/><path d="M180.36 182.35c3.16.14 0-3.71-.72-6.94.27 3.68-.81 6.59.72 6.94z" class="G"/><path d="M180.36 182.35c3.16.14 0-3.71-.72-6.94.27 3.68-.81 6.59.72 6.94z" class="H"/><path d="M182.37 185.4c2.2-.49 1.56-3.6-.12-7.35.35 4.06-1.85 6.4.12 7.35z" class="G"/><path d="M182.37 185.4c2.2-.49 1.56-3.6-.12-7.35.35 4.06-1.85 6.4.12 7.35z" class="H"/><path d="M181.63 191.5c-.83 2.46-7.06-3.24-8-5.4 3.15 2.64 8.61 3.55 8 5.4z" class="G"/><path d="M181.63 191.5c-.83 2.46-7.06-3.24-8-5.4 3.15 2.64 8.61 3.55 8 5.4z" class="H"/><path d="M185.37 195.39c-.94 2.46-7.48-2.54-9.48-5.26 3.94 3.1 10 2.81 9.48 5.26z" class="G"/><path d="M185.37 195.39c-.94 2.46-7.48-2.54-9.48-5.26 3.94 3.1 10 2.82 9.48 5.26z" class="H"/><path d="M189.17 199.27c-1.05 3.43-7.88-2-9.92-4.73 4.35 3.32 10.48 2.28 9.92 4.73z" class="G"/><path d="M189.17 199.27c-1.05 3.43-7.88-2-9.92-4.73 4.35 3.32 10.48 2.28 9.92 4.73z" class="H"/><path d="M182.75 190.5c1.86 1 2.61-4.31 1.56-8 0 4.06-3.72 7.07-1.56 8z" class="G"/><path d="M182.75 190.5c1.86 1 2.61-4.31 1.56-8 0 4.06-3.72 7.07-1.56 8z" class="H"/><path d="M185.92 194.63c2.23.66 1.52-5-.39-8.7-.24 3.65-1.89 7.11.39 8.7z" class="G"/><path d="M185.92 194.63c2.23.66 1.52-5-.39-8.7-.24 3.65-1.89 7.11.39 8.7z" class="H"/><path d="M189.88 198.55c2.49.14.78-4.87-1.28-7.69.35 3.68-.81 7.26 1.28 7.69z" class="G"/><path d="M189.88 198.55c2.49.14.78-4.87-1.28-7.69.35 3.68-.81 7.26 1.28 7.69z" class="H"/><path d="M185.51 200.68c-.75 1.27-2.58-1.08-5.59-2.79 2.7.71 5.92 1.62 5.59 2.79z" class="G"/><path d="M185.51 200.68c-.75 1.27-2.58-1.08-5.59-2.79 2.7.71 5.92 1.62 5.59 2.79z" class="H"/><path d="M184.07 158.5c2.32-1.72.55-4.94 0-8-.75 2.9-2.72 6.71 0 8z" class="G"/><path d="M184.07 158.5c2.32-1.72.55-4.94 0-8-.75 2.91-2.72 6.71 0 8z" class="H"/><path d="M184.01 162.78c-3.5-.42-3-4.94-3.08-7.8 1 3.89 3.92 4.54 3.08 7.8z" class="G"/><path d="M184.01 162.78c-3.5-.42-3-4.94-3.08-7.8 1 3.89 3.92 4.54 3.08 7.8z" class="H"/><path d="M184.56 162.19c3-.17 2.79-3.53 3-6.93-1.5 3.13-3.27 3.61-3 6.93z" class="G"/><path d="M184.56 162.2c3-.18 2.79-3.54 3-6.94-1.5 3.13-3.27 3.61-3 6.94z" class="H"/><path d="M184.44 166.37c-2.3.18-3.49-2.07-4-5.59 2.18 3.24 4.16 2.23 4 5.59z" class="G"/><path d="M184.44 166.37c-2.3.18-3.49-2.07-4-5.59 2.18 3.24 4.16 2.23 4 5.59z" class="H"/><path d="M185.26 166.09c3 .38 2.49-3.06 2.36-5.59-.9 2.41-3.3 3.18-2.36 5.59z" class="G"/><path d="M185.26 166.09c3 .38 2.49-3.06 2.36-5.59-.9 2.41-3.3 3.18-2.36 5.59z" class="H"/><path d="M180.66 164.64c.23 2.24 1.65 6.1 3.93 5.23 1-2.75-2-3.3-3.93-5.23z" class="G"/><path d="M180.66 164.64c.23 2.24 1.65 6.1 3.93 5.23 1-2.75-2-3.3-3.93-5.23z" class="H"/><path d="M185.3 170.12c-1-2 2.32-3 3-5.52.4 3.67.06 6.07-3 5.52z" class="G"/><path d="M185.3 170.12c-1-2 2.32-3 3-5.52.4 3.67.06 6.07-3 5.52z" class="H"/><path d="M175.77 146.77c1.84-2 .22-5.12-.33-8.18-.75 2.9-2 6.75.33 8.18z" class="G"/><path d="M175.77 146.77c1.84-2 .22-5.12-.33-8.18-.75 2.9-2 6.75.33 8.18z" class="H"/><path d="M175.72 150.5c-3.23.33-4-6.25-4.35-9.07 1.05 3.89 4.78 5.66 4.35 9.07z" class="G"/><path d="M175.72 150.5c-3.23.33-4-6.25-4.35-9.07 1.05 3.89 4.78 5.66 4.35 9.07z" class="H"/><path d="M176.38 150.39c2.28-1.18 1.76-3.71 2.47-5.62-1.53 2.34-2.93 2.67-2.47 5.62z" class="G"/><path d="M176.38 150.4c2.28-1.19 1.76-3.72 2.47-5.63-1.53 2.34-2.93 2.67-2.47 5.63z" class="H"/><path d="M175.74 154.7c-3.38.29-5.39-7-5.5-9.86 1.05 3.89 5.9 6 5.5 9.86z" class="G"/><path d="M175.74 154.7c-3.38.29-5.39-7-5.5-9.86 1.05 3.89 5.9 6 5.5 9.86z" class="H"/><path d="M176.39 154.59c3.18-.74 2.8-2.79 2.32-6.12-1 3.35-2.79 2.64-2.32 6.12z" class="G"/><path d="M176.39 154.59c3.18-.74 2.8-2.79 2.32-6.12-1 3.35-2.79 2.64-2.32 6.12z" class="H"/><path d="M175.7 158.9c-3.72.63-3.45-5.25-6.4-9.51 2.55 3.16 7.15 7.16 6.4 9.51z" class="G"/><path d="M175.7 158.9c-3.72.63-3.45-5.25-6.4-9.51 2.55 3.16 7.15 7.16 6.4 9.51z" class="H"/><path d="M176.54 158.7c2.81.08 3.08-4.14 2.92-5.86-.64 1.71-3.94 3.33-2.92 5.86z" class="G"/><path d="M176.54 158.7c2.81.08 3.08-4.14 2.92-5.86-.64 1.71-3.94 3.33-2.92 5.86z" class="H"/><path d="M169.89 154.37c1.4 4.52 3.37 9.06 5.81 8.72 1.17-2.58-2.31-2.91-5.81-8.72z" class="G"/><path d="M169.89 154.37c1.4 4.53 3.37 9.06 5.81 8.72 1.17-2.58-2.31-2.91-5.81-8.72z" class="H"/><path d="M176.58 162.42c-1-2 2.33-3 3-5.52.4 3.67.06 6.07-3 5.52z" class="G"/><path d="M176.58 162.42c-1-2 2.33-3 3-5.52.4 3.67.06 6.07-3 5.52z" class="H"/><path d="M170.85 159.5c2 4.07 2.89 8.76 5.62 8.08 1-3.17-3-3.84-5.62-8.08z" class="G"/><path d="M170.85 159.5c2 4.07 2.89 8.76 5.62 8.08 1-3.17-3-3.84-5.62-8.08z" class="H"/><path d="M177.07 166.84c-1.18-2.15 2.17-2.91 3-5.89.45 3.89 0 6.67-3 5.89z" class="G"/><path d="M177.07 166.84c-1.18-2.15 2.17-2.91 3-5.89.45 3.89 0 6.67-3 5.89z" class="H"/><path d="M182.76 139.26c2 .53 4-1.67 3.31-5-2.24.56-3.27 2.6-3.31 5z" class="G"/><path d="M182.76 139.26c2 .53 4-1.67 3.31-5-2.24.56-3.27 2.6-3.31 5z" class="H"/><use xlink:href="#F" class="G"/><use xlink:href="#F" class="H"/><use xlink:href="#G" class="G"/><use xlink:href="#G" class="H"/><path d="M192.41 148.55c-.76 1.12-2 .47-1.29-1.32.58-1.23.64-2.77 1.29-3.68a20.08 20.08 0 0 1 3.29-3.34c.89-.89 1.64 0 .81.72a22.08 22.08 0 0 0-2.67 3.18c-1.12 1.82-.63 3.28-1.43 4.44z" class="G"/><path d="M192.41 148.55c-.76 1.12-2 .47-1.29-1.32.58-1.23.64-2.77 1.29-3.68a20.47 20.47 0 0 1 3.29-3.34c.89-.89 1.64 0 .81.72a22.08 22.08 0 0 0-2.67 3.18c-1.12 1.82-.63 3.28-1.43 4.44z" class="H"/><use xlink:href="#H" class="G"/><use xlink:href="#H" class="H"/><use xlink:href="#I" class="G"/><use xlink:href="#I" class="H"/><path d="M170.82 163.7c.61.72 1.63.24.7-.74-.76-.79-.51-1-1-2a10.48 10.48 0 0 0-1-2.43c-.49-.73-1.23 0-.73.62s.45 1.26.83 2c.7 1.21.53 1.83 1.17 2.59z" class="G"/><path d="M170.82 163.7c.61.72 1.63.24.7-.74-.76-.79-.51-1-1-2a10.48 10.48 0 0 0-1-2.43c-.49-.73-1.23 0-.73.62s.45 1.26.83 2c.7 1.21.53 1.84 1.17 2.59z" class="H"/><use xlink:href="#J" class="G"/><use xlink:href="#J" class="H"/><use xlink:href="#K" class="G"/><use xlink:href="#K" class="H"/><g class="G"><path d="M233.25 211.16c.75 1.43 1.62 3.61 3.21 3.21 0-1.1-1.71-1.86-3.21-3.21zm2.35.48c3.07 1.26 5.72 1 6 2.88-2.87.31-3.93-.87-6-2.88zm-12.85-10.14a11.15 11.15 0 0 1 4 6.12 22.1 22.1 0 0 0 2.91 6.28 10.45 10.45 0 0 1-4.25-6 21.1 21.1 0 0 0-2.69-6.42zm2.54 0c2.22 1.77 4.31 3.78 4.93 6.28a20.47 20.47 0 0 0 2.54 6.42c-2.34-1.5-3.27-3.75-4-6.2s-2-4.21-3.51-6.5zm7.32 5.78a.88.88 0 0 1 .59-.94l2.09-.67a.94.94 0 0 1 1.24.75v1.6c0 .47-.16.62-.53.71a4.89 4.89 0 0 0-1.94.6.77.77 0 0 1-1.15-.45 8 8 0 0 1-.3-1.6zm8.46 0a.93.93 0 0 0-.5-1 4.26 4.26 0 0 0-1.9-.29c-.73 0-.91.15-.92.52v1.68c0 .47 0 .62.36.71a5 5 0 0 1 2 .52.56.56 0 0 0 .92-.48 13.87 13.87 0 0 1 .08-1.68z" class="I"/><path d="M276.21 149.72c1-1.58 2.17 2.2 6.24 5 1.89 1.29 3.2 4.71 3.21 7 .07 1.55-.17 3.09 0 4.59.11 1 1.1 3.05.43 3.59-1.79 1.33-4.11 4.35-5.18 5.39-.93.81-1.73-4.2-2.43-6.44-.74-2.41-.41-5.28-2.48-7.5-1.47-1.5-5.16-3-4.75-3.64z"/></g><path d="M276.21 149.72c1-1.58 2.17 2.2 6.24 5 1.89 1.29 3.2 4.71 3.21 7 .07 1.55-.17 3.09 0 4.59.11 1 1.1 3.05.43 3.6-1.79 1.32-4.11 4.34-5.18 5.38-.93.81-1.73-4.2-2.43-6.44-.74-2.41-.41-5.28-2.48-7.5-1.47-1.5-5.16-3-4.75-3.64z" class="H"/><path d="M276.42 162a8.17 8.17 0 0 1 1.33-2.07 4.89 4.89 0 0 1 2-1.43 4.27 4.27 0 0 0 1.92-1.22 2.83 2.83 0 0 0 .57-1.18 4.26 4.26 0 0 0 0-1.57c.09.06.13.13.23.2 1.89 1.29 3.21 4.72 3.22 7v1.85a3.11 3.11 0 0 1-.48 1 2.3 2.3 0 0 1-.89.65c-.66.28-1.42.34-2.13.6a5.69 5.69 0 0 0-2.12 1.55 8.05 8.05 0 0 0-1.4 2.13l-.18-.65c-.67-2.18-.56-4.71-2-6.83z" class="G"/><path d="M276.42 162a8.17 8.17 0 0 1 1.33-2.07 4.89 4.89 0 0 1 2-1.43 4.27 4.27 0 0 0 1.92-1.22 2.83 2.83 0 0 0 .57-1.18 4.26 4.26 0 0 0 0-1.57c.09.06.13.13.23.2 1.89 1.29 3.21 4.72 3.22 7v1.85a3.11 3.11 0 0 1-.48 1 2.3 2.3 0 0 1-.89.65c-.66.28-1.42.34-2.13.6a5.69 5.69 0 0 0-2.12 1.55 8.05 8.05 0 0 0-1.4 2.13l-.18-.65c-.67-2.18-.56-4.71-2-6.83zm5.79-7.59c.39 2.69-1.11 3.58-2.52 4.1a6.46 6.46 0 0 0-3.27 3.5m9.41 1.24c-.62 2.32-2.24 2-3.65 2.55a7.6 7.6 0 0 0-3.61 3.78" class="H"/><path d="M277.58 148.09l-.74-.48-14.2 23.92.74.47 14.2-23.91z" class="G"/><path d="M277.58 148.09l-.74-.48-14.2 23.92.74.47 14.2-23.91z" class="H"/><use xlink:href="#L" class="G"/><use xlink:href="#L" class="H"/><path d="M258.16 127.91h5.75v1.32h-5.75z" class="G"/><path d="M258.16 127.91h5.75v1.32h-5.75z" class="H"/><path d="M258.16 130.42h5.75v11.02h-5.75z" class="G"/><path d="M258.16 130.42h5.75v11.02h-5.75z" class="H"/><path d="M264.26 126.41h-6.38c-.25-2.17 1.91-4.51 3.17-4.48s3.26 2.37 3.21 4.44z" class="G"/><path d="M264.26 126.41h-6.38c-.25-2.17 1.91-4.51 3.17-4.48s3.26 2.37 3.21 4.44z" class="H"/><g class="G"><path d="M247.97 125.11a5.78 5.78 0 0 1 2.73 3.5 9.89 9.89 0 0 1 .52 4.87h0a3.4 3.4 0 0 1-.4 1.12.84.84 0 0 1-.55.45.5.5 0 0 1-.52-.25 1.08 1.08 0 0 1-.15-.67 13.19 13.19 0 0 0-.25-4.33 6.19 6.19 0 0 0-2.38-3.5.92.92 0 0 1-.4-.57.56.56 0 0 1 .23-.5 1.15 1.15 0 0 1 1.17-.15zm-.12.35a1 1 0 0 0-.83.07.18.18 0 0 0-.07.18c0 .07.06.18.25.32a6.62 6.62 0 0 1 2.5 3.7 13.46 13.46 0 0 1 .25 4.45.67.67 0 0 0 .1.45c0 .09.09.12.15.1s.2-.09.32-.3a2.81 2.81 0 0 0 .35-1 9.73 9.73 0 0 0-.52-4.7 5.45 5.45 0 0 0-2.5-3.27zm-1.93 1.22a4.86 4.86 0 0 1 2.42 3.35 10.89 10.89 0 0 1 .23 4.7c-.21 1-.75 1.57-1.28 1.65a.67.67 0 0 1-.67-.27 1 1 0 0 1-.13-.85 10.49 10.49 0 0 0 .2-4.05 4.81 4.81 0 0 0-1.77-3.3.88.88 0 0 1-.4-.57.61.61 0 0 1 .22-.53 1.19 1.19 0 0 1 1.18-.13zm-.15.35a.86.86 0 0 0-.8.08c-.08.06-.11.1-.1.17s.08.19.27.33a5.17 5.17 0 0 1 1.93 3.55 10.94 10.94 0 0 1-.23 4.18.68.68 0 0 0 .08.57.29.29 0 0 0 .32.12c.31 0 .79-.44 1-1.37a10.67 10.67 0 0 0-.23-4.55 4.45 4.45 0 0 0-2.22-3.08z" class="I"/><path d="M257.8 150.41h6.42v8.89h-6.42z"/></g><path d="M257.8 150.41h6.42v8.89h-6.42z" class="H"/><path d="M257.65 164.38h6.2v1.87h-6.2z" class="G"/><path d="M257.65 164.38h6.2v1.87h-6.2z" class="H"/><path d="M257.65 167.66H264v6.95h-6.35z" class="G"/><path d="M257.65 167.66H264v6.94h-6.35z" class="H"/><path d="M257.5 176.03h6.94v3.88h-6.94z" class="G"/><path d="M257.5 176.03h6.94v3.88h-6.94z" class="H"/><path d="M263.59 162.71H258l-1.11-1.85h7.7l-1 1.85z" class="G"/><path d="M263.59 162.71H258l-1.11-1.85h7.7l-1 1.85z" class="H"/><path d="M256.07 155.9l-.06-4.86h-3.85a14 14 0 0 1 3.91 4.86z" class="G"/><path d="M256.07 155.9l-.06-4.86h-3.85a14 14 0 0 1 3.91 4.86zm7.17 2c0 1-1.21.58-1.21.05v-4.46c0-.84-2-.63-2-.12v4.8c0 .77-1.29.7-1.27 0v-5.67c0-1.68 4.39-1.64 4.43 0v5.41zm-4.58 10.6h4.55v5.68h-4.55z" class="H"/><path d="M258.69 170.84h1.61v.93h-1.61z" class="G"/><path d="M258.69 170.84h1.61v.93h-1.61z" class="H"/><path d="M261.53 170.84h1.57v.93h-1.57z" class="G"/><path d="M261.53 170.84h1.57v.93h-1.57z" class="H"/><path d="M260.3 168.55h1.23v2.32h-1.23z" class="G"/><path d="M260.3 168.55h1.23v2.32h-1.23z" class="H"/><path d="M260.3 171.73h1.23v2.47h-1.23z" class="G"/><path d="M260.3 171.73h1.23v2.47h-1.23z" class="H"/><path d="M286.88 111.68c-.29 4.45 1.1 6.89 3.46 6.52.64-2.47-.84-4.13-3.46-6.52z" class="G"/><path d="M286.88 111.68c-.29 4.45 1.1 6.89 3.46 6.52.64-2.47-.84-4.13-3.46-6.52z" class="H"/><path d="M292.07 121.55c2.1-1.07.59-9.21-.22-12.62-.59 4.39-1.59 10.64.22 12.62z" class="G"/><path d="M292.07 121.55c2.1-1.07.59-9.21-.22-12.62-.59 4.39-1.59 10.64.22 12.62z" class="H"/><path d="M291.31 121.93c-3.53 1.23-6.31-2.57-7.26-7 2.91 4 7.64 4 7.26 7z" class="G"/><path d="M291.31 121.93c-3.53 1.23-6.31-2.57-7.26-7 2.91 4 7.64 4 7.26 7z" class="H"/><path d="M293.98 126.04c2.76-.72 1.1-9.36.6-12.82-.61 3.57-2.51 11.64-.6 12.82z" class="G"/><path d="M293.98 126.04c2.76-.72 1.1-9.36.6-12.82-.61 3.57-2.51 11.64-.6 12.82z" class="H"/><path d="M293.07 125.77c-.16-3-3.13-2.12-5.18-3.71a4.49 4.49 0 0 0 5.18 3.71z" class="G"/><path d="M293.07 125.77c-.16-3-3.13-2.12-5.18-3.71a4.49 4.49 0 0 0 5.18 3.71z" class="H"/><path d="M296.41 129.77c2.73-.74 1.09-10 1.25-13.87-.8 3.31-3.34 13-1.25 13.87z" class="G"/><path d="M296.41 129.77c2.73-.74 1.09-10 1.25-13.87-.8 3.31-3.34 13-1.25 13.87z" class="H"/><path d="M295.14 129.36a4.2 4.2 0 0 1-5.43-3.39c1.93 1.31 5 .31 5.43 3.39z" class="G"/><path d="M295.14 129.36a4.2 4.2 0 0 1-5.43-3.39c1.93 1.31 5 .31 5.43 3.39z" class="H"/><path d="M298.45 133.87c2.62.21 1.45-7.71 1.44-15.09-1 6.9-3.57 13.21-1.44 15.09z" class="G"/><path d="M298.45 133.87c2.62.21 1.45-7.71 1.44-15.09-1 6.9-3.57 13.21-1.44 15.09z" class="H"/><path d="M297.55 133.5c-1.77.88-4.93-.53-5.83-3.51 3.19 1.38 5.32 0 5.83 3.51z" class="G"/><path d="M297.55 133.5c-1.77.88-4.93-.53-5.83-3.51 3.19 1.38 5.32 0 5.83 3.51z" class="H"/><path d="M277.07 115.8c.46 3.87 2 6.11 4.4 5.74.65-2.47-1.26-4.05-4.4-5.74z" class="G"/><path d="M277.07 115.8c.46 3.87 2 6.11 4.4 5.74.65-2.47-1.26-4.05-4.4-5.74z" class="H"/><path d="M283.28 125.71c-3.91.56-5.32-2.44-8-6.29 3.7 2.67 8.11 3.23 8 6.29z" class="G"/><path d="M283.28 125.71c-3.91.56-5.32-2.44-8-6.29 3.7 2.67 8.11 3.23 8 6.29z" class="H"/><path d="M284.4 125.28c2.13-2.57.07-5.79-1.56-8.53.35 4.08-1 6.35 1.56 8.53z" class="G"/><path d="M284.4 125.28c2.13-2.57.07-5.79-1.56-8.53.35 4.08-1 6.35 1.56 8.53z" class="H"/><path d="M285.34 129.5c.24-2.51-4-3.07-6-4.46.65 1.45 1.64 5.35 6 4.46z" class="G"/><path d="M285.34 129.5c.24-2.51-4-3.07-6-4.46.65 1.45 1.64 5.35 6 4.46z" class="H"/><path d="M286.24 129.56c3-.33 1.72-5.35-.39-8.13.89 3.84-1.56 6.52.39 8.13z" class="G"/><path d="M286.24 129.56c3-.33 1.72-5.35-.39-8.13.89 3.84-1.56 6.52.39 8.13z" class="H"/><path d="M288.46 133.74c3.36-1.49 1.21-5.7 0-8.19.54 3.27-2.16 5.76 0 8.19z" class="G"/><path d="M288.46 133.74c3.36-1.49 1.21-5.7 0-8.19.54 3.27-2.16 5.76 0 8.19z" class="H"/><path d="M287.8 133.35c-1.77 2.3-5.2-.69-5.91-4.18 3 2.49 5.2 2.08 5.91 4.18z" class="G"/><path d="M287.8 133.35c-1.77 2.3-5.2-.69-5.91-4.18 3 2.49 5.2 2.08 5.91 4.18z" class="H"/><path d="M295.48 149.55c.34-3.43-2.24-9.66-.41-13 .25-.46-.54-1.67-1.06-.93-.8 1.17-1.63 4.52-2 3.28s-.42-3.72-1.61-4.18c-.76-.27-1.83-.45-1.54.75s.94 2.73.22 2.84c-.42.06-1.62-1.57-2.64-2.32-.82-.67-2 .38-.84 1.39 3.89 3.22 7.65 4.68 9.86 12.16z" class="G"/><path d="M295.48 149.55c.34-3.43-2.24-9.66-.41-13 .25-.46-.54-1.66-1.06-.93-.8 1.17-1.63 4.52-2 3.28s-.42-3.71-1.61-4.18c-.76-.27-1.83-.44-1.54.75s.94 2.73.22 2.84c-.42.06-1.62-1.57-2.64-2.32-.82-.67-2 .38-.84 1.39 3.89 3.22 7.65 4.68 9.86 12.16z" class="H"/><use xlink:href="#M" class="G"/><use xlink:href="#M" class="H"/><use xlink:href="#N" class="G"/><use xlink:href="#N" class="H"/><path d="M305.59 146.84c1-1 .69-1.41-.75-1.42-1.14-.08-3.4.7-4.25.07s-.48-3-.82-4.11c-.16-.62-.59-1.6-1.57-.07-2.9 4.64-6.52 10.22-8.07 15.68a13 13 0 0 0 2.77 11c-.1-2.74.92-4.58 2.16-6.87 1.54-3 7.25-11.16 10.53-14.33zm-11.95 24.41c-3.18 0-3.73-4.25-3.73-5.45 1.57.3 4.33 2.91 3.73 5.45z" class="G"/><path d="M293.64 171.25c-3.18 0-3.73-4.25-3.73-5.45 1.57.3 4.33 2.91 3.73 5.45z" class="H"/><path d="M266.07 212.71c-2.27.51-2.24-4.94.08-7.26-1 3.51 1.7 6.71-.08 7.26z" class="G"/><path d="M266.07 212.71c-2.27.51-2.24-4.94.08-7.26-1 3.51 1.7 6.71-.08 7.26z" class="H"/><path d="M266.99 212.66c-.15 2.59 6.36-.34 8-2.36-3.85 1.64-7.85.29-8 2.36z" class="G"/><path d="M266.99 212.66c-.15 2.59 6.36-.34 8-2.36-3.85 1.64-7.85.29-8 2.36z" class="H"/><path d="M269.85 208.96c-.24 2.51 5.65.3 7.39-1.66-3.87 1.25-7.14-.41-7.39 1.66z" class="G"/><path d="M269.85 208.96c-.24 2.51 5.65.3 7.39-1.66-3.87 1.25-7.14-.41-7.39 1.66z" class="H"/><path d="M268.76 209.31c-2.26.51-1.89-5.13.31-7.07-1.06 3.76 1.48 6.52-.31 7.07z" class="G"/><path d="M268.76 209.31c-2.26.51-1.89-5.13.31-7.07-1.06 3.76 1.48 6.52-.31 7.07z" class="H"/><path d="M271.15 205.88c-2.27.51-1-4.35.71-6.29-.27 3.54.85 6-.71 6.29z" class="G"/><path d="M271.15 205.88c-2.27.51-1-4.35.71-6.29-.27 3.54.85 6-.71 6.29z" class="H"/><path d="M272.35 205.86c-.23 2.59 4.34.6 6.12-1.85-3.83 1.25-5.87-.22-6.12 1.85z" class="G"/><path d="M272.35 205.86c-.23 2.59 4.34.6 6.12-1.85-3.83 1.25-5.87-.22-6.12 1.85z" class="H"/><path d="M273.6 203.89c-1.49-1.07.09-3.89 2.92-3.71-.28 1.7-1.26 4.7-2.92 3.71z" class="G"/><path d="M273.6 203.89c-1.49-1.07.09-3.89 2.92-3.71-.28 1.7-1.26 4.7-2.92 3.71z" class="H"/><path d="M262.44 215.6c-.15 2.59 6.36 1.3 8.41-1.46-4.11.77-8.22-.62-8.41 1.46z" class="G"/><path d="M262.44 215.6c-.15 2.59 6.36 1.3 8.41-1.46-4.11.77-8.22-.62-8.41 1.46z" class="H"/><path d="M288.33 210.96c-.24 2.58 6.88-.26 8.65-2.71-3.82 1.25-8.4.64-8.65 2.71z" class="G"/><path d="M288.33 210.96c-.24 2.58 6.88-.26 8.65-2.71-3.82 1.25-8.4.64-8.65 2.71z" class="H"/><path d="M283.96 212.06c-1.48-1.07 1.55-3.82 4-4.46-.28 1.7-2.3 5.45-4 4.46z" class="G"/><path d="M283.96 212.06c-1.48-1.07 1.55-3.82 4-4.46-.28 1.7-2.3 5.45-4 4.46z" class="H"/><path d="M283.51 213.85c-.16 2.33 7.63 1 9.67-1.1-6.7 1.21-9.45-.89-9.67 1.1z" class="G"/><path d="M283.51 213.85c-.16 2.33 7.63 1 9.67-1.1-6.7 1.21-9.45-.89-9.67 1.1z" class="H"/><path d="M279.86 215.4c-.86 2.17 6.61 1.64 9.24.38-4.25 0-8.64-1.88-9.24-.38z" class="G"/><path d="M279.86 215.4c-.86 2.17 6.61 1.64 9.24.38-4.25 0-8.64-1.88-9.24-.38z" class="H"/><path d="M276.37 216.98c-.83 1.94 6.08 1.89 9.45.82-4.46 0-8.64-2.74-9.45-.82z" class="G"/><path d="M276.37 216.98c-.83 1.94 6.08 1.89 9.45.82-4.46 0-8.64-2.74-9.45-.82z" class="H"/><path d="M271.34 218.02c-1.23 2.29 6.07 2.52 8.43 1.39-4.22-.58-7.39-3.2-8.43-1.39z" class="G"/><path d="M271.34 218.02c-1.23 2.29 6.07 2.52 8.43 1.39-4.22-.58-7.39-3.2-8.43-1.39z" class="H"/><path d="M279.88 214.1c2.32 1.46 2.19-2.85 4-5.84-2.9 2.64-5.62 4.44-4 5.84z" class="G"/><path d="M279.88 214.1c2.32 1.46 2.19-2.85 4-5.84-2.9 2.64-5.62 4.44-4 5.84z" class="H"/><path d="M275.77 215.65c1.94 1.72 3.5-4.19 5.27-7.52-2.86 3.17-7.07 6.09-5.27 7.52z" class="G"/><path d="M275.77 215.65c1.94 1.72 3.5-4.19 5.27-7.52-2.86 3.17-7.07 6.09-5.27 7.52z" class="H"/><path d="M270.33 217.3c1.65 1.91 6.41-5.62 8.15-9.53-2.64 3.05-9.46 7.91-8.15 9.53z" class="G"/><path d="M270.33 217.3c1.65 1.91 6.41-5.62 8.15-9.53-2.64 3.05-9.46 7.91-8.15 9.53z" class="H"/><path d="M274.96 223.04c.83 2.91 13-2.74 14.31-5.66-6.94 3.68-14.47 2.91-14.31 5.66z" class="G"/><path d="M274.96 223.04c.83 2.91 13-2.74 14.31-5.66-6.94 3.68-14.47 2.91-14.31 5.66z" class="H"/><use xlink:href="#O" class="G"/><use xlink:href="#O" class="H"/><path d="M285.64 188.39c-1.56 1.15-3.28-3-1.3-6.86.06 3.76 3.05 5 1.3 6.86z" class="G"/><path d="M285.64 188.39c-1.56 1.15-3.28-3-1.3-6.86.06 3.76 3.05 5 1.3 6.86z" class="H"/><path d="M284.14 192.16c-2.15.66-2.83-3.14-1.41-6.2-.23 3.28 3.39 5.25 1.41 6.2z" class="G"/><path d="M284.14 192.16c-2.15.66-2.83-3.14-1.41-6.2-.23 3.28 3.39 5.25 1.41 6.2z" class="H"/><path d="M282.5 195.19c-2.08 1-2.87-2.81-1.37-5.67-.17 3.64 3 4.72 1.37 5.67z" class="G"/><path d="M282.5 195.19c-2.08 1-2.87-2.81-1.37-5.67-.17 3.64 3 4.72 1.37 5.67z" class="H"/><path d="M283.36 195.42c.82 2.46 5.6-2.12 6.41-4.62-3 3-7 2.62-6.41 4.62z" class="G"/><path d="M283.36 195.42c.82 2.46 5.6-2.12 6.41-4.62-3 3-7 2.62-6.41 4.62z" class="H"/><path d="M285.53 191.65c.93 2.47 6.95-3.88 8.27-6.93-3 2.94-8.94 5.19-8.27 6.93z" class="G"/><path d="M285.53 191.65c.93 2.47 6.95-3.88 8.27-6.93-3 2.94-8.94 5.19-8.27 6.93z" class="H"/><path d="M286.72 187.96c.94 2.8 7.47-4.67 9.32-7.31-3.11 2.91-10 5.27-9.32 7.31z" class="G"/><path d="M286.72 187.96c.94 2.8 7.47-4.67 9.32-7.31-3.11 2.91-10 5.27-9.32 7.31z" class="H"/><path d="M286.93 185.19c-2.31-.45.13-2.37 2.95-5.48.13 3.28-.41 5.57-2.95 5.48z" class="G"/><path d="M286.93 185.19c-2.31-.45.13-2.37 2.95-5.48.13 3.28-.41 5.57-2.95 5.48z" class="H"/><path d="M290.8 183.32c-1-1.08 1-1.54 3.37-4.24.35 1.82-2.24 5.16-3.37 4.24z" class="G"/><path d="M290.8 183.32c-1-1.08 1-1.54 3.37-4.24.35 1.82-2.24 5.16-3.37 4.24z" class="H"/><path d="M279.67 195.5c-1.26.74-2.12-1.84-.55-4.18.36 2.53 1.7 3.24.55 4.18z" class="G"/><path d="M279.67 195.5c-1.26.74-2.12-1.84-.55-4.18.36 2.53 1.7 3.24.55 4.18z" class="H"/><path d="M307.07 179.2c2.67 1.61 6.93-4.79 8.06-7.42-2.35 3-8.56 5.78-8.06 7.42z" class="G"/><path d="M307.07 179.2c2.67 1.61 6.93-4.79 8.06-7.42-2.35 3-8.56 5.78-8.06 7.42z" class="H"/><path d="M304.75 182.93c1.48 1.64 6.14-2.81 7.75-5.07-2.49 2.16-8.4 2.42-7.75 5.07z" class="G"/><path d="M304.75 182.93c1.48 1.64 6.14-2.81 7.75-5.07-2.49 2.16-8.4 2.42-7.75 5.07z" class="H"/><path d="M302.21 186.28c.49 2.24 7.29-2.8 8.88-5.19-2.93 2.76-9.32 2.52-8.88 5.19z" class="G"/><path d="M302.21 186.28c.49 2.24 7.29-2.8 8.88-5.19-2.93 2.76-9.32 2.52-8.88 5.19z" class="H"/><path d="M303.25 188.7c1.05 2 6.58-3 7.91-5.59-3.38 2.95-8.76 3.59-7.91 5.59z" class="G"/><path d="M303.25 188.7c1.05 2 6.58-3 7.91-5.59-3.38 2.95-8.76 3.59-7.91 5.59z" class="H"/><path d="M306.07 178.87c-1.74-1.83-1-2.69.27-5.59.7 3 1.75 4.16-.27 5.59z" class="G"/><path d="M306.07 178.87c-1.74-1.83-1-2.69.27-5.59.7 3 1.75 4.16-.27 5.59z" class="H"/><path d="M303.78 182.35c-3.16.14 0-3.71.72-6.94-.27 3.68.81 6.59-.72 6.94z" class="G"/><path d="M303.78 182.35c-3.16.14 0-3.71.72-6.94-.27 3.68.81 6.59-.72 6.94z" class="H"/><path d="M301.76 185.4c-2.19-.49-1.55-3.6.13-7.35-.35 4.06 1.85 6.4-.13 7.35z" class="G"/><path d="M301.76 185.4c-2.19-.49-1.55-3.6.13-7.35-.35 4.06 1.85 6.4-.13 7.35z" class="H"/><path d="M302.51 191.5c.83 2.46 7.06-3.24 8-5.4-3.15 2.64-8.61 3.55-8 5.4z" class="G"/><path d="M302.51 191.5c.83 2.46 7.06-3.24 8-5.4-3.15 2.64-8.61 3.55-8 5.4z" class="H"/><path d="M298.77 195.39c.94 2.46 7.48-2.54 9.48-5.26-3.94 3.1-10 2.81-9.48 5.26z" class="G"/><path d="M298.77 195.39c.94 2.46 7.48-2.54 9.48-5.26-3.94 3.1-10 2.82-9.48 5.26z" class="H"/><path d="M294.96 199.27c1.06 3.43 7.89-2 9.93-4.73-4.36 3.32-10.48 2.28-9.93 4.73z" class="G"/><path d="M294.96 199.27c1.06 3.43 7.89-2 9.93-4.73-4.36 3.32-10.48 2.28-9.93 4.73z" class="H"/><path d="M301.39 190.5c-1.86 1-2.61-4.31-1.56-8 0 4.06 3.72 7.07 1.56 8z" class="G"/><path d="M301.39 190.5c-1.86 1-2.61-4.31-1.56-8 0 4.06 3.72 7.07 1.56 8z" class="H"/><path d="M298.22 194.63c-2.23.66-1.52-5 .39-8.7.24 3.65 1.89 7.11-.39 8.7z" class="G"/><path d="M298.22 194.63c-2.23.66-1.52-5 .39-8.7.24 3.65 1.89 7.11-.39 8.7z" class="H"/><path d="M294.26 198.55c-2.49.14-.78-4.87 1.28-7.69-.35 3.68.81 7.26-1.28 7.69z" class="G"/><path d="M294.26 198.55c-2.49.14-.78-4.87 1.28-7.69-.35 3.68.81 7.26-1.28 7.69z" class="H"/><path d="M298.63 200.68c.75 1.27 2.58-1.08 5.59-2.79-2.7.71-5.92 1.62-5.59 2.79z" class="G"/><path d="M298.63 200.68c.75 1.27 2.58-1.08 5.59-2.79-2.7.71-5.92 1.62-5.59 2.79z" class="H"/><path d="M300.07 158.5c-2.32-1.72-.55-4.94 0-8 .75 2.9 2.72 6.71 0 8z" class="G"/><path d="M300.07 158.5c-2.32-1.72-.55-4.94 0-8 .75 2.91 2.72 6.71 0 8z" class="H"/><path d="M300.13 162.78c3.5-.42 3-4.94 3.08-7.8-1 3.89-3.92 4.54-3.08 7.8z" class="G"/><path d="M300.13 162.78c3.5-.42 3-4.94 3.08-7.8-1 3.89-3.92 4.54-3.08 7.8z" class="H"/><path d="M299.58 162.19c-3-.17-2.8-3.53-3-6.93 1.5 3.13 3.28 3.61 3 6.93z" class="G"/><path d="M299.58 162.2c-3-.18-2.8-3.54-3-6.94 1.5 3.13 3.28 3.61 3 6.94z" class="H"/><path d="M299.7 166.37c2.3.18 3.49-2.07 4-5.59-2.18 3.24-4.16 2.23-4 5.59z" class="G"/><path d="M299.7 166.37c2.3.18 3.49-2.07 4-5.59-2.18 3.24-4.16 2.23-4 5.59z" class="H"/><path d="M298.88 166.09c-3 .38-2.49-3.06-2.37-5.59.91 2.41 3.31 3.18 2.37 5.59z" class="G"/><path d="M298.88 166.09c-3 .38-2.49-3.06-2.37-5.59.91 2.41 3.31 3.18 2.37 5.59z" class="H"/><path d="M303.48 164.64c-.23 2.24-1.65 6.1-3.93 5.23-1-2.75 2-3.3 3.93-5.23z" class="G"/><path d="M303.48 164.64c-.23 2.24-1.65 6.1-3.93 5.23-1-2.75 2-3.3 3.93-5.23z" class="H"/><use xlink:href="#P" class="G"/><use xlink:href="#P" class="H"/><path d="M308.37 146.77c-1.84-2-.22-5.12.33-8.18.75 2.9 2 6.75-.33 8.18z" class="G"/><path d="M308.37 146.77c-1.84-2-.22-5.12.33-8.18.75 2.9 2 6.75-.33 8.18z" class="H"/><path d="M308.42 150.5c3.23.33 4-6.25 4.35-9.07-1.06 3.89-4.78 5.66-4.35 9.07z" class="G"/><path d="M308.42 150.5c3.23.33 4-6.25 4.35-9.07-1.06 3.89-4.78 5.66-4.35 9.07z" class="H"/><path d="M307.76 150.39c-2.28-1.18-1.76-3.71-2.47-5.62 1.53 2.34 2.93 2.67 2.47 5.62z" class="G"/><path d="M307.76 150.4c-2.28-1.19-1.76-3.72-2.47-5.63 1.53 2.34 2.93 2.67 2.47 5.63z" class="H"/><path d="M308.4 154.7c3.38.29 5.39-7 5.5-9.86-1 3.89-5.9 6-5.5 9.86z" class="G"/><path d="M308.4 154.7c3.38.29 5.39-7 5.5-9.86-1 3.89-5.9 6-5.5 9.86z" class="H"/><path d="M307.75 154.59c-3.18-.74-2.8-2.79-2.32-6.12 1 3.35 2.78 2.64 2.32 6.12z" class="G"/><path d="M307.75 154.59c-3.18-.74-2.8-2.79-2.32-6.12 1 3.35 2.78 2.64 2.32 6.12z" class="H"/><path d="M308.44 158.9c3.72.63 3.45-5.25 6.4-9.51-2.55 3.16-7.15 7.16-6.4 9.51z" class="G"/><path d="M308.44 158.9c3.72.63 3.45-5.25 6.4-9.51-2.55 3.16-7.15 7.16-6.4 9.51z" class="H"/><path d="M307.6 158.7c-2.81.08-3.08-4.14-2.93-5.86.65 1.71 3.95 3.33 2.93 5.86z" class="G"/><path d="M307.6 158.7c-2.81.08-3.08-4.14-2.93-5.86.65 1.71 3.95 3.33 2.93 5.86z" class="H"/><path d="M314.25 154.37c-1.4 4.52-3.38 9.06-5.81 8.72-1.17-2.58 2.31-2.91 5.81-8.72z" class="G"/><path d="M314.25 154.37c-1.4 4.53-3.38 9.06-5.81 8.72-1.17-2.58 2.31-2.91 5.81-8.72z" class="H"/><use xlink:href="#P" x="8.72" y="-7.7" class="G"/><use xlink:href="#P" x="8.72" y="-7.7" class="H"/><path d="M313.28 159.5c-2 4.07-2.88 8.76-5.61 8.08-1-3.17 3-3.84 5.61-8.08z" class="G"/><path d="M313.28 159.5c-2 4.07-2.88 8.76-5.61 8.08-1-3.17 3-3.84 5.61-8.08z" class="H"/><path d="M307.07 166.84c1.18-2.15-2.17-2.91-3-5.89-.45 3.89 0 6.67 3 5.89z" class="G"/><path d="M307.07 166.84c1.18-2.15-2.17-2.91-3-5.89-.45 3.89 0 6.67 3 5.89z" class="H"/><path d="M301.37 139.26c-2 .53-4-1.67-3.3-5 2.24.56 3.27 2.6 3.3 5z" class="G"/><path d="M301.37 139.26c-2 .53-4-1.67-3.3-5 2.24.56 3.27 2.6 3.3 5z" class="H"/><use xlink:href="#Q" class="G"/><use xlink:href="#Q" class="H"/><use xlink:href="#R" class="G"/><use xlink:href="#R" class="H"/><path d="M291.73 148.55c.76 1.12 2 .47 1.29-1.32-.58-1.23-.65-2.77-1.29-3.68a20.08 20.08 0 0 0-3.29-3.34c-.89-.89-1.64 0-.82.72a21.56 21.56 0 0 1 2.68 3.18c1.12 1.82.63 3.28 1.43 4.44z" class="G"/><path d="M291.73 148.55c.76 1.12 2 .47 1.29-1.32-.58-1.23-.65-2.77-1.29-3.68a20.47 20.47 0 0 0-3.29-3.34c-.89-.89-1.64 0-.82.72a21.56 21.56 0 0 1 2.68 3.18c1.12 1.82.63 3.28 1.43 4.44z" class="H"/><use xlink:href="#S" class="G"/><use xlink:href="#S" class="H"/><use xlink:href="#T" class="G"/><use xlink:href="#T" class="H"/><path d="M313.32 163.7c-.61.72-1.63.24-.7-.74.76-.79.51-1 1-2a10.48 10.48 0 0 1 1-2.43c.49-.73 1.23 0 .73.62s-.45 1.26-.83 2c-.7 1.21-.53 1.83-1.17 2.59z" class="G"/><path d="M313.32 163.7c-.61.72-1.63.24-.7-.74.76-.79.51-1 1-2a10.48 10.48 0 0 1 1-2.43c.49-.73 1.23 0 .73.62s-.45 1.26-.83 2c-.7 1.21-.53 1.84-1.17 2.59z" class="H"/><use xlink:href="#U" class="G"/><use xlink:href="#U" class="H"/><use xlink:href="#V" class="G"/><use xlink:href="#V" class="H"/><g class="G"><path d="M250.89 211.16c-.75 1.43-1.63 3.61-3.21 3.21 0-1.1 1.71-1.86 3.21-3.21zm-2.35.48c-3.07 1.26-5.72 1-6 2.88 2.87.31 3.92-.87 6-2.88zm12.85-10.14a11.15 11.15 0 0 0-4 6.12 22.1 22.1 0 0 1-2.91 6.28 10.45 10.45 0 0 0 4.25-6 21.1 21.1 0 0 1 2.69-6.42zm-2.54 0c-2.22 1.77-4.31 3.78-4.93 6.28a20.47 20.47 0 0 1-2.54 6.42c2.34-1.5 3.27-3.75 4-6.2s2-4.21 3.51-6.5zm-7.32 5.78a.88.88 0 0 0-.59-.94l-2.09-.67a.94.94 0 0 0-1.24.75v1.6c0 .47.16.62.53.71a4.89 4.89 0 0 1 1.94.6.77.77 0 0 0 1.15-.45 8 8 0 0 0 .3-1.6zm-8.46 0a.93.93 0 0 1 .5-1 4.26 4.26 0 0 1 1.9-.29c.73 0 .91.15.92.52v1.68c0 .47 0 .62-.36.71a4.94 4.94 0 0 0-2 .52.56.56 0 0 1-.92-.48 13.87 13.87 0 0 0-.08-1.68z" class="I"/><path d="M264.9 229.82a4.06 4.06 0 0 0 .71 2.46c-3.26-1.3-7.86-.6-11 .86-1.41.67-3.1-.77-1.46-2.12 2.34-1.9 7.77-.83 11.76-1.2zm-46-.05a5.4 5.4 0 0 1-.39 2.48c3.55-1.46 7.35-.24 10.94 1.2 2.46 1 2.65-.74 2.22-1.35a5.19 5.19 0 0 0-4-2.3c-1.22 0-5.91-.06-8.75 0zm3-17.31c-1-.43-2.14 0-3.17 1.06a131.66 131.66 0 0 1-10.8 9.27c-1.22 1.06-2.47 3 2.74 4.88a27.07 27.07 0 0 0 6.41 1.57c1 0 1 1.44.8 1.83-.42.78-.12 1.09-1 1.84s.1 1.69.78 1c2.94-2.55 7.71-.92 12.3.58 1.08.3 3.07.21 3.05-1.28s1.2-2.79 1.92-2.83a95 95 0 0 0 14 .08c1.66-.21 1.76 2.28 2.65 3.27.62.65 3 .82 4.6.1 3.2-1.48 8.08-1.48 10.07-.06.81.62 1.46.12 1-.52a7.57 7.57 0 0 1-.88-1.94c-.75-1.52-.15-1.89.63-2 8.84-1.14 11.67-4.16 9-6.62a136.09 136.09 0 0 1-10.72-9.76c-.91-1-1.51-1.34-3.4-.56a53.2 53.2 0 0 1-20.29 4.69c-6.67.06-15.86-3-19.67-4.64z"/><path d="M263.37 212.93a5.63 5.63 0 0 0-1.33.33c-7.13 2.51-13.69 4.26-20.52 4.25a54 54 0 0 1-19.93-4.43 1.8 1.8 0 0 0-1.17 0 2.36 2.36 0 0 0-1.08.55 92 92 0 0 1-9.45 8.27 1 1 0 0 0 .4 1.72h0c6.64 2.39 13.13 6.83 31.69 6.66 18.75-.18 25.4-4.51 31.36-6.5a1.91 1.91 0 0 0 1.05-.78.85.85 0 0 0 0-.65 1.54 1.54 0 0 0-.5-.67h0c-3.38-2.77-7-5-9.37-8.33a1.25 1.25 0 0 0-1.2-.4zm0 .35c.41 0 .72 0 .87.25 2.44 3.44 6.1 5.66 9.45 8.4a1.27 1.27 0 0 1 .41.53.42.42 0 0 1 0 .35 1.69 1.69 0 0 1-.85.6c-6 2-12.53 6.32-31.23 6.5-18.49.17-24.87-4.25-31.57-6.65a.7.7 0 0 1-.32-1.1 92.8 92.8 0 0 0 9.5-8.31 2 2 0 0 1 .87-.44 1.59 1.59 0 0 1 1 0c6.31 2.59 13.3 4.46 20 4.47 6.9 0 13.52-1.76 20.68-4.27a5.21 5.21 0 0 1 1.22-.33z"/></g></g><path d="M217.84 92.15c-.06-1.1.08-1.17-.11.35-.25 1.89 5.13 6.65 5.45 9.6.21 2-1.16 3.71-2.52 4.79a5.32 5.32 0 0 1-5.44.37c-.72-.58-1.38-2.58-.84-3.38.19-.26 1.06 2.94 3 2.93 2.61 0 4.72-2 4.8-3.72.13-3-4.26-7.85-4.31-10.94zm6.05 7.53c.43-.31 2.69 1 2.21 1.35s-1.2-1-.64-1.37z"/><path d="M226.62 96.93c-.21.11-.65 0-.52-.23a9.68 9.68 0 0 1 2.85-2.64 6.61 6.61 0 0 0-1 .65c-.56.8-.36 1.73-1.38 2.22zm10.07-7.99c.25-.51 1.7-1.08 2.07-1.42s.5.3.36.6c-.25.51-3.07 1.38-3.62 1.41-.29 0 1.05-.28 1.19-.59zm3.45.16a6.63 6.63 0 0 1 2-2.67c.36-.23 1-.05.88.29a8.39 8.39 0 0 1-2.34 2.68c-.26.23-.64-.1-.57-.3zm-2.95 2.22c-.21.1-.1.55.11.62.43.14-.36.19 0 0s1.85-2.3 1.16-1.26c-.47.65-.8.44-1.27.64zm-5.83 4.49c-1.06-.82.28-2 1.38-1.17 2.15 1.62-3.2 7.82-6.11 10.73-.53.56-1-.87-.32-1.48 2.09-1.77 2.48-3.86 3.83-6.05.26-.42 2.08-1.35 1.22-2zm12.21-5.31c.14-.79-1.27 0-1.29-1 0-.55 1.53-.94 2.18-.3 1.09 1.1.27 3-1.55 3.09-1.51.06-4 2.15-3.65 2.58s4.36.9 6.65.54c1.41-.19 1.11 1.07-.34 1.24a19.22 19.22 0 0 0-3.84.42c-1.54.44-2.21 2.51-3.06 3.28-.19.13-.71-.68-.51-1 .61-1 1.59-2.44 2.68-2.86.68-.28-1.88-.37-2.7-.6-.65-.19-.46-1-.21-1.48.33-.71 2.74-3.13 3.71-3.09s1.84-.23 1.93-.81zm4.07.18c.45-.4.68-1.07 1.16-1.47.26-.27.68.05.61.68s-.73.92-1.18 1.3-.78-.32-.59-.51zm5.17-1.84c.68-.07.85 1.23.11 1.44-.45.15-.84-1.36-.11-1.44zm-1.74 4.03c0 1.13.54 1 1.6 1s1.93 0 1.93-1-.59-2-.75-1.26-.27 1.78-.66 1.3-.23-.5-.86.17c-.35.37-.39-.18-.6-.53s-.66.17-.66.32zm-7.34 5.73c-.25 1.49 0 3.57.74 3.59.94 0 2.89-3.25 3.81-4.95.55-.95 1.5-1.11 1.11-.12-.6 1.53-.55 4.8 0 5.76.28.51 2.37-.48 2.71-1.21.61-1.34.11-3.82.33-5.32.1-1 1-1.2 1-.28a59.18 59.18 0 0 0-.13 6 1.36 1.36 0 0 0 2.67-.43c.19-1.5 1-3 0-4.64-.62-1 .91-.91 1.73.51.58 1-.49 2.56-.45 3.79a2.75 2.75 0 0 1-2.45 3c-1 0-1.58-1.15-2.37-1.17s-1.76 1.35-2.48 1.31c-2.79-.19-1.31-4.27-2.16-4.32s-2.06 4-3.23 3.85-2.33-3.3-1.85-4.64 1.24-1.54 1.11-.75zm13.51-6.42c-1.36-.83.08-3 .75-2.23 1.28 1.54 2.58 5.19 3.48 5.49.58.19.55-2.7 1-4 .26-1 1.43-.66 1.21.59-.08.41-1.54 5.14-1.43 5.32a37.8 37.8 0 0 1 2.64 6.23c.26.93-.86.3-1 .11a44.62 44.62 0 0 1-2-5l-1.32 6.17c-.19.78-1.34.64-1.08-.74l1.8-6.87c-1.29-2.29-2.48-4.1-4.05-5.09zm2.45 13.32c-.37 0-1 .84.93 1.19 2.52.46 5.29-.39 6.13-2.87l2.12-6.79c.63-1.23 1.44-1.13.84-2.92-.42-1.29-1.21-.9-1.37-.22-.44 1.89-2.12 8-2.64 9.09-1 2-3 2.85-6 2.52zm5.06-9.74c-.27-.58-.9-.14-.79.5a1 1 0 0 0 1 .87c.56 0 1.73 0 1.73-.9 0-.65-.51-1.19-.89-.47s-.82.57-1.05 0zm.63-2.44c-.19.14 0 .86.21.85a5.54 5.54 0 0 0 2.62-.73c.19-.12.11-.56-.15-.55a5.87 5.87 0 0 0-2.68.43zm7.01 1.81c.6-.93 2.25-1 1.65.31-.42.91-4.52 8.84-5.08 9.85s-1.11.57-.68-.31c.59-1.14 3.92-9.57 4.11-9.85zm-6.18 11.8c-.17-.63-1.15-1.56-1 .12.2 3.07 4.4 2.1 5.68 1s.15 3.46 1.69 3.94c.84.27 2.44-.88 3.22-1.9 2.17-2.82 3.56-6.87 5.65-9.65.79-1.09-.43-1.86-.93-1-1.82 3.05-4.07 9.27-6.54 10.89-2 1.28-1.41-1.66-1.48-2.54a1.13 1.13 0 0 0-1.94-.73 4.48 4.48 0 0 1-2.92.95c-.6 0-1.1 0-1.39-1.09z"/><path d="M273.73 101.24c0-.17-.89-.25-.85.64a.84.84 0 0 0 1 .74c1.23-.9-.26-.45-.1-1.38zm-1.8 3.6c-.24.05-.46.83.11.87s2.57-.18 3.14-.15c.36 0 .5-.71-.28-.67a27.5 27.5 0 0 0-3-.05zM222.37 91.5c.32 0-.36 1.19-.42 1.55 0 .17.62-.05.34-.28s-.12-1.28.08-1.27zm-4.3 8.36c-.81.44.13 1.32.74.95 2.29-1.48 5.72-3 6.44-6a4.71 4.71 0 0 1 2-2.85c.85-.33 2.08 1.53 2.88.06.48-.83 2.13.55 2.53-.34a5.58 5.58 0 0 0 .27-2.72c0-.68-.55-.88-.93.22-.19.5 0 1-.12 1.26s-.5.39-.73.22-.06-.57-.54-.76c-.19-.09-.49-.17-.63.07-.57 1-.89 2-1.69.89-.72-.94-1.09-2.56-1.61-.34a3.08 3.08 0 0 1-2.09 1.93c-.88 0-.66-2.32-2.59-2-1 .21-.93 2.1-.78 2.81.25 1 3.15.27 3 .91-.49 2.22-3.57 4.33-6.18 5.63zm-18.16 10.58a1.5 1.5 0 0 0 .88 1.45c.5 0-.81-1.07-1-1.43s.18-.29.09 0zm2.66 3.9c-.32-.35-1.27.59-.5 1.24.43.35 2 .86 2.44.12.59-.95-.57-4.39-.06-4.85s2.26 2.31 3.18 2.5c2.16.29 1.64-3.7 4-3.43 1.58.21 1.75-1.77 1.53-3s-2.1-2.9-3-3.67c-1.16-1-1.68.71-1 1.27.94.75 2.59 2.27 2.85 3.27.13.48-1.14 1.42-1.61 1.16-1.08-.59-3.66-3.09-4.6-3.67a3.73 3.73 0 0 1 .83 1c.43.84 2.33 2.15 2.44 3.05s-.85 2.6-1.47 2.6-2.42-2.15-3-3.16a.73.73 0 0 0-1.31.23 18.36 18.36 0 0 0 .38 4.45c.2 1.25-.7 1.31-1.18.87zm-3.25-6.84c-.27.31.63.91.81.75.35-.3 1.71-1.84 1.44-2.38s-3.66-1.51-4-1c-.56.9 3.33 1.28 3 1.55a5.28 5.28 0 0 0-1.25 1.07zm3.34-6.79s-1 2-.52 1.19a4.12 4.12 0 0 0 .52-1.19zm.94 3.17c-.21.12-.81.6-.42.85.62.36 2.3.65 1.94-.54-.22-.71 2.54 0 1.86-1.89a2.9 2.9 0 0 0-1.41-1.4c-.26-.06-2.72.44-2.16.71.4.21 3.19.9 2.74 1.37s-.87-.22-1.51-.11c-.32.06-.11 1-.3 1.22s-.56-.3-.74-.21zm2.82-7.54c-.35.17.6 1.09.58 1.53 0 .23.24.55.44.45a2.59 2.59 0 0 0 1-1.48c0-.26-.18-.63-.4-.52zm2.27-.25c-.67-.82 2.29-2.06 2.91-.42.38 1 4.39 6.31 5.21 8.11.58 1.21 0 1.71-.74.84-2-2.59-3.7-5.82-5.81-8.55zm5.69.09c.72-.77 2.18-2.36 1.78-3.24a1 1 0 0 0-1.34-.51c-.86 1-1 .8-1.16 1.15-.45.83.68 1.27.46 2.06-.06.19.13.68.26.54zm62.22 2.59c-.51-.42.51-2.43 1.2-1.64 1.89 2.19 2.78 9.31 3.32 14.64 0 0-.85.7-.85.59 0-2.84-1.15-11.52-3.67-13.59z"/><path d="M234.12 91.84c-.6-1.4.93-1.93 1.15-.92 1 4.55 3.09 7.27 5.56 11.27.58 1 .11 1.57-1.31.66-1-.67-2-3.13-2.46-3.22-.88-.17-3 4-7.26 2.8-1.11-.31-1-3.6-1.05-5.06 0-.68.7-.86.73.07 0 1.34 0 4.13 1.71 4.22 1.4.08 4.5-1.89 5.16-3.44s-1.56-4.76-2.23-6.38zm43.64 19.36c.34-.95 4.89-8.58 5.49-10.26.3-.82 1.61 1.38.33 2.57a35.68 35.68 0 0 0-5 8.33c-.28.85-1.14.45-.78-.64zm7.74-7.27c.84-3.15 2.87.48 1.08 2.27-2.77 2.71-3.6 7.89-8 8.66a6.68 6.68 0 0 1-3.89-1c-.24-.17.16-1.29.9-.75a4 4 0 0 0 4.44.08 20.33 20.33 0 0 0 5.46-9.3zm-45.61 10.19c-.2.22-.81.18-.86.5-.24 1.19 0 1.79-.26 2.93s-1 1.13-1 .24c.07-1.15 1-2.78.35-2.89-.45-.11-.79-.71-.33-1a1.86 1.86 0 0 1 1.94-.33.36.36 0 0 1 .12.55z"/><path d="M239.27 112.57c-1.16 1-2.23 1.43-3.3 2.71-.44.52-.42 1.25-.68 1.92a1.15 1.15 0 0 1-1.36.71c-.44-.29-.37-1.61-.86-.9s-.68 1.55-1.29 1.54-1.59-1.14-1.06-1.19c1.8-.18 1.78-1.63 2.45-1.72s.81 1.19 1.28.93.54-1.69.94-2.1a23.9 23.9 0 0 1 3.43-2.82c.63-.51 1.08.4.45.92zm4.23 3.93a1 1 0 0 0-.5 1.53c.44.21 1.14.3 1.4-1.07.12-.57.23 2.79 1.47 1.5.71-.79 2.47.14 3.2-.84a1.7 1.7 0 0 0 .28-2.09c-.12-.3-.84-.15-.8.56s-.43 1.35-1 1.23c-.29-.06.16-1.48-.13-1.87a.33.33 0 0 0-.57 0c-.23.31.23 1.67-.52 1.85-.94.22-.45-.91-.84-1.11-1.28-.65-1.41.16-2 .28zm7.23-2.34c.68-.19.47-.19 1.54-1.06.42-.32.5.6.46 1-.08.62-.82.18-1 .73a14.43 14.43 0 0 0-.31 3c-.07.34-.63.31-.68 0a17.44 17.44 0 0 1 .09-2.64c0-.35-.51-.9-.05-1.07zm-4-2.09a8.18 8.18 0 0 0-.15 1.86c0 .41.79.14.79.09 0-.65.11-1.55-.09-1.8s-.51-.29-.55-.15z"/><path d="M241.7 104.65l-1.17 4.48-1.62-3v3.07l-3.5-4.15 1.22 4.45-3.15-2.67 1.68 3-5.58-3.6 3.55 4.15-4.47-2.2 3.2 2.7-7.3-2.75 7 3.48a25.61 25.61 0 0 1 20.08 0h.06l7-3.48-7.21 2.78 3.15-2.73-4.42 2.18 3.5-4.13-5.58 3.6 1.68-3-3.1 2.67 1.22-4.45-3.5 4.18v-3.1l-1.62 3z" class="G I J"/><path d="M235.53 201.8a14.77 14.77 0 0 1-.22 2.06h-.33a8.39 8.39 0 0 0-.09-1.41 6.55 6.55 0 0 0-.32-1.17 5.32 5.32 0 0 0-.43-1 12.65 12.65 0 0 0-.75-1.07l.66-1.64.65.9a4.73 4.73 0 0 1 .41.92 6.08 6.08 0 0 1 .31 1.15 7.24 7.24 0 0 1 .11 1.24m5.2-3.14a1.83 1.83 0 0 1-.29 1.12 1.59 1.59 0 0 1-1 .53l.27 1.09a5.75 5.75 0 0 1 .06.87q0 .32 0 .66c0 .24-.06.56-.13 1h-.29a6 6 0 0 0-.06-.92 5.35 5.35 0 0 0-.17-.74l-.28-.75a9.58 9.58 0 0 0-.5-1.12c-.17-.3-.44-.71-.81-1.24l.51-1.53a4.11 4.11 0 0 0 .71.81 1.25 1.25 0 0 0 .72.21c.61 0 .91-.32.91-1h.31v1.03m4.81 3.59l-.38 1.61a1 1 0 0 1-.6-.57 3.22 3.22 0 0 1-.27-1 8.32 8.32 0 0 1-.09-1.24 3 3 0 0 1-.77.13 1.49 1.49 0 0 1-.93-.29.94.94 0 0 1-.36-.76 3.17 3.17 0 0 1 .5-1.75 1.4 1.4 0 0 1 1.15-.79.79.79 0 0 1 .68.27 1.56 1.56 0 0 1 .26.7 12.76 12.76 0 0 1 0 1.51 4.53 4.53 0 0 0 .16 1.41 2.52 2.52 0 0 0 .6.77m-1.38-2.66c-.07-.41-.28-.61-.65-.61a.82.82 0 0 0-.43.12c-.13.09-.2.17-.2.23 0 .22.26.32.77.32a2.22 2.22 0 0 0 .51-.06m6.49 2.26l-.19 1.95a3.56 3.56 0 0 1-1.07-1.45 19.45 19.45 0 0 1-1-3.11l-.73 2.84a4.55 4.55 0 0 1-.57 1.27 2.06 2.06 0 0 1-.59.51V202a12.4 12.4 0 0 0 .74-1.1 6.06 6.06 0 0 0 .52-1.31 16.83 16.83 0 0 0 .38-2h.35a17.3 17.3 0 0 0 .63 2 6.39 6.39 0 0 0 .66 1.25 11.1 11.1 0 0 0 .85 1"/><path d="M265.25 220.22a2.73 2.73 0 0 1 .55.9 4.63 4.63 0 0 1 .22 1.24h-.58a5.52 5.52 0 0 0-.72-1.14c-.18-.21-.46-.5-.86-.89l-1.22-1.13c-.41-.37-1-.79-1.6-1.27a4.78 4.78 0 0 1-.43-.37 1.42 1.42 0 0 1-.22-.63 8.52 8.52 0 0 1-.1-1.17l2 1.65 1.89 1.66 1 1.1m-7.11-4.28l-.12 1.49-2.39-.06.18-1.52 2.33.09m6.27 6.67l-5.68 1.73-1.05-1.45 4.92-1.49a6.78 6.78 0 0 0-.52-.65 2 2 0 0 0-.65-.44 1.11 1.11 0 0 1-.34.72 2 2 0 0 1-.81.46 2.69 2.69 0 0 1-1.32.06 1.6 1.6 0 0 1-1-.57 3 3 0 0 1-.48-1.67c0-.76.18-1.21.62-1.35a3.36 3.36 0 0 1 2.33.48 6.2 6.2 0 0 1 2.25 1.82l1.69 2.35m-4.36-3a3 3 0 0 0-.64-.22.92.92 0 0 0-.44 0 .49.49 0 0 0-.34.28.37.37 0 0 0 0 .39.44.44 0 0 0 .3.16 1 1 0 0 0 .45 0 .92.92 0 0 0 .32-.18 1.54 1.54 0 0 0 .3-.4m-6.09-1.16l-.35 1.48-2.37-.22.36-1.49 2.36.23m5.6 5.76l-1.26.29a4 4 0 0 1-1.28.09 2.57 2.57 0 0 1-1.14-.38 2.46 2.46 0 0 1-1.1 1 5.36 5.36 0 0 1-1.21.41l-.9.21-.82-1.5.89-.21a7.18 7.18 0 0 0 1-.27 4.12 4.12 0 0 0 .66-.4 4.48 4.48 0 0 0-.7-.37 1.07 1.07 0 0 0-.57-.06.28.28 0 0 0-.16.09.48.48 0 0 0-.09.19l-.39.06c-.37-.67-.45-1.19-.25-1.55a2.06 2.06 0 0 1 1.45-.82 5.41 5.41 0 0 1 2-.13 1.5 1.5 0 0 1 1.13.67.94.94 0 0 1 .11.59 3.12 3.12 0 0 1-.29.85 1.24 1.24 0 0 0 .41.09 1.48 1.48 0 0 0 .43 0l1.26-.29.82 1.51m-6 1.4l-1.23.19a2.21 2.21 0 0 1-1.7-.31 4.2 4.2 0 0 1-1.27-2l-.6-1.62a1.79 1.79 0 0 0-.56-.83 3.58 3.58 0 0 0-.69-.34l.42-1.58a3.88 3.88 0 0 1 1 .79 3.94 3.94 0 0 1 .73 1.29l.42 1.12a5.13 5.13 0 0 0 .86 1.62.82.82 0 0 0 .76.27l1.23-.19.58 1.55m-5.27-5.65l-.79 1.4-2.25-.52.8-1.41 2.24.53m1.31 6.34l-5.61.5-.34-1.58 4.72-.42a1.88 1.88 0 0 0-.5-.64 6.85 6.85 0 0 0-.74-.47l.42-1.44a3.31 3.31 0 0 1 1.13.94 4.33 4.33 0 0 1 .6 1.59l.32 1.52m-4.5.72a12.78 12.78 0 0 1-1.67-.16 7.31 7.31 0 0 1-1.3-.34 4.07 4.07 0 0 1-1 .29 7.52 7.52 0 0 1-1.24 0h-1.47a1.86 1.86 0 0 1-.94-.23 1.72 1.72 0 0 1-.58-.7 3.26 3.26 0 0 1-1.17.66 3.8 3.8 0 0 1-1.27.14l-1.18-.19.12-1.6 1.3.05a3.36 3.36 0 0 0 1.61-.3 1.56 1.56 0 0 0 .93-1.34l.59.08c0 .12-.05.26-.07.42a4 4 0 0 0-.06.54.56.56 0 0 0 .27.51 1.3 1.3 0 0 0 .71.22h1.11a4.62 4.62 0 0 0 1.59-.15.93.93 0 0 0 .64-.88.32.32 0 0 1 .16-.24 1.63 1.63 0 0 1 .35-.19l.35-.16a2.45 2.45 0 0 1 0 .3v.25a4 4 0 0 1-.21.85 5.36 5.36 0 0 0 .73.21q.4.09.87.15a.92.92 0 0 0-.19-.53 1 1 0 0 1-.19-.44.44.44 0 0 1 .08-.23l.22-.17.82-.65a2.88 2.88 0 0 1 .29.68 2.28 2.28 0 0 1 0 .76l-.17 2.22m-8.52-6.56l-1.41 1-1.07-.67-1 .79-1.41-.85 1.34-.95 1.14.63 1.08-.75 1.37.84m-2.18 6.16l-5.49-.9.6-1.55 4.61.76a1.22 1.22 0 0 0-.09-.72 4.21 4.21 0 0 0-.42-.61l1.23-1.24a2 2 0 0 1 .5 1.16 4.22 4.22 0 0 1-.36 1.62l-.58 1.48m-4.63-.72l-1.19-.28c-.66-.16-1-.45-1.12-.88a3.23 3.23 0 0 1 .63-2.08l.89-1.57a1.35 1.35 0 0 0 .25-.88 1.64 1.64 0 0 0-.27-.54l1.7-1.15a2.08 2.08 0 0 1 .19 1 3.69 3.69 0 0 1-.5 1.33l-.62 1.09a4.28 4.28 0 0 0-.68 1.65.45.45 0 0 0 .39.5l1.19.29-.86 1.49m-2.81-5.94l-1.93.81-1.32-1.29 1.94-.82 1.31 1.3m-.82 5a4.88 4.88 0 0 1-1.18 1.06 3 3 0 0 1-1.29.44 6.3 6.3 0 0 1-1.79-.08 11.11 11.11 0 0 1-2.08-.52 5.77 5.77 0 0 1-2.58-1.52 1.18 1.18 0 0 1 0-1.66 5.21 5.21 0 0 1 1.44-1.19 18.25 18.25 0 0 1 2.87-1.19l.29.39-2.1.89a3.42 3.42 0 0 0-.92.72c-.31.37-.26.77.14 1.21a5 5 0 0 0 2.06 1.17 8 8 0 0 0 2.7.51 2.2 2.2 0 0 0 1.71-.53 1.64 1.64 0 0 0 .36-.69 5.6 5.6 0 0 0 .12-1.26l1.88-1.14a5.5 5.5 0 0 1-.08 1.14 3.48 3.48 0 0 1-.73 1.22l-.87 1" stroke-width=".75" class="G J"/></g><defs ><path id="B" d="M208.07 147.13a1.64 1.64 0 0 1-2.796 1.173 1.64 1.64 0 0 1 1.156-2.803 1.71 1.71 0 0 1 1.64 1.63z"/><path id="C" d="M181.68 201.18c-.46-.09-1.08-.24-.52.47 4.55 5.59 5.86 7.14 12.49 6.35s8.28-2.69 13-5.32a11.66 11.66 0 0 1 8.93-.89c1.3.42 2.08.45 1.15-.47a32.91 32.91 0 0 0-3.16-3.06c-2.49-1.91-6.72-2.74-10.18-2.13-4.88.77-8.92 3.88-13.74 5a19.66 19.66 0 0 1-7.94 0z"/><path id="D" d="M219.91 211.18c.84.1 1.38 1.74 1.8.63.7-1.79.21-3.22-.59-3.06s-2.52 2.35-1.21 2.43z"/><path id="E" d="M170.19 164c-.28-.36-1.1 0-.9.9.19 1.2 2 7.36 5 9.48 2.17 1.56 13.58 4.12 18.78 5.12a12 12 0 0 1 7.09 4.26 75 75 0 0 0-2.39-7.84c-1-2.36-3.53-4.94-6.19-5.08-5-.18-11.34-.6-16-2.61a12.82 12.82 0 0 1-5.38-4.26z"/><path id="F" d="M176.5 137.61c.16.93 1.29 1 1-.3a4.28 4.28 0 0 1 0-2.72 6 6 0 0 0 0-3.7c-.34-.81-1.44-.34-1 .3a3.65 3.65 0 0 1 .18 3 6.2 6.2 0 0 0-.14 3.43z"/><path id="G" d="M194.79 150.35c-.76 1.11-2.31.43-1.13-1.1 1-1.24 2.35-2.25 2.45-3.53a9.23 9.23 0 0 1 1.9-4.92c.89-.88 1.92.36 1 1s-1.77 3.57-1.75 4.67c0 1.6-1.63 2.76-2.44 3.93z"/><path id="H" d="M179.81 142.79c-.09 1.57 1.18 2 1.12-.33s-1.74-4.56-.7-8.19a17.67 17.67 0 0 0 .22-6.75c-.29-1.72-1.51-.59-1 .74.51 1.55-.09 4.52-.48 6-1.17 4.35 1 6.46.89 8.52z"/><path id="I" d="M183.27 134.09c-.18 1.44-1.41 1.57-1.06-.47a9.4 9.4 0 0 0 0-4.26 13.58 13.58 0 0 1 0-5.77c.37-1.27 1.57-.53 1.06.46a8 8 0 0 0-.2 4.67 13.9 13.9 0 0 1 .16 5.36z"/><path id="J" d="M187.14 183.39a6.88 6.88 0 0 1 3.53 5.3 12.2 12.2 0 0 0 1.5 5.75c-1.6-.45-2.37-3-2.6-5.46s-1.6-3.64-2.43-5.59z"/><path id="K" d="M191.21 188.09c1.35 2.5 3.23 3.45 3.33 5.3a16.31 16.31 0 0 0 .9 4.32c-1.59-.42-2-.56-2.42-3.74-.26-2.24-2.05-3.82-1.81-5.88z"/><path id="L" d="M276.07 147.13a1.64 1.64 0 0 0 2.796 1.173 1.64 1.64 0 0 0-1.156-2.803 1.71 1.71 0 0 0-1.64 1.63z"/><path id="M" d="M302.46 201.18c.46-.09 1.08-.24.52.47-4.55 5.59-5.86 7.14-12.49 6.35s-8.28-2.69-13-5.32a11.66 11.66 0 0 0-8.93-.89c-1.3.42-2.08.45-1.15-.47a32.91 32.91 0 0 1 3.16-3.06c2.49-1.91 6.72-2.74 10.18-2.13 4.88.77 8.91 3.88 13.74 5a19.66 19.66 0 0 0 7.94 0z"/><path id="N" d="M264.23 211.18c-.84.1-1.38 1.74-1.8.63-.7-1.79-.21-3.22.59-3.06s2.51 2.35 1.21 2.43z"/><path id="O" d="M313.95 164c.28-.36 1.1 0 .9.9-.19 1.2-2 7.36-5 9.48-2.17 1.56-13.57 4.08-18.74 5.15a12 12 0 0 0-7.09 4.26 75 75 0 0 1 2.39-7.84c1-2.36 3.53-4.94 6.19-5.08 4.94-.18 11.34-.6 16-2.61a12.82 12.82 0 0 0 5.38-4.26z"/><path id="P" d="M298.84 170.12c1-2-2.33-3-3-5.52-.4 3.67-.06 6.07 3 5.52z"/><path id="Q" d="M307.64 137.61c-.16.93-1.29 1-1-.3a4.28 4.28 0 0 0 0-2.72 6 6 0 0 1 0-3.7c.34-.81 1.44-.34 1 .3a3.65 3.65 0 0 0-.18 3 6.2 6.2 0 0 1 .14 3.43z"/><path id="R" d="M289.35 150.35c.76 1.11 2.31.43 1.13-1.1-1-1.24-2.35-2.25-2.45-3.53a9.23 9.23 0 0 0-1.9-4.92c-.89-.88-1.92.36-1 1s1.77 3.57 1.75 4.67c0 1.6 1.63 2.76 2.44 3.93z"/><path id="S" d="M304.33 142.79c.09 1.57-1.18 2-1.12-.33s1.74-4.56.7-8.19a17.67 17.67 0 0 1-.22-6.75c.29-1.72 1.51-.59 1 .74-.51 1.55.09 4.52.48 6 1.17 4.35-1 6.46-.89 8.52z"/><path id="T" d="M300.87 134.09c.18 1.44 1.41 1.57 1.06-.47a9.4 9.4 0 0 1 0-4.26 13.58 13.58 0 0 0 0-5.77c-.37-1.27-1.57-.53-1.06.46a8 8 0 0 1 .2 4.67 13.9 13.9 0 0 0-.16 5.36z"/><path id="U" d="M297 183.39a6.88 6.88 0 0 0-3.53 5.3 12.2 12.2 0 0 1-1.5 5.75c1.6-.45 2.37-3 2.6-5.46s1.6-3.64 2.43-5.59z"/><path id="V" d="M292.93 188.09c-1.35 2.5-3.24 3.45-3.33 5.3a15.94 15.94 0 0 1-.91 4.32c1.59-.42 2-.56 2.43-3.74.26-2.24 2.05-3.82 1.81-5.88z"/></defs></svg>