<svg xmlns="http://www.w3.org/2000/svg" width="5760" height="1080" fill="none" xmlns:v="https://vecta.io/nano"><path fill-rule="evenodd" d="M5760 0H0v1080h5760V0zM2215.78 829.627c-7.95-4.067-17.02-6.1-27.22-6.1-12.57 0-23.46 2.701-32.69 8.103-9.16 5.402-16.23 13.05-21.21 22.943s-7.47 21.609-7.47 35.144c0 13.596 2.52 25.584 7.56 35.963s12.14 18.513 21.31 24.401c9.16 5.826 20 8.74 32.5 8.74 9.89 0 18.18-1.305 24.85-3.915 6.74-2.61 12.2-6.222 16.39-10.835a48 48 0 0 0 9.56-15.75c2.25-5.949 3.8-12.17 4.65-18.665h-32.51c-.73 4.31-2.12 8.316-4.19 12.018-2 3.642-4.67 6.555-8.01 8.741-3.28 2.185-7.19 3.277-11.74 3.277-7.95 0-14.33-3.368-19.12-10.106-4.74-6.737-7.1-17.875-7.1-33.414 0-10.197 1.06-18.33 3.18-24.4 2.19-6.13 5.25-10.501 9.2-13.111 3.94-2.67 8.56-4.006 13.84-4.006 4.55 0 8.46.911 11.74 2.732 3.34 1.821 6.01 4.37 8.01 7.648 2.07 3.217 3.46 7.01 4.19 11.38h32.51c-.98-9.044-3.92-17.086-8.84-24.127-4.91-7.101-11.38-12.655-19.39-16.661zm46.7-7.921V957h30.95v-58.907c0-2.549.7-4.704 2.1-6.464 1.39-1.76 3.18-3.096 5.37-4.006a17.35 17.35 0 0 1 6.74-1.366c3.52 0 6.64.971 9.37 2.914 2.74 1.881 4.1 4.673 4.1 8.376V957h31.05v-63.732c0-6.616-1.52-12.2-4.55-16.753-2.98-4.552-6.95-8.012-11.93-10.379s-10.44-3.551-16.39-3.551c-4.98 0-9.1.729-12.38 2.186s-6.01 3.247-8.2 5.371c-2.12 2.125-3.91 4.188-5.37 6.191v-54.627h-30.86zm120.03 133.746c4.92 2.246 10.32 3.369 16.21 3.369 6.56 0 12.05-1.244 16.48-3.733 4.49-2.489 8.25-7.041 11.29-13.657l2.64 15.569h25.77v-66.464c0-5.948-1.31-11.107-3.92-15.477-2.61-4.431-6.92-7.861-12.93-10.288-6.01-2.489-14.14-3.733-24.4-3.733-7.95 0-15.14 1.062-21.58 3.186-6.37 2.125-11.5 5.433-15.38 9.924-3.83 4.492-5.92 10.288-6.29 17.39h25.41c1.39-3.824 3.7-6.434 6.92-7.83 3.21-1.457 6.37-2.215 9.46-2.276 4.5-.061 7.77.85 9.84 2.731 2.12 1.821 3.18 4.583 3.18 8.285v4.826l-9.56.091c-16.87.061-29.28 2.853-37.23 8.376-7.89 5.524-11.84 13.414-11.84 23.672 0 6.313 1.43 11.654 4.28 16.024 2.91 4.37 6.8 7.709 11.65 10.015zm32.87-17.663c-1.88.729-3.85 1.093-5.92 1.093-3.7 0-6.92-1.123-9.65-3.369-2.67-2.246-4-5.341-4-9.286 0-3.46 1.15-6.161 3.46-8.104 2.3-2.003 5.13-3.429 8.46-4.279 3.4-.85 6.68-1.274 9.84-1.274l7.64-.091v12.837c-.06 1.821-.51 3.52-1.36 5.099s-2 3.034-3.46 4.37a16.75 16.75 0 0 1-5.01 3.004zm60.84-74.93v123.458h30.96v-42.154c1.46 2.367 3.12 4.461 5.01 6.282 1.88 1.76 3.91 3.277 6.1 4.552 2.18 1.275 4.49 2.215 6.92 2.822 2.42.668 4.88 1.002 7.37 1.002 7.04 0 13.48-1.669 19.3-5.008 5.89-3.399 10.59-8.71 14.11-15.933 3.52-7.283 5.28-16.782 5.28-28.497 0-10.986-1.54-20.06-4.64-27.223-3.09-7.162-7.31-12.473-12.65-15.933-5.35-3.46-11.41-5.189-18.21-5.189-2.67 0-5.37.303-8.11.91-2.67.607-5.25 1.487-7.74 2.64-2.48 1.154-4.82 2.61-7.01 4.371a29.68 29.68 0 0 0-5.55 6.1l-.09-12.2h-31.05zm61 67.191c-3.46 4.249-7.61 6.374-12.47 6.374-4.07 0-7.4-1.275-10.01-3.824-2.55-2.61-4.47-5.979-5.74-10.106-1.21-4.128-1.82-8.437-1.82-12.929 0-7.344 1.42-13.566 4.28-18.664 2.85-5.16 7.28-7.739 13.29-7.739 5.04 0 9.23 2.306 12.56 6.919 3.4 4.613 5.1 11.108 5.1 19.484 0 9.408-1.73 16.237-5.19 20.485zm87.63-45.978h20.67v-21.396h-20.67v-28.679h-21.94l-7.92 28.862h-16.39v21.213h15.3v47.799c0 5.038.94 9.56 2.82 13.566 1.94 3.946 5.37 7.071 10.29 9.378 4.97 2.246 11.98 3.369 21.03 3.369 5.16 0 9.07-.304 11.74-.911 2.67-.546 4.65-1.092 5.92-1.639V936.97h-13.66c-1.51 0-2.79-.152-3.82-.455s-1.85-.911-2.46-1.821c-.54-.911-.82-2.307-.82-4.188l-.09-46.434zm63.11 43.884c-1.39-2.974-2.06-6.616-2-10.925h61.27v-7.739c0-9.347-1.7-17.633-5.1-24.856-3.33-7.283-8.34-12.989-15.02-17.116-6.68-4.188-14.99-6.282-24.95-6.282-9.83 0-18.23 2.276-25.21 6.828-6.99 4.492-12.33 10.531-16.03 18.118-3.7 7.527-5.55 15.873-5.55 25.038 0 9.651 2 18.057 6.01 25.22 4.06 7.162 9.71 12.716 16.93 16.661 7.28 3.945 15.72 5.918 25.31 5.918 6.74 0 13.26-1.305 19.58-3.915 6.31-2.61 11.65-6.343 16.02-11.199 4.43-4.916 7.16-10.804 8.19-17.663h-27.67c-1.4 4.006-3.61 6.829-6.65 8.468-2.97 1.578-6.4 2.367-10.29 2.367-3.4 0-6.37-.759-8.92-2.276s-4.52-3.733-5.92-6.647zm28.68-37.237c1.22 2.549 1.82 5.371 1.82 8.467h-32.59c-.06-2.914.6-5.645 2-8.194 1.4-2.61 3.31-4.704 5.74-6.282 2.42-1.639 5.28-2.459 8.55-2.459 3.59 0 6.59.759 9.02 2.276a14.18 14.18 0 0 1 5.46 6.192zm47.12-27.86V957h30.96v-48.345c0-2.853.42-5.494 1.27-7.921.92-2.428 2.46-4.522 4.65-6.283 2.24-1.76 5.28-3.034 9.1-3.823 3.89-.79 8.8-.881 14.75-.274.49 0 .94.031 1.37.091.48.061.88.152 1.18.274v-29.408c-.12-.122-.45-.182-1-.182-.49-.061-1.06-.091-1.73-.091-5.34 0-10.05 1.153-14.11 3.459-4.07 2.246-7.5 5.342-10.29 9.287-2.73 3.885-4.83 8.285-6.28 13.202v-24.127h-29.87zm105.55-37.511v27.404h38.51V957h31.14V852.752h38.24v-27.404h-107.89zM3079.98 957l32.05-94.141h-27.86l-16.03 52.169h-.36l-15.39-52.169h-21.85l-15.57 52.078h-.27l-16.39-52.078h-27.22L3002.23 957h22.48l16.12-51.35 15.84 51.35h23.31zm57.08-4.188c6.98 4.006 15.21 6.009 24.68 6.009 9.65 0 17.96-2.064 24.94-6.191 6.98-4.188 12.32-9.894 16.03-17.117 3.76-7.284 5.64-15.629 5.64-25.037 0-9.773-1.88-18.361-5.64-25.766-3.77-7.466-9.14-13.263-16.12-17.39-6.92-4.188-15.17-6.282-24.76-6.282-9.29 0-17.45 2.063-24.49 6.191-7.05 4.127-12.54 9.924-16.48 17.389-3.89 7.406-5.83 16.025-5.83 25.858 0 9.65 1.91 18.118 5.74 25.401 3.88 7.223 9.31 12.868 16.29 16.935zm34.69-20.668c-2.37 2.61-5.67 3.915-9.92 3.915-4.37 0-7.77-1.335-10.2-4.006-2.37-2.731-4.04-6.13-5.01-10.197-.91-4.127-1.36-8.255-1.36-12.382 0-4.37.48-8.528 1.45-12.473 1.04-4.006 2.73-7.254 5.1-9.742 2.43-2.549 5.77-3.824 10.02-3.824 4.37 0 7.74 1.305 10.1 3.915 2.37 2.549 4.01 5.827 4.92 9.833s1.37 8.103 1.37 12.291c0 4.249-.49 8.437-1.46 12.564-.97 4.067-2.64 7.436-5.01 10.106z" fill="#fff"/></svg>