<svg xmlns="http://www.w3.org/2000/svg" viewBox="0 0 622.3 400" xmlns:v="https://vecta.io/nano"><style><![CDATA[.G{letter-spacing:1}.I{stroke:#fff}.J{stroke-miterlimit:10}.K{font-size:10px}.L{fill:none}.M{font-family:HelveticaNeue-Thin}.N{font-family:HelveticaNeue-UltraLight}]]></style><g class="I L"><path d="M82.3 351.5c14.6-16.8 29.1-33.6 43.7-70.3s29.2-93.4 43.8-122.1 29.2-29.5 43.7-34.6c14.6-5.1 29.2-14.4 43.7-12.8 14.6 1.7 29.1 14.4 43.7 16.8s29.2-5.4 43.8-13.4 29.2-16.3 43.7-25.1c14.6-8.8 29.2-18 43.7-23.8s29.1-8 43.7-6.3 29.2 7.3 43.8-1.2 29.2-30.9 43.7-39.6 29.1-3.4 43.7 1.9" stroke-width="3" stroke-linecap="round"/><path d="M82.8 386v-5.5h525v5.5"/><path d="M82.8 380v6"/></g><text transform="translate(71.69 396.1)" class="G I J K M">1979</text><path d="M126.52 380v6" class="I L"/><text transform="translate(115.41 396.1)" class="G I J K M">1980</text><path d="M170.36 380v6" class="I L"/><text transform="translate(159.25 396.1)" class="G I J K M">1981</text><path d="M214.08 380v6" class="I L"/><text transform="translate(202.97 396.1)" class="G I J K M">1982</text><path d="M257.8 380v6" class="I L"/><text transform="translate(246.69 396.1)" class="G I J K M">1983</text><path d="M301.52 380v6" class="I L"/><text transform="translate(290.41 396.1)" class="G I J K M">1984</text><path d="M345.36 380v6" class="I L"/><text transform="translate(334.25 396.1)" class="G I J K M">1985</text><path d="M389.08 380v6" class="I L"/><text transform="translate(377.97 396.1)" class="G I J K M">1986</text><path d="M432.8 380v6" class="I L"/><text transform="translate(421.69 396.1)" class="G I J K M">1987</text><path d="M476.52 380v6" class="I L"/><text transform="translate(465.41 396.1)" class="G I J K M">1988</text><path d="M520.36 380v6" class="I L"/><text transform="translate(509.25 396.1)" class="G I J K M">1989</text><path d="M564.08 380v6" class="I L"/><text transform="translate(552.97 396.1)" class="G I J K M">1990</text><text transform="translate(596.69 396.1)" class="G I J K M">1991</text><path d="M65.8 380.5v-370m.5 370h-6" class="I L"/><text transform="translate(51.752 383.7)" class="G I J K N">0</text><path d="M65.3 352.038h-6m6-28.461h-6" class="I L"/><text transform="translate(3.826 326.777)" class="G I J K N">1,000,000</text><path d="M65.3 295.115h-6m6-28.461h-6" class="I L"/><text transform="translate(3.826 269.854)" class="G I J K N">2,000,000</text><path d="M65.3 238.192h-6m6-28.461h-6" class="I L"/><text transform="translate(3.826 212.931)" class="G I J K N">3,000,000</text><path d="M65.3 181.269h-6m6-28.461h-6" class="I L"/><text transform="translate(3.826 156.008)" class="G I J K N">4,000,000</text><path d="M65.3 124.346h-6m6-28.461h-6" class="I L"/><text transform="translate(3.826 99.085)" class="G I J K N">5,000,000</text><path d="M65.3 67.423h-6m6-28.461h-6" class="I L"/><text transform="translate(3.826 42.162)" class="G I J K N">6,000,000</text></svg>