<svg xmlns="http://www.w3.org/2000/svg" width="1000" height="379.409" viewBox="-196.799 205.649 1000 379.409" xmlns:v="https://vecta.io/nano"><path fill="gold" d="M-196.799 585.059v-379.41H67.94v379.409h-264.739zm226.462-38.228V243.927h-188.307v302.991H29.663v-.087z"/><path d="M201.01 399.126v37.971c-8.418 3.274-17.193 5.624-26.129 5.624-27.077 0-44.185-20.984-44.185-48.049 0-25.108 16.985-47.053 44.677-47.053 8.493 0 17.108 3.2 22.4 7.139l-5.292 10.868c-4.308-2.584-10.831-4.85-16.862-4.85-16.862 0-28.308 13.292-28.308 34.179 0 21.785 13.047 34.707 26.708 34.707 4.062 0 7.631-.491 10.954-2.092v-28.308h15.754l.283-.136zm56.37-37.538h-26.24v25.231h25.723v12.307H231.14v29.699h31.015v12.333H215.3v-91.939h42.092v12.382zm48.59 68.013c-16.369 0-22.154-18.092-22.154-35.729 0-16.862 6.523-33.083 22.154-33.083 15.68 0 22.302 16.221 22.302 33.083 0 17.625-5.835 35.729-22.277 35.729h-.025zm0 13.132c24.124 0 39.052-21.415 39.052-48.862 0-25.674-16.541-46.24-39.04-46.24-22.399 0-38.892 20.554-38.892 46.24 0 27.447 15.016 48.862 39.015 48.862h-.135zm114.759-43.607v37.971c-8.42 3.274-17.282 5.624-26.143 5.624-27.102 0-44.222-20.984-44.222-48.049 0-25.108 17.107-47.053 44.702-47.053 8.491 0 17.107 3.2 22.276 7.139l-5.169 10.868c-4.309-2.584-10.83-4.85-16.985-4.85-16.737 0-28.185 13.292-28.185 34.179 0 21.785 13.169 34.707 26.708 34.707 4.186 0 7.754-.491 11.078-2.092v-28.308h15.753l.187-.136zm30.227-37.538h6.953c9.269 0 14.608 5.391 14.608 14.818 0 12.431-7.508 17.933-14.979 18.266-1.525.123-5.316.295-6.597.369v-33.452h.015zm39.877 79.582l-18.462-38.03c10.093-5.416 15.814-16.333 15.814-27.41 0-17.969-10.929-26.584-28.492-26.584h-24.517v91.938h15.753v-34.585h7.139l14.807 34.585h17.969l-.011.086zm26.042-36.382c3.668-12.062 7.349-23.298 10.634-37.415h.271c3.645 14.104 6.953 25.354 10.363 37.415h-21.268 0zm6.055-55.581l-31.752 91.939h13.698l7.999-25.021h27.692l7.262 25.106h17.6l-29.292-91.938h-13.17l-.037-.086zm72.007 0h-24.538v91.968h15.699v-34.68h7.19c18.766 0 30.144-15.287 30.144-30.755 0-17.926-10.883-26.533-28.495-26.533zm-2.276 45.464c-1.601.115-5.591.28-6.563.346v-33.41h7.141c9.201 0 14.363 5.375 14.363 14.792 0 12.418-7.421 17.959-14.941 18.272zm103.784 46.499H680.74v-44.21h-32.738v44.21h-15.583v-91.963h15.583v35.372h32.738v-35.015h15.705zm15.114-91.963h15.705v91.939h-15.705v-91.939zm86.596 16.689c-3.742-2.375-10.092-5.107-16.086-5.107-16.073 0-27.778 13.292-27.778 34.178 0 21.785 12.874 34.634 28.11 34.634 6.03 0 11.643-1.92 15.754-4.553l4.356 11.384c-4.677 3.322-13.168 6.399-20.676 6.399-27.139 0-44.209-20.922-44.209-48 0-25.107 16.946-47.015 44.43-47.015 8.074 0 15.755 3.446 21.145 7.139l-5.046 11.199v-.258zm-587.446-43.717H199.3c-14.955-21.107-29.81-42.128-44.64-65.969h-.148v65.969h-12.64v-91.987h11.508c14.929 20.997 29.809 41.969 44.406 65.576h.344v-65.576h12.579v91.987zm29.932-36.344c3.73-12.086 7.458-23.225 10.708-37.416h.308c3.656 14.191 6.93 25.33 10.376 37.416h-21.392zm6.154-55.631l-31.877 91.975h13.723l7.963-25.046h27.766l7.175 25.046h17.601l-29.33-91.987H246.77l.025.012zm57.231 91.975v-79.57h-24.172v-12.43h64.097v12.43h-24.122v79.57h-15.828zm45.071-91.988h15.569v91.987h-15.631l.062-91.987zm64.233 80.357c-16.393 0-22.153-18.006-22.153-35.644 0-16.91 6.498-33.107 22.153-33.107 15.632 0 22.154 16.197 22.154 33.107 0 17.638-5.723 35.644-22.154 35.644zm0 13.256c24.05 0 39.041-21.416 39.041-48.899 0-25.784-16.592-46.24-39.041-46.24-22.437 0-38.99 20.456-38.99 46.24 0 27.495 14.941 48.899 38.99 48.899zm117.465-1.625h-11.446c-14.916-21.107-29.785-42.128-44.603-65.969h-.147v65.969h-12.554v-91.987h11.445c15.016 20.997 29.785 41.969 44.554 65.576h.246v-65.576h12.678v91.987h-.173zm29.907-36.344c3.754-12.086 7.447-23.225 10.66-37.416h.244l10.389 37.416h-21.293 0zm6.153-55.631l-31.876 91.975h13.637l8.062-25.046h27.741l7.189 25.046h17.636l-29.292-91.987h-13.046l-.051.012zm46.93 0h15.694v79.631h32.306v12.344h-48v-91.988zM177.7 484.543c-3.446-2.732-8.025-5.232-12.627-5.232-6.56 0-10.118 4.345-10.118 9.724 0 6.031 5.539 10.634 14.585 19.176 10.486 9.846 16.124 17.576 16.124 28.875 0 11.444-9.428 24.859-27.028 24.859-8.246 0-17.231-2.953-23.016-9.229l5.662-10.585c4.185 3.446 8.861 7.262 16 7.262 6.399 0 12.062-4.062 12.062-12.8 0-10.093-10.585-16.824-16.739-22.608-7.631-7.177-13.908-12.802-13.908-25.023 0-12.332 10.461-22.313 24.615-22.313 8.861 0 16.123 3.816 19.815 8l-5.662 9.601.235.293zm13.785 28.651c0-25.722 16.528-46.215 38.978-46.215s39.016 20.493 39.016 46.215c0 27.446-14.979 48.824-39.016 48.824s-38.991-21.39-38.991-48.824h.013zm61.168 0c0-16.947-6.584-33.083-22.191-33.083-15.63 0-22.191 16.123-22.191 33.083 0 17.6 5.785 35.717 22.191 35.717 16.394 0 22.154-18.128 22.154-35.717h.037zm81.87-27.974c-3.814-2.363-10.092-5.12-16.158-5.12-16 0-27.693 13.169-27.693 34.091 0 21.786 12.886 34.586 28.086 34.586 6.031 0 11.693-1.97 15.755-4.677l4.308 11.322c-4.801 3.2-13.17 6.278-20.8 6.278-27.078 0-44.186-21.047-44.186-48.125 0-25.106 16.984-47.015 44.308-47.015 8.123 0 15.755 3.384 21.169 7.065l-5.045 11.162.256.433zm16.296-16.407h15.631v91.878h-15.631v-91.878zm72.937 12.085h-26.277v25.206h25.722v12.334h-25.722V548.1h30.991v12.357h-46.734v-91.915l42.02.025v12.331zm31.876 79.559v-79.559h-24.159v-12.356h64.048v12.356h-24.123v79.559h-15.754zm66.56 0v-38.475l-24-53.415h17.563c5.538 13.256 10.904 25.181 16.27 41.07 6.031-16.001 12.209-27.938 18.24-41.107h12.924l-25.354 53.415v38.4h-15.754l.111.112z"/></svg>